<mxfile host="65bd71144e">
    <diagram id="CI1A4iSVqsfcVsGM0A-G" name="Page-1">
        <mxGraphModel dx="746" dy="308" grid="1" gridSize="10" guides="1" tooltips="1" connect="1" arrows="1" fold="1" page="1" pageScale="1" pageWidth="850" pageHeight="1100" math="0" shadow="0">
            <root>
                <mxCell id="0"/>
                <mxCell id="1" parent="0"/>
                <mxCell id="2" value="" style="shape=image;verticalLabelPosition=bottom;labelBackgroundColor=default;verticalAlign=top;aspect=fixed;imageAspect=0;image=data:image/jpeg,/9j/4AAQSkZJRgABAQAAAQABAAD/2wCEAAYGBgYHBgcICAcKCwoLCg8ODAwODxYQERAREBYiFRkVFRkVIh4kHhweJB42KiYmKjY+NDI0PkxERExfWl98fKcBBgYGBgcGBwgIBwoLCgsKDw4MDA4PFhAREBEQFiIVGRUVGRUiHiQeHB4kHjYqJiYqNj40MjQ+TERETF9aX3x8p//CABEIBAMFrwMBIgACEQEDEQH/xAAtAAADAQEBAAAAAAAAAAAAAAAAAQIDBAUBAQEBAAAAAAAAAAAAAAAAAAABAv/aAAwDAQACEAMQAAAC9JozWAAFhlpkbEBZLEJGjljQE3FjEwz0zNABoCXNFAAnINMABTSGAAIKmgAFNIoAQwilRJQSrkapkFohlEthKuRjBAEXNA0BLksSKECvOiiQqRFuQpICs6KEDQixA0IKljAJAGAOKRQAAEXFiaBzUlAA0yWmMQOakoAAQmmDTCakpoGAsVNIAK5cpYhWhk1FoAKlSQGCVBDYIoIGxDYmlFgAAc4CgygBFFwXN81R0ZdJnGvKXqaGZfKb0VCKQolHQJFkgqhlkouVJo8aNCGAkWIGhDqKGAKaksENNE3noAAk0UAABNTQNATSGDEATU0DQE1BYAAibiwABNFAAmhVNAAJMAbJVyS6ZBaIHRLYKbkbEMQKooABoRZIUSBWdFEhcpFuAokCoZThlSSaEhakCoZRLHLRTkWkBNTSMTUlpKABNCc0MEJzQNMJqSxOAA5wFAKYmiz0zNctQ4+xqpTgz6sdxcfZxV06Z6ZDTIz0xOh4o3AIuLAAIvAWnP1iFRIqEUEzrBNFElhCoEWiSkRSoBA0IsQMkHUBZIUkjRSFJArzsYgcVJYAICbihgAhFgAmhVNAAITG0wioLaYAEVNDACKksAACKmwACagsAACamgACakoAACamgaYTUlAAAS1QhgpuQKCSgiiiC0SrQFBKtEFMljJYDEFSSaAQNM5wFGnQAiy1zLaRZmxqWamYXzaKtLzqLJBRpA6GMQReegwAx1kjRom5s4+qNDnvWSsd8Q2mgAJTCgQ5qRNSUc8nWnmbEMpY7CqaAAJcliYlUiYzl35e0SjUS0klWiKdEFhmWCKCVGgNsQAmmMQOKg0JC1IFZ0WpCpJNSQokFcUMQOKksQMEKooYmEuSwABCqaBoCaksAAQqmgACakpgIaE0xgCVSUACaFSYACAGAEXBYEDA5wFYFACLPXM0TwNnhqFYbjAHNSJqhKmRGkgUEloytaEFhM6SBSEwJqWUSFQ5LqAsgGQGhAWkiiaMNBlRQRowiwFU0A0KagznSh49CM8dMh9cgwZlnXQE3AVNAAS5sE5IqsDc5ugtyybiwACLyLfL0FEYm9Z5nQsbLz1zKYxDCKnQkbJVyBQSUEMolMEnmaCg0MtAbQOaCdIGyiVeYUqEMCaQwBoQqllEsaSNEgpJFOGUSDJCxA5clgDAjnaFYFACGemZpFyJFnN1Z6DABNCqaAGc5YVhtma8vVmBWQ9+boKi4LAGnmOuajd5o0l8x1PPQEwipoAARBYqFnqiCoKZRKvEttklMjPbMpsCakKTGJA5DQzC4JNCAszRdZUaEMrK5HaAqKFedjEw5+iAbZhPSGFuzKqBZ6cprQwNIM987JuaCakoAACLixMDFbSZ6sM7YQizDdsU0haJkpszTRo3IAiwATQqljJY4qDQUGqEDTAaE0wGCm4LBgBLzgUNMAEMtYBaMzNEZN0SWElSK5Y3KKhwakBZIK8rKcBebk1IZWdBx9K2MXqg5OyTLoiwAIqNAw3RGXTkLQowVg8OiRzrkBeZqqxF0Z6CBjACakbTCGgazNjOTXKuc7CYJyXQO+XoLMKNovI0yMB9Skqo1JKCFpIiwlWjNmRq50Jm8zUAEwilQmASIsQMQKooYgEIskKXNRredFEhSSNCQpwBUMaaKmQ1JCkgKhjEDl5D0KBNBUsaATTGAEXBbTACXnApgAAhFQaADQEXFjEDlyOosYmKakpgEtE3GgACi4KGCVBnS0ILCJ0kCmQWGVFElApuCmgaEKpZRAXJJoSyWwbzosgLlI0JYDCAsx2AnHogrDpRz9AHJ1RZxvrQ8tYMNNaJ5+uTDpy0GAEuSmgeOsGc3sRWegZ0GgAAhVFgCMs92IWJ1S8DR5Way8S6y0HmQa1GhmLA7HNBNSUAABNRmb5JhYixyKkyWMkoMXohjZKtEjokoJGxDYpqS2mAEvODoABoRReRsZhoQBeTNCGVIh3nYxAIRYAJonSLEAE1JQAAEXFjEBFwaCBoCLiwBhF5mgmABFxYABFwW0wAIqbEwFNwMoErDKloZlhE6wMpkKwwsszNAidJKYAATedFEBUkmpAaKAd5UUSAEmqlGigKrNlOGNIKAGgFU0KNASaFTQmIyt0MQE1JYmABE3Rlo2QqRSpACBzQBJOWoRugTcjYiAZNSGyINJuCwBocvO06AAYJMXBoGZoc2g7xRuCHNISoJrPYhWgLRJQQ3RBYQrQDABE3DKcBUkmpDKJQVlZZAXDk0csYgm89AACLgsAACaixiBxUlgA0EaZ2NAGemZoAABncWAARcGgAAEXFgMFNSUwBNE1NDAFLBgAmhUmAwkYAwSpCYxDCVQIoIVohuiSglWhFhBaJZRDYSWhFBBaIoYTQIaKchSSKcMolDqGWQFwI0AACXBhQAMBJmpLz0DC9A5jWicumTGtJKi8iOjOx5a5m2O+Zj0oFcWAAk5KaYAibz0EAE1JYgBhFRoAMUaZljZKoM2WQWETpIFMgsMqKJKBRpBTAYgV50UpCocmpAWQCvKynhoXm5NSQoQKosAAi5LABORVNDTCXLGAE1I2mMTJaYwAmpG0wAEgKAEORDCbTCQKABNCqaBoBNFAAhBUsGmIAoAJqRtMABNMaYKbgsAAIxAtABiEWWsA7CDRGVlCACakaAWkBSSNSAtSh3myyEVIjQkKEhXnoAARUGjTAAz0z0GAGekFtMEwzubENCm8ywBiCNM9AAFNSWJgATeegABF5mgAJhFTZydNEpFxZQwSoM6WhBYZlAiwhaSS6ZBYZtskoJnSSabJKCB0S2Cm5BpgAIGDQORDchRLBILJCkkVWbLIY0kaEBakHUMpwwchoIHLQ2gYBNSyhMIvMtpgAYAKwAARRcltA0BN52MAJclAwAJaYwATkKTBNCTRSbJnSTO1oQWGc6yBYQUGVOiKoJm5KYA0hXnRZAVnUGpAUQBpjRoQF5uTQllCCNcdRgBnpmaAAAZ6Z6ADFFwWAA0RpFgASDGAE1BTAACKmhoAi4LAAAmosaAIuCmgHNE1LKQBFSNpgJiAGACcjAG5YhBQAJoYqBMJGDGCVIRTIdBm3RJTIVwW0wAMAFYAAIprE3M5NjOhXlZQgcVBoJgATUUUIHLQVLGmiQCmmCaJuLAAU3BaaAAmosYmKak0EwaCbixMAzuCwYlSM7jQABRpmUUElhjTszdhEayBYQWjKyyHQROsDGACFcMsgCs6LIC4JNSAshivKiiUXBBsQFkAVnRZAXBJoSFOGDzoskHLg0EwAJqaAAIqRgxNMlpg0xy0Npg0xICmmE1JTljAJaoGgIuCwBiDEBWAACSnJOVgbRYmmBQROsCFQk8Tm7uL0Uh0LKuQbZKtEYqjZnOdKEFwGhAVLk0IRZKC8uU7yGVJJq4ZQgVxQxMUXJYgaaIuLAAM9IKaCkBN52MAU1JYAgQrzsYCkVKW0wmpG0wAIuLAGKakoAACLiwQCi4LaBiZFTYhoJqRjQAyGrEqCZ0gBgFBm3RBYROsCLCSgzbZJTIWkidMkoIYFCCpEVUMpwDcMsgLgCwAaDEGoAACTFwYaSFbRoRjsidRmVNE0mceetmm00MQOXJbQGG0HNtWxOWuYtOfcWuG4KeU7pyo1XNZtMZF55d4zl2LXF1GqoEqCKKJKZE6wc8XuTcbGLx3AdExrAxoYgV50WQFQ+U7Dm2LSQtMaNHAUpk2eGhciLEwAIvOyhA87gsAE0TeeggBTUlRYDQTcUAATUlTSBpkXFgAEXAxooAmpoAAi4KBA0yamgACagtoGJksBsATkppgATU0MAIqSwAaDIBQAAEjLbnNWtBAEXDLIC5UmjgLUQaVnRRmGkqDZ5hqZsdRQ5AROIdfP0BnoyFYS6DHLrRjvFmc7I4ulssAAQrzsoTCWjk6oYtXkVeWpzR0I05unmL2mgAJuLAAjk6YJ6lIqOc2co1rm3DAk2twXNSUqZCtGdKyW2TGsA6QigytWQUExrAFBJTMqKIdBM6SBQSUGdJg0DipKEyiQKzookHJJoQFkMKzookKhwakMpwwcUWSxy5KaYxAqllCAmpLAAAyAUAABJmkY1vBnOlHLe2hynTyi0xg9A50bYLpCpoStCmpKGAAKpszdBGXRANskpkKwlahk7Rm3RLoJjWBgDEgvNmhAXKRqQFykO8qLebK59pC0ihBOmdjACWi8tUGO0CnYIKDn3VhlrJU1JYAJozuLGJhFwWiSnNE3FACCagtNBSZFTYgAlyWmhpMVRQwAi4KchSEFRYABNQUNAATc0CaCLgpgAMhjAYKbkCmSUEMskoIdSWAABkAAAAEhBqSxoQqyDXm6Q5NtZKBgCJuLAEEXBYAAE3FjTQZ6ZltMABNMoASaFU0DQE0hjBKpFU2AAICgATRFzYACmpKVBKpEsokpmbLILCI2gFoGbtEVNiKBRpIwAEE3myyGVKCyQsgC8qKIC5UmqkLIYVnRRIOXBoSDcsV50UICakpMAAVRYABFwWAIQFSxoBTcFADAJqaGJhNSU0DBCqaGJiTRYmABkMEAABM0ilQSrRwVtkHSWQtJApkFozp0QWiJ1kRQS2Gek0DkKzqTQkLIB1nRoQFykU4CyGUpDQkKlyOooYgE0WIGhCuLAASApAE1A6TBoJvOxgBnpmW0wAIuLAAIuCwATRLmwAFNQaAAATUWAARcFMAAJqaAAU3BQwSpCc2SUEqpAoJKCGWQ6CY0QloGboM26JKCY1kl0CGEUmMTHLRTkKJAvNlvNlJMoAYBk0xAAAQAWACaM+fdjsAlooAaaJuKAAIuRjQ0BN52MAIuC2gYBGmdjaYTUFCYACQxpgpuRDZLbIGxFokpCKZBYZssh0EzeZbQNyCvOiiAuCDcgLIYrzopwFQ4NlIUkE3FDEDipLAAAi4sABRpBTQMETc0NNBFIoAE0Tc0AAppDAAciuKGICakpoGhCqaAAIpDTAECuLBpiTRQAAE3FDaBAFNAwDJoAAACZqSmgaQFZssgKSk1M2WQDrNlkBcqTVSFEgrzooTCagtpgATeegxA5cGggYmRU0MAJclACGhAFOWOXBo0wBE1NDBDzuC2mABNRYABFQaiBgEXFgCHNQWmCTDOlQlTiFpFBYQWiKKILCFaEWEFyTRRJYZqwksJVImkDaAEFEhSENwyiQaQWSFJIdZssgKSRZIXIgvOxuWCaKEwAE1QACAKAAAzAAAACACmgaEKpoABTUliYIBVFgAE1IxglSIZRJTInWALCCwzoomNshFMCmQRqRRRLaCLgp8+R2nNuFRJsZsuVJq8maPMHeVFkBUEmxDKJZN52AARclgA0E3FgBBnpnWgEIETU1Q0Q4pVQAJyKkDAEJlCBy5KaYAEuaGAE1AwBtMQmMAJqRtMQAhBQAJyNpgAJAMABhLKJKCCgRTILkltkugztMoTAAzAAAACARYgaAVTQJoU0igABCqaGJhFwUANARcaAALl0QrTNo05S9+HuMOfvgeW/lndo8TSxEXyUdTQEaZmG/N2mWgzPk7Ocrpy1FydkHJpdmjQTUaC5+jmIrqguLxjHayiNLOXPu4zpjaBOmQ6DK1ZJYRG0AtFEFqs6GJiGkFkMqRFkBZDFedFEMqSTRwFkAVnRZAVJJZLKcsmpZQATUjAAAlMG0xTUFUgBMQA2gaaCpoABADAHNSDVAAS0yhMADMAAAAITAKCVaIbogsM51kRYZmiM6dEOmROsAtESUjPSaGSDkRqQFkBn0ZM0eYaZOTUgKIZxdFUaEhcVJynbmTsBDkMOuaDLblJ68thDRGmehkXzHVPPsaDRy9eWpnpkF4LeLi860BQwRNxdMCCLirTUCaJqbpDRLmhtMUXBbTAAipsTAIvM0AAAlqgTCVUjGAMIHRKsIWkAUyC0ZU2SWETrJJYQ2yCmSWEqkDTGIByFiRSSKchTgG4sYAxMzAAAARIMYAJoVTQAEgigATQqmgaYpqS0wQ0RcWAARcGgmABNRYwAi4KYAARc0CYKbkZQSWGVFmZoGa0gZTM1qjGyySwiNsxloQ0TpnRRAVDg1IDRQDvKjRQFzKNSCLlTVVnRalk3nZRLHneZoADTIuLAAIuCwABE3FgAEXBQMACamgACLgpgABLmgACLgoAABNMYAJobTAAQA2gE0FTQAEuaGAABAAAAmiARYkUkiqzZRKKJRoQFqQdZst5hcpGpAWpBXnYxMIqDQAYBFxYNMM7gsYIaI0z0AAJqSxA2gjTOxiAz0zLYDAM9IsAIM7zrUCAFU3noIAM6zNkAwIm87GAJBVAQRUFMAGENXUFETOsULRElMzZZBYROsAUzN2jNuiHQTGsA6QmBNTQyQuBGhAWQBWdFqQqCTQgLIY6yoskLgRbhlCAJZQAJyU5oACKmhgAAZtMAATRFTQ08zKyDXTDUow3EkFGGhamhVGZ0JhMXzHUACYSNklBE6SJ0yCwzosgsJjWALCHQZUUS6BTcjfH1FkgtMqLM2Xm5NXAWZsLyosgLzcGxCNFKHWdjAJz1koAYBFzcAmSFUmEEXmaAAARcWIAcXBQ0DTIuLAEE1FaAoaAi4ugFDi860AgAqaiwBDi8zRyFICaiwAFNQWAAAnNDAEqkGMSoJGyXQTOkiKZJQRc0MAADMAYAJoipC4phlrIZbIFQcnSmc3SUc+saEa56AAZcvdka49GZhoanMq1Md1Rz5aB0Z65mwBNxYABy9OZGs6GMLcedg9JomM8Cu3OR6+d3ivm3LACazNiKAx0I2y1AFBNTVgQJomoukOoznWKS0DN2jK+fpE7IzZdQWREazQWRBZWNrQkaCKk0JRbzB3lRakioc1oRidJmDvGiyGVJBsQFkAXnRSAJqCxghoi5oABTcFNMACamgAEqgpoG0yallIBxUlNMACaixgAAZtMAQ0BmyiSwhaQBVGZYZlMgsIWsmVWzM0DIsEWEjQrljJCoILchZDHWbNDMNMyTYgNFATrlZVQhTpBrAzLeQ5+rPQABRpmWwObaNiNctAJIcXFaTZGUINc9Gc2hqNCqxOHFSc2u2Y8OiTPoy0B8+Z2TUFtAwRGmeghc5sYwdZz7Drgs6rzsYAReY8nqI5egFiHS5RcVz10gANEtWSUETaE2ySghlEFhCpAWEFozosgsInSQaYNAVDLJSXIi3AtkMKixgAAZtAAACJqaJmcjaNINqz0AAlpgAE1Bmo1Lho0zriO3Tn2Hz7cp1XzbC04useOwTngztQCuLAAU1zHU4C3nRlvydQyaCJk2UMqTIt0yDQIjWBmgQVJLqjM0CI2gcbYxz9NhlZVRUobTKcBcEmxBFqAV55UumHGmZFbmYaGbFplRcDis6iraIh2hXnpQ0Q8tMw0TM7ZWU1pCx6A5eP1Mq1acMFU3FAARy9WR0AAARc0HJ1QYXoiFnubAE1NAAHP0YHP252ZJ6C1x2GACaG0wAIuaGAABmAAAJoipY3AXJJo4C1IFQyyAqRBUBWdAuPbQe0BeVAmUZaNkUIxy7QTERrzdQmBnzdkFZbhnbRjVIy3LOat4MumLMNKDj6stgTCZuDRphKsyedRtnUlyYV1AoMt+Unr5OsyoCdMtqFlMdEacxtfJ0FrOC3z6m8xidOenKdYmABFxdAOMkOqQQiys26INAidYEUCLDKnRmSxxqiGWS2EUmDQORGhAWpBvNmhmFygtwjQgCoZZAVIiyWVLCbmhiYTUFtAxAqmhgAAZgAACAi4sM64jumeU7LxZsAS5oAATkbTDHXnHvNBjeZunIxskVEizNlaJz3RlqUSWGa0QiwgtEUUSUyJ0QNghom5YABnclkg3KKcUNwCBlvMjSCK0qAvNkRrldYbjKw2kjRs5n0KMrLrB6kZzoiwATDPSLppkZ5dPPSNKhgVNxcDTF5/oZVy6b1E4dPPUbmpydUhlry7Fa52ZPHcqpoABJg5SNJfEdk5hevP0CQFAAEDrn3GsNC5eJupY1hoU5sCkJVkW6EkprNzQwAAMwAAEAZ3FDmgUaQWMAAmpoAAi4KaZHN14mfVnqYaKzhOxF8vUjHWg5NlsTybZHRokVXN0jEyUwoAE0KpoAAQixBSEFRQwQS0UgHNSFRYAE1FjEQ4qasTAETU0JUEzpAymQWRlRdQWGc6wBYQWGVFklETOk0FIQILzoogLUhoSi5JKcMokCRlJBzdDktwyiWAmDAcXIMYholpjAFy9cmejgjeZMDoBY9UnLtdHNvnqN56GHP15IzfNdKEFTQwAaZkACaBNGbWhBYQrQGiILDNuiCwidYE7CCwyooktCm5BgMQJywTRpCA1yZoQDebNTMNJUl1kzQzZSgNTNlpSXWdFJMRFjACLzKoYAibz0Ewgz0zrQAACLixMQ4uCwAAibzumBCi4qwIEFTU0MThJqqAhJzVOagAJaqhhBNRVNMAIkHQmgi4KAAYQxiKZC0kl0EOgzKZJQJUhMoidQlUgYACCoZRIVDkVqikgdyxgA0zIAEwSYZaZ6AAKak0ABNCqaAAIuCwAAIqaGJhFwUwAAlpgwCakbAGgmpoYA4qSmmABDVAAE1IxslWGVFElhE6wNWEGiMdFoZmjM42zGWELRGOiskYE1JbkKJBXlZahlQSakIsgC8rKeYUQzQzcXAqtyxiZNTQxATUFtMBMipoEwU1BQMACXNDaBy5GMAAhpjABNBU0AAgChA5aBzQAAgKABNDqaAAGmZAACBMMrljJg1mZOggKJB1mzRQFwI0IZRIK8rG4CpJNSQpJk1NA0DipLAAAi4sABxUlgDEzO4sAAi4LAGAZ3NiYBnpBYAAiNM9QADPTMtpgmiLiwACLg0acCAjTOxiAi4qwIJqApOgAms7GIHFwUMJKRFKySwidJAtmZojKnRC1RE6wIsIbCKmhuZNIcmjhFkAVmyyAuSS6zZZAUSjQhlIQVLGAIAoTBOSqmgaBiDMAEAJoi89CeffAt46nQY6FJoVRYABLRQmAsi65OkoGKXBomCKDKiiQQ50kBskoM6dGVc/UTOkjGyXQZsoRQTGuY2wGgm4ZRKNISNCAsw1C8rLIC83BsoZRAOsqLIZUNGhJFCKm87GBClqrAgi4psAAM2mNgPLWC0wE0RpFiACLg0aBoCNM7GJFRUlAAmGdzQ0ACRbljQEVFgAEtFOWAAgAVSNNAOiCwzVhNDEVJbkKSCiWSmgABNGemVjmgiNZOfo1BZbcQu3j7QAFNSWCFlrBz9eHQYaKjCrZYA0BFxZln0IfP04C2VGWW2ZtcM594DWbyNXxdRpNcpW3D2GhzdA87gtpgATUgVx9BcTyHokhh05Zm98/QQ8tS87yNSczY5+gi89AACakoagSqoc2IuYhl1JYQtIEWEDkmiiSwzOfpKAGZwa1DKJRcqTYgNFIK86KJCpJNCQokFUUMAIuCmMEBFxQwBTUlAwAIYwTATkoAGqJaYAioqSmmAAACEAACaM2rIzlllA3YYcPXoK3ZmaBmtJBWEZ7yZaFkFhEayMYIihXFDcouCTUgNFAF5UUSGmZIayFqKI1yopwyoINnmyyGLOpHsmTh05lthGHSHL15aHJbsvDpgMelHL0qiNIsAAmpLw2yhaDrm2qicelRFzVMCCLzq5UijoDmNEaTUExrzHZfH1GN40bOILqMTd5ZHa4oYBNRYwBTUlACGENWSUETrIiwhaIyool0EzpInQSrRDbEMEmhtBRINwFEhciLaYAAASAAAJozuKOFUHROvEeg8tTm0zRrUM2EBLksAE0IjE6nhqLMzOmstDDbLQWnD1GicGemNmyfGdhnYq4tToDnOiLg0AAEKsg1CSouCwAGGdKhCsidcylYQXJFZbAWERrIFhC0RlasksIVoz0oJVyDAblCvOiyAvJ5j2zZZAF5MsgKzqTRJmL2Cbiw5uqTHDuxNXOJ0iCLmhgBNQWACaIuLBoHFSWAEtE1NDEDmpG0AAJzQxMSaKExoBOaAAJaLAAGIYQACYIAyqbCLkeGshvAXKCZqiyEWpRqQFqUZ1nsOoYZ6SaEg5oOTpmy86DJaya8fYistA4uirFhtJpFyWAIAyCyuXrzLm4LAAAjHeTHagzpojTGjoy1wJ2y0NM9eY1Yic9EbxXOLoz1GJktMaeYqx2NJxZs8tCLiwaAmpK5+jmOkWJpUsHz9ARWZoRRSGS1ZKtETrBJoElozudCSwhaQBYZj5zWihMQ5cGpDKUodZs0M2VJJoQFkA6yotwxy0U5oACamhgClhQAxMAZmAAAgRFxYLFGyzDoAHLkKhlLOTZY6GhhsEuR1GR0GG4ovkOt8vUC5aNbmhLPQFpI1bILRnRRBYROsDWgZlozsszWgRG0AWyCgy1jQQARclkouRBebNFDLgk2Mw0mUW82WQDrKy1IVJJbQFSybzsYmE1A5sM8ulEsDn6os57tGF6MjVMjSKHnfMURRrjpJtzdWQaxY0AS5NBByC6xJQbVFmeOmR0tc50ZvlOnTj7ABDlobAE0JzQDBTcFDCSgljErZnQFADABpmQMTECaIvKyZ0DDRho0wmpJHRyz1wc/SMz2VHPsBlj1I5+vDcyx6pMtyjhrskjn6KDLRlTUGgAAGeU6msXiFOTZpiTCLiTQ5bN8lmdTz0BoJ0y0GCDn6OU3tZmqx2IvgZ3ucy3zs6llRpneZbTBoJqMDqfH0jzVGqljGiKx3JUsqdMDQdElBlUaCCiZ0kCwhsIpMmHRU8vQakBopAvJmhAVKRqs2LSQVTRakJbCpoI5+uDDoljEwQFAAnkc9Z9ZbTFNSWAABNJjaBNMYAwYAGTAQ0CaIqNBKgzVoHYROskOmQWGZaEaBmtEZY1Qa2iFohOkIYRc0AIcUi3IUkibmiiEVLk1eYWpAc0cvXLHFQaOQogHeNlkMUXJrx9bMdXBzrVHRlpRz6lk0wWWuRo0wAIz01OTqAxtoz0dBlqjk3LIdUZ4dWA1ugnTMfN04ka47GiaKaBoBVCFFYBusDtEwBCqaHDwLucjoeWo00KpoEwkTGqDNXATeZYWQUCaoyw3sjRskoIm0jaagIbkKcMKz0GwGAABk0wTQJoz0iwQCTRoAE1IqTAAQBQAk5C4oABIRYAAE3FgAEtFNME0TU2IAU1JbQCaFcUMAIqSxMQ0TUWAwUtFDZGPRBhtbILDKyyVYRG2YFhDpmVqxFBOe0DKCSkRc0DljzqDUgLIAvKhuUVKk1ICyUNzRldBBclgBNIVJmZbMMOwM9gBNADFjuHHrdGc7wZaFGT1onn68B0szWlIzm3NKmhDQgBtMJqRtMGBNTQwYAAAZNA0AJhkOiCAsJNXDKSkqs2WQFKQ1M2VKkq8maGYWpRqQFkod5UWQxpBYgpCFcUCaCaktNDQE3FDaAQiwAmpFU0DQITKEDioNAAAI0y1AEPLTM0BiGEXnoMQOag0EAATUWDQEXBYAAibiwAFLQwATQqVElBCoJdMidYEWzMsM26ILZmtJE2yWwkAqoC4aFebNJQITK5t2cmm8jUynQQKyWU5CpEU5oYmTUWNpgAAMxAAAE0RU2c2+GxLmy2gc1INMAQCk0FynUsNR0mDAzfPZuGZrKBtMDOwKQ1aJVoltkFIlWhFhBQQ3ZBaILBFoycakt0QXzl1Gohgs9MzVyFOAWmVlqQrOszZ5ssgFeVlkBpBBsQFkAXlZQgJcmggaEK87GIEgGAE1I2mABLmihMJqRtAAE1FgAOKkbAYBLTGACcjaYwZmxjACakGMSoIYxFBM6SA2SWGdzQ2AAAAZAAAE0jO86ByEaSGrkGhDcseenMYdWHWHH2o4e1oKmhphx3uhZdEGWtyPDfjH2zZLTGAE1BTlnOrsjHoCVqjn1y1NLihgE1NDi8hO8COvDcnk6MTZnMdfJ1cw+Ps5j1GgYBFxZKz1K59MDbXn6AaCaiwMGbTXOdIoNFjY7iwVBMaSBQTNyS6ZDoIVMkqQV5lGPQS3Iqy1G5CpEW4CiQK59SyGVIi3mGhIDllCBy0NoKc0ZsCgAmpG0wGiWmMAJuCgBiCbz0GAAAAGQAAAmiKmyebXA6kqKKCFpJLKM+brRLpAUyJ1kimySwzKBFBM6Qc287iYE1LKEipx1KchRIDhmhAOKkqoC3mwvKjSUFZXBo82Dlg87Lw1DDPfA7SWNyCvPQAAi4CwAAio0MN0w59szeLDmreB1FgAJAMERi0a3DMdstzn6eXqHM6HMtKKeeplEB0NZG1c+ppFSU0Dy14yeyNQTwNpw3JmdihhLVCVyJUhZ64mlDJbZLoIWkAxiKDNrFOgYoqQNAxBOmegwAAAAyAAAE0Rlqzg6rs5eiaNAQ4uTl0NjDVSPl7MRdedhNSKkjOstgUodxQ2kU4oL5Ogz25+kI5qOhXyHVXJ1DEE1FjRiWY7E0g0AJvPQGgeF8xps4LDA1qLMd+bpFkWMQMrEW3N1kEbETrAFhBcnPvydpJYROkg6CSkSyhDRLTKzqSgRZIUSE6ZspwFySW4DOqYrysi2Di4KaY+XqgWmG4c/RJJcGPVnoABNTQYb4homZ0aHNqUZQtCdBlcvQDyaDo59jLPTYWWcnckFNIoTIuLGJgAABkAAAJoyoszWgZlAyglUhUmS2CEFkouZRedQO0DedFpBWbk1kCKYTpnZzXsx53mGqRRDJ0y0KzsFGmZN2hoCNM9By2c66IFToWVgufpDO7REb5mFbUVjrJM6QZ9OeoRcGgIwz1BTpoUAKakVZo2zrMe/N0gCJqLGnzGrxo2eOoLGi3MmjwR0RnJ0xQAsTSs9iSwidYEWyCwyboksIWkidBJSIrHcGoNJEW4ZRDFUhZDGiSyQoQFZ0Y3oDQikAwCbiwaABiaDMAAAQiLhlLOSr4uoJ59Tshch2Vw6HUZaiM8zph4j0MDpeWohIKhlEWE1JQwkoM7mTQmyZzRuMJFRFzoSWETpAlzaGrpmOi0IdApuRlBJQZUWQWEZ7QMYABGuVlEovOoNSAtJBeVGhmypQaEBcqTRwFkgrysvOwWemRbUmPQWQqowvQMK0kVMIz3ky6M9AaYZ6QWiDPWNCTGzZ56BFyUAPO8SOnm3HnQUYM6BZGxjoN4ajfLqOdOQ7QATCWmDw2BSjVUEq5JuaGAAAAGYEAFJMMqihwwy0aI6JCKqTLdMKlHNrhoWtQfH25mPXFGGemgsN4M+vl6gmoNAAAM+PeDQNDmW6NOXrQ7Az0z0AAMN/NOcrU36+TqJvPQYATUGgmABF56AAKLgsAACbz0AASclgAnIVNAAS0xgBNwUMBMM6VAqCZ0kS0CHQZ0USUETrAFAmwhjAEOWiyQokFUMtwFySaEhUMMd4oKTMTaRzoGa1RE6Ii1oHFvJ0Aibz0JAJ0TMLoLABORVNDAAAADICAAE1WekWAAkBYMSqRMYpsObYoSsIWkkumZmgY06IdBE6wMoJKDl2LE2Cz1gY0DTM9IsYgeWkFNIjRBh1cXUaGbLgk1ICzNheNlkBcEGxAWpAvKyyWJCNBMJqB0mABF56AAEXBoIGIJqLGIHFQaCYAEaZ2NAEXA2goEKooYIcuSwBoCamgYBNSUDEqRFTYlQTOkgMAoIbYigzNJEtAzdozooQwSaGxDQgqaGAAAAGQEAAJqs9MtBiBAjQAJqQqLAAipoYMUXmaAhoCbz0BNBF5mgAMRN52MAM7gsYIaI0y1AAUXBYAAEXnoDTEnJYAhom89ABCVSUDJGEUUSUEDYiwidcxlMgsMrVklBM6QBYSUjO5oGgcOTRwFmbDTGyyQqHBolJqpZNRRSTHLk0EwAIuaGAE1JTQNNGdzYAyVUjGAwJuLAENNDAAEKpYwAmpKABNE1NgAAAJozAgABNVlGmJydUdqZqxQsIWiISg2dBnSoYmGdyWkijBG2mNlkBWdQakBZIK8rLICs6g2IC1KFpjoWpBxWZsQyhBGmWgwAi8zUQNARcaCGCmpLACagdTQAEXnoAA87zNABgEXnoAARcFiYNBFxYAxRcFgAARcWMAIuRjBDCGrJKCZ0gCwh0GdFElAptAUCGiamhkhUkmjgLIB1myyWUkiyQpICs6KJCpEWIHLkLmgAAAQ0ZgQAAmqz5+izGtMwjXlOm80TrxdRjtn0Dwy0HtxdRrjjodOd+aehXJ1HPpw9oVw9pqIHFwWACnA2vMNQZM3BYwSpEUgYIM9JGUEjDOiiSuY6J0kCwgoM6LIdBCpiKCM5RvQAARcUUSi4JNXmGhmw0xo0IzN83JqpRbzYtMdCnIOKksAARNxYNA4qSwATRN56AICag0EwBCqLAAcVJYA0BNTQABNSUwAAmpoGmEtFAAmEtUIYSqQ1QTOkiuaAAAATDFhAJgmqypUJpDUM1IDSUiqhhUhnrnQUgrOpJ2QZ6iMdpoAAi5LQE5WyctqKqWEXBoJgmjlx06TnvUM5viOydshG+A9o0ObLpoMd4Hn0cYuzHUdTQxBLmhtBx7zZhSDbWKIuKGIDNZHU+fcZijS+HuK49eY7prnOlZhOyCb4+ksbJVIc2EFozpWSUE568x0NgKkZ2qEnznTIjQmTQhheVFkMqRFrLI7CQKzooQOaksTAAi4sGgE5LAAETcWAAk0UAE1A6mgAAAADECAAaaqKizj6ubpOfozZdc+xS4O8HxWdZhuRU2CYKNIGUEq0QyzM0RCuRlhBQZ0USUyFpIFBKtGWksY2RGkjYxZ6SLTOhkBSlmsyFqUXWTNDMC8qLIDSCDYhlEgqy0GJklwRoUYLoRzdedmauh+f6GZeG4NMPP6c9DdNBNQauWGG+AtVRy9eehGeiJ2iyVMmtTROc6F5jNM9eQ6XjsRMI6K5dhNZBsSPTk3LZRJTJVICgkEFSxlSCoEUElITGIaECLEDlyVU0AAAAAYgQADQVF5UUpRSQWmyHUHEdHQRogm87GJhF5mgAAibigAFLk0aYIQriwACWiwAmpJYxgiUI0BDmoFcUMATmwACazLaBgEVFjACNMyxoQwzuNBK0KdJEWEFhlRZDoJjWQKCVQRU2JoHIjV5stSDchTgGlJq4ZUiHWdDaRFDK5ukM7AzNGQtQ5b2RXN1I5tbQrixNMSqS00ZW2c8vUS0DPfOy0A8duUrXk7DGag6UBQATUjqWMAAAAMQIAATVRpFhNBE0hlBMayIpkO0ZUWQWETpIxghompoBA4aNSAtSBpjZZAUpDUhGkpDrOiiACQ0IZUOSnFDECvOxtMUXmaAAAZ3GgABFwaJghojTOxiBxeZogGJkXFgAEVBoJgmibzsYBKcluWMAKmgGEoBgxKpBjJVIhtiKCc9pBjE2CmgYAIBVIUSFJBbgLUg6zZoQxoRZIUJBUskoAQMTBOSnNDAAAADERDEDQVFxYwCYuDQAIuCmnAAReelAARcFgAARcWAmKLg0EwTQqixiYppFABNSFTQJhAAxgo0gCglWGVFkugidYAsILDKiyCwiNsyigkpGekWDSKhyaEBbzB3jZZDHFQakhSSCoopICQKaCk0OpoaAkAYMJqRtMQIlplIATQVNDExNMYATUg0waAQFOWNOQqaAAE0MYJUhMYlQQNklhC0gdJjAAAADACAAE0ZUtagtEK0BaJm5HUhRKFpjZbzC4JNjMNFAOsrLUouHJo4ZSEK4oYmIEWIHFSOpoEBDTKACKgsAADPTPQYgeemZoIBoI0y1BoDO4NGgACLz0GgCakoGIaJuLAASYMAE0JpgmEDBDAKBUMRSJVAmMJqRtMSaJaZRIUiS3my3DG5CxA5cjaYACaYwBy0DVAAE1JYAJoGmABI0UmBFyNpjEwAAA5wIYAIDPUKEAkBYEEBTYAAZ6AAApAtAABNAAApAbASATAAAQDYBIDYAATYFABmBoAABnoAMBQBogAAz0AYAoA0ABARoAABIFMAQE2AACQFABIDAGgJAGgKAGwGASwAAEA2AkBLAYAkAqAaAYA2AkAACAEwGwGgCgAAEBQA0AqAABADACAKYAwBAMA//8QAAv/aAAwDAQACAAMAAAAhuCBcNHerRTJV1d9BBV9R9tRxZJhhx1B1dNtJJlh51xx1QlRXxhFNFB11ZBBpt19pVNFRFR5xtA98NMYJc5tJVZ5NXDD2wBp8W648fVyVBV19dpl9dFB1FRJhh9hZtp5pVtNpF51RBVttJZFh1ZNRl5JxpFxpVJp9NJF9dlZxsQdYZxx5lpRpLD28J8H0gy0WpRB9l9Z75llVNxJFR59tx9FxldphVphZH1PBR99JpdBBVRdBBRBl9BBxZ99tpB9td9Z95B15Bx5pBdN/rWoB4FdebuzFDZtXRZlJhF1VpxlVFt9Jd19dJVVogVdl91tVRd1R1RdZd9FNhNN91NJNxlht5VtBd9h1VFt5BhNR1t/jeA90BBD9VdZetBiVIFpgV9hBGl1dJBd991rlh95R1RZxQ5V5F595lhJZxdhhhlFJFdhVt11BhlFxVddlZtRVJRVxtdDmA9Ihtj15958BdQp71VMhxhZJ5lZdllV1tWddZF1N7d1dhtBJJJ5NRhJlpF1hRdppBBlxpRxpFJlNBdlxN1N91BFd5CUo91ZV+9lulGdzWN7f5a1RZp5d9pl1FJ1JBF5JFthxJV5dRRZBNpxRJhtNZphJZt95tJHB9txtVF9R9FN9hZldN1ZpC0U9P9dBNdZJFhdZBHHfZBZJBLFfN1hdnxVVNLR1lNpxpAx9lxFRJtZRptBFJVlZVZFlFZNdRxtpd11N19VF5xdRZFhC4Ut+3xnxZj9px1hpB995NfNd7ZHJVrJVhBzhP1Rp93JZo5dNxDBjVd5d1VNHp5RxB9BllxVxJpR5R1tZB1phZ1pxxVao8h6FBlhFZtUxJaRqRFGjnp1bX/59b5X91XNbBltZRxh999V99xJhV1BZtZnBh99VNJp1ZVxxxBlht1tdxhB51BdtV+g8BqdpN1N5VBlt5BhplL5xNxbJXpdbhaM9Wd3xRBdiBB+lZVxR9VBF9RNtRVJBB5V5VBl1hZxxZlhxNl9xBRx9RRhRvU8N+nxiJiI9URDjD3RlbhfpJTBRpRzFm8NiBrJ1B9NxxlyB1dpBp15hRFtDhRZtTpVYpNpZdxxBpU951plBZFBtJFpB889StdNRJRRAdthVGZXqDzBv2jvBlXBqKqOHb5BpR1pJppFdxhBxVtBN9ZxV9ZR1BxlZZtNVBBRFo19ZVwFJRh4ZppBcU9GVJ519RxkV5tV7pJjdnVteJrZlhhf5x7Bn1hwhcBBtNjdt9JJR9Z5JlNd9TBdRpfNtBVjBZ5tgxZlZcpVNBRt99N8Q9u9xJVu8obgGKdK4W3V3N3uzivBnJbJFDBXpRNBpBtNw1p59995p955J9ptp1J99bfmZF3tdwMOZgxYMMcggQVRVt4Ax21xZV0EY6MOG1Rh83JVRZLNqRd2Zm1hG7yMIdN/1hJlNtpZxdNdxVJ5pdFh9p1ZDRVhRV9RFpAdNRRkksAw4BZVtA8tiZJ8CGu+CqmmaSdHTJJtdrtPBlPJJpVxhJ5pBdhNp9NZdFJBq5zlBptFxpJt5xxVpT5Nd5tsIwxEZp8IAwM0NgV9U89C1potiAiewKSUovi7ZTzHfn66CGVex1Hpb1jl1FFdxdNBZZB9ZVRdlltph55p1RNBVtNZ9N11hVVhI0McwMYA0B1999qR0WkaykqEWCCyVWp19BpLlXxV6BLV95B/RrP559xRlNNBZ5sJZpNB9sBZ5x1pBFF5BpJ1RBtFdl1VoYgEEUIQJVx9tWSyiama2iGyOuqOaSHSXPeae10CN2NdrBBdlxtNBVptBd9Z1ZB9xtJFRhx19xhVNxNpZ5hZxJVJQhQE4QAgkoU9Rp95uBQiOa8Wu8S2eOCSmAm50Ycade+z61tR14hNRxRN8F5xh9ZR1tJ1Bx9xtB1VNNRhFt9ltNVtN1xZZ94ooQosk8FBt9pGi6uGmauW+CSq2yiqSaNPNJ+BNF1zNNBFd95p9V55NxxVFZJtfJx1B1NJFNR95J8l4dxd1wx1ssg1UgogcoQU0R9xxB+sOiCSKe6wCySW6iCaGLyKeC2S+60fowlIh8ZJFxBFtBDVDHpvZBBlx1lFRx9xVdhVJRB9V9lV8YcoA8oIkkgoI1BBBy+6CW66u2KW8c6AOKlB1d9lyl3ZZVVtRlR15LtEVUppsRRX59lFJ9NZg5VBNdJl9JkRBVtRpdh9Et0I8A8U4Q8IBBFJOOO6KWO+qqmCCyK6OuGnCjr+VT11d91N1JlllB9/FHHdDBX7R1dJ5pBRhFVxRRpVFVd9JFtRxxBwxcc8s08Qsc0JFBFyeCqCu+6Wo+QgW82IR9BDhBjV71BJp8pdsBl1NA5g1d8dtzw4RpNd1pVJBBFBBB51Bd1hJF91R909oA8Us4oAYA9BBVuW2O2i+y2uaCO66eyAXpfx1rB5NllNVFphHd7tp5dVDP3JTP33ZXgVdc9sBldtol8wdZNlYRMN4IxaAwcwkIAoAApBVq+KKKW+yuQ64+Wuqqe+3C3ravKpZw5UhJZBIBdchZVpbbRnDDD7fD3rXn9HLhHFz1dxltR5h119chkw8AkY0M8AYdBVmy2eWGaCK1WxZyAa1pDFbB5jVpxd591Nx5n5DXN755s5zFDIDB4U8BhUTQFFl5kxtdRlxl1hl55Ahg0okccI48AUpFdmCG6OKuGiSuCeCaGeiTHa3funEdNRRh99B/lvnDntLbvfLnDvH3rv7vHzX3bHzxV1dppNdFxAAeqw8A8eHT0oMUIt9kWUy+gi8+2cEJ77AKYcJBrJtu1BZR1wMRV0ZlXjN5xBNLPlDQs9wvVn3BjXrh7LpbFt9FJJhJUtAUoAcMAU4o40A099U6uGySiCy+Y2KKGIAokLh1RFV1hJNR5gpJnPBnLvnhfzzXvX3L/BblfxU815Rhx4tMNpAN5dUoEuyAwcgAIUkMUEI9tYiUquAG8gsU8IqSymWSGD3BFl57tRl5Qx0wtgvt5/8RBx3hPLv7hHlDJPrVvJ1ddlpt94xB5N9BpAYAQcwIsj40A89ho2Gmu8WsSoEYVgpZ6AgVJ5BB59NdRd1BdRRpAPZZlFVNJzQBsRxZX1BcJ9dFx9hYFEdpo1FxVgFlghkQcsclEEUQo9VdaeO2yOuSiS+2a+O6GauziDWKLP5hhZJ15xFljRJBNlF9/NrxDZ1LhD9LHpjlBDRd9Vht5xltgdcY8cssIAUI4kAo5RZ+o2oUWsGUoUISpBUgC1thRZLBx5JJRUQ8N14xUhFods5x5ZIFh4tYrNBZBNtpJ55tRB9tNVx0p4o9gMcI8YA4AMohF5y2GGyCWe6wCkqU4ykakRm1b1J/wDb1QcpcaZeVTaVVcfa2xz8Q19eTdcYbdQeeddVRQaUJfRbSvfqDBnKJIACBOLBIXdXurlFmsGCKEuBnAtjsvvMgtjo3hQg7RsSPcUAVGfXOeV6Tc7RwZYfbQRTYeVRSZTTdUdwZaSSfeSbVhfGMALCBHTVfVbkFvomkMBHMpCvXPqIgPblGjQdiW+dUYcKcXUWaSefXb1cb6VYMLJeTHWUdTVUefdcQfdbeWaATeQcPZeObKQKcYTfdXnqtmusrksgsviskpillnniqqum7u6/uTgWdPUZUdfaZ9Zd+AwWTcHYLVUfTRUUQWfaUQc1dboBolggKNHDLAKXbfaUfoEkEjDDLFCDUrcblNvACsNgRDsPvY8q5kstgXCVSAFBaGJaASGUbHbqFZAUrTdfRYVerVAXVjALPCCKHHCLCBecQUaVhklgmtroghukl8wgbkTQpWgKKscgfVrTDICNRdWcGdOeFZZbaYYVAQlXUFdvtYgRsZupggjhiMgrjosOMEBCFSWQQbXiLlHMGBADEjUoCKnokxhvpkvomkunqnmrpkqTiVFPWLOLWfGZbcJATAcZSTGVQWTVaQgXvMStCBEBtFhtgmrBRaeZfSlmoFPJNGPNBQkYIlRlaTqIqeImagZThctSHLdVXVbVJSFaYGTPINCOgKHuGl0D6Qnn+nkJBHOGPBAqkrktBKHWRYddWgqollvJsmqtopijtistktkrssulsrhujkILGSGfKUWJadfZGVGZTSarXRVfFaUWQKQa1YgTCABLJggm6slqvJQfaVVYmFAFNPAAJB+ToaDvSqVOqXpfBgDiZHsjirlBcmZAKXDXDVTCViRZsrnplrdkeZaWgauHZBWZADGCKNDqFBIAERfbXUWmhupnOliBhjhhoriqvFJtElGprDgVlpBnLgEWJTEcSBQTeXbdLRdITfDI8Vq10vyuutqlrItGGmNjxupmmCCKVeffccNCrENABGLtoDuBkjtlklpgtiqlphriginuqrukdqQOlhFTZMahTTgXPKGcfiQbfavHtgPuAmOMlDNEItEHMNIffffUekrrPDCBHIvkKJBloVvBjpbgcrgIlS1nKpV7NFhZibVuZnXb0UgXthksLmqgjuruouoglspmpKNvPHJFHJFDCgdWffQUPGIAPpqPEpgBjGpihhjnvrssoprlvkrFkNgrAlYgAGpBhZS8S+eSUDGIkJVnGpLemIgvilprFIDMjvP3ADCKgQQUfRVCDBUPFOrZNMbMbHSQlYjzeiGpnCrAoOPgKmpoiwgkjhroKGhvjqvtrvoruqpNvFCuPpGIrCELNLIAGFADIKACQQVbVAGqgKAEHpDthDMOqttqbljfkFjkuiJjGPqKiXEtdhZAEMmZohSgbhMOhSgKescuollIopspjiDOOJLMHEAHMALebUQRdEAMFefXIXWcTPaQcQioqnhgqvjuvDjAGolvgqphihrkkgJloPlBuGJuOlCeaUjECnOlHKACBGFJOBGHJLFBNFePAweNrJJBAEYtVAbSibwYX8GsIGvJtanlJmACkPhNKvJkPlvPvJtHVlKjrjjNtIFFusltlrstrqKJPJOEEKCAHBBFgANP/wDWQExmGkH92GmGYXKBB6BJY7IJZb6Z4LrpLIYJxLDoAKICryow14hZhCZwK21TW7RwaQohIpy4wRSiyDDpwqTx4AAD/wDVoNkx59N15vFZ5diVlMBaxgqAyBBaoqo0KEqIo2PGC2K0OMGQGOiK2++2iUR26eKU2Q+sUy4m8gg0g8sG0U4g4AAUDrBSzeU4whYZbc+JhCdhSOyCWafmMAuwGNYSwCAFR1qxC0Ae4CIs+4Kes+RagwaKWyqG+ayEaeOgEcwgw+KcSQUgAA0DXBQs8B1wNZBbhsM9VhN1b2GWCl6GKG6GCqq+aWSCS+MK26mIWQkuk68kWsYAUKNmIEe8ewI48sggEoIMaW8CcYgkEQjLVE808YhhkRxFVlBxdddtWJRgRTNpRR4VKTNuFYNtmpg8gcUwch64qcieUG8Uy0KU4o8Y+AOUwIA8kkwso8AYEoEAA/8AwXLAMYdTSXVcfWZXQaRWcgEriRqa4nOjSvhlsLKKCiAmNJPYHUfFJjKMJeoNOeMNYLPOIMAuABFBBEPPEMJGMoABCN82XHQSaSbTWVUZRYXaTQVXAVZ1dTYf9W/b7QVjVhPDtEsMEJWKXGKEpPFLYIABRWESJJJFVIOMASVGIGVKMDMNJAELAw9YGWbfXRWcaedUfGEeYVepVcraKejnBobwQXsMkNBjBnCVeVfUTAZDMLYXGZQDIHDFNGFKBPOLHHCMPJPBCOKHAAEDzydAXQVZ/wD30HmEElUml1lJ3kZkzF8ZpYQqADJLYKYIYLiwrnRARx1yRRV2B0iiTxzyhiUlDywywQDwDTzAAiASQAATP/foXUH0GXiWU1lFVG0WUmQ18J2wGpyjp2YmmqRqyB5yrmA2ml2gx0AxCTRDgABjBzQzDSQzSihhxhAQDxSjRBDwhDj8MOB33/32GAH12F0HyDzwByD77zwALwCKCJyF4CJxyJyKEEEF2F1x3xwDx0DyADyACCBxyCACDyByDxzxzzwABzyBwD//xAAC/9oADAMBAAIAAwAAABA4IG+Ii8T6RmJF1fGPuXv3fa3ITlY5ZpY45IH0o0Yf8rquv/TcYsuMF8FtH2v1tHOMXu0UWX2UBHwUzgWSH02Wl21dPd7AFbULaeNTYFf/ACzqqaGBze3+B9wZ6152hSZJal29vufqf/Xf6v8A21V6fdRY3V+z2rz75cZTXfWYWTEMQKRfWbSYYS82vPe/nzWTJ+Zt6+r8sN2k1vtvqrunxu5llylluq3mSZGzE7y6WwX6+W4WdXewV0f539xZeTURTcRddfddTXXZfdQZQ67qHa+un/MFA2Gi+J+nv5r8ok1n33wxv9Sz+p7jq21pnu4nyu3S/eksz1WQb33ejx/m+1/VfdddQdRZffacRfdcRSUR59lBY2WzF17upehvfm1sz/tgsiWvn74l43p3Dae4eqRLLe+TVRa8RWVe0bRW31Y480g688RcbUWUXSTVceQURUZQRadQzlNU17sGbws9x+g7+H1j54l87zxz1ipyguuTnpn7v3Elnqagc5/V6bWdVHdb3b5U/wBmt2tVEmHmHW1XVVXHHXWUWkVEKChVYrZUo4H73KDl7zh7msKNdpPNNstu8v8AjTX+N/xKZ9wtA9aajjFNnVKVrmrX3zbnuLoa1NVtplFpRXVV1lN9RJlJCcA1c/7qfGuLihf+jIocijCriEfE63mKUKKqyouRataFlXtgh1OhutNt5VZnfFLB9Fp/XTDhB95VF5pFp591fWGf5AJCY4thYqQ+uIXq/D+TSHrWPgPbNbk/rh3af/4nl7X6/wDO7z8uouiKmOn5pbknjJmr2wwSuy6w7mYfWTcUVZXTdWed2VcWrEIffY+h2nmp5stfuegoTOOosPJNz4I4F+2F6NfZDVvffnSqYRgUvbXEU2x9N842wze72yoyg7w+ZDIsgBBXMBopCqdtHFaZYXtV/wCcr967+6seic6/MTvhNvxq3Oo3pytIZKkvLmIrT8qPL3N7k5PL9uv1ePVoePutsX2d0IH0qEXnV3UZ1YVMDw0VxZH5GdZeKySRj7LRMiOOBNINeCMF/bkODtn6UY0kq5onEJo48ZaoZ5iLpaM14/OJpavoOb5re47byLWLTx5VaH3RDVWfsaFZM2/9fa8ktRkCwIiWAjNJgJFHGVBz6uZW5WFZniWWikKGzbFZ1Q10J1G8e8P7sMfkYKodLppgPg4q4Moan3Sg1WKo78ZbpvqqZOgMYydxfpmvgOuqvBrbg9iIhO5sb5qqzqIoQpIaYLb47qZioa7owaZIsSt7roOpZox+jobLoGJH1yzUkYo6rUe8P/XV6u+Ww7CayFxE1ZSrQdMx/S887WjmlQh7VgY2IloUWJmrNFofKP8A8wd6WYemfHlq3i3zXr7vnqqptYcdpGnezrv3LPZheG3P8LWL6cyxWalKd+SJYRjXGQc+Ke1CUCzLuVEp9qtq7dGFCbvYvyyXq9u+27j2k817jzPPSaptEEZgi+bNRxR3dPBFJeY0n7/KMLkqXUDGfWO1iFbm1uhEShNV2SeRKwGmCLCKW2EeG6Cm4+XKCuffvqzMQ5J/7DvGPp1ocpt2uziJ7dlX9xrjYFEyUQg8YVdFx+teOQ2EG4aVG1MStVpg1x29yhxWt+VJyNeVdNVSL3PlCn+mdG05JXfX7rPjVtV97uqzRXRZPhvFZR1G5Sf33+IHo3iJGsrCy90yYUeiOeWCe1IhCLyO2BSiP6WSji26uamTHeJGBfmJysIDpTj/AI250acfe+nXTrH2ZYRXRyw6dxUMQOBecZl5XlUjgObmTjrRsUPSRtUjTVibjUdKdoRVqZkVWvjtp1r0giupo4j/ANsONPa8NW2n2fna8lU9dGnvXUk9F9He2M++NULlmh2YYbofqaaYK79rliWITzIFYn17WYEXpVJElZnYEW60a3wowjUq++tfec+ulWW1cVV9/v5vPOkdXW5u/Gm0KR4qHe5IOS3xK1bUxHVjXx3WAXrX4pqYiM4oaYY4BKZqPO/65Irv6pdOPpfu+OsNvs8RU03uGc1vO4tsu8OEXEld2X/BEFWW3lVUOQe+xUgsgHi3CEUS+IOvRdCkWwVL1g7EK2BRkLXQil6VIImuXf8ADzz3TvXdZ99qb1/jTy33bdB/LZPpd2O7eO/JL0SvYNmZFo94O0XsD+md8020S+KUCeuTuq+ES2KYhrli8YG5+m57kb3Dj/XTnjJ1152iBbPH27yGRHVdrD7hl1gJAstSkfB+x+BBsNIxRKnmvHwjUXCY1uhYo98l8pNTRihoKSm6Sm2SGeLSv7fvXv3nrZJ5/wDmta44487668X8/d2+7lv0I6xGmJgNsLytn8MpMnwK+AIXDCkd3OmTObZNdFfahaGSTMWdZWHWhRXxU917764x79UFb2tt2onzu/67fzUc+S1c+MyM54F7n4bDbKUZu7lxSPbHe7r2J3n87OrZCG3M4pivF1r/AO5ZIr/L/JmVJUMc9ftPNf02n0IJuv8A5Hjb/TwfxVRbJxhYNow5wlSCjI7C6W83E0JVqNR6vAreD/uv6z/qbkjTw3EP5aFCN1IxQZEbQTrTWjWaSH9l9BC2tJjx3lNR+EHyZnpyCU7YrbYvuRt016dpo3q/OMG0cNsCQS9uYZ95sIBKxMgC43MemuWhxidisG/I3vhOfe2HL9ppF6iZ355rNx5RpRpvtZp9cQRYwFkLiWopyh9svM3L2f0/XaDGZyvH67+7/wDh6qz+r3MZWAGPKiji95Wc6/ugNdUkl6fZfS492Xc0/wBXUNsIAick8upeyMf0VaxDYlJLo/AIIahS6CQZLR41XQGpg9cifavVJNweWCGiWFBxFTONVP8AmyCKnX3xJ9LbDZnFdvB3ZHBF95Tn3r4/eNlYJmFNyN/ZR2XQbf8A0zGxps/j4g+xK+IsDQSpiqNG6C/uryggj/xwcV9+wtvpgqhyddez813iS2e241z89eTdWZRUKIknutMt0su1Px4HUtAEl9SjS9G8k0/M1A5ei3e6MOXKfHBRQfBGXvRh10y9lnhsSl/TSW4++ZcY4Uxf8w7m2kkc3+u4g+zkRpQbtVnUPtXRyKVZiPqBifC5CKOuIISFLtAGnC6MwvEfQKBA+cs6l/W+i++nv7aadZtgawbUUZdfXVZZUWfWQcPRNfdHDAkmmkfMhQL/ADWnCVoVMRMzMXB/i/kuPHcjiNTWbz7YqaaqMbveO9/8Lb4qofWm32JFN9d8HtGvf9vX4oeMWLab9oAtbeLLze3NLafi9ziO6u4RhjuBruylrhWmAHQEkREDnloUnkndefPKs9t9u5da/X10VKNdem/VloE8WtX9vGvlO5lqwp+gdD5EnlhFXjGTm0p1qM+ZcSc7rWJH8tOqApLaLR7gofJaSgUIWffXPNdfJe82kkll4FkKf208ts83tk8GU2kUuNF0lQ0oXQa16/bJtbtr6MrJaBw4QuzJlKXjkUj1jHnZWpnnAXkVXrt6rKFocttcevdxhWmImNsG1y88Ms29XouWPlspf83qMkMjevIWsRb4XZkm5XBoDRbSh8fu5bI4xZSbIaKoYKLpNbEo/I5Y6PoYdp/pf41x2lryBSGhhVV1H1lnE2GFWlnx30XHXA6xz0pVLofWwmGRHSeRSeVOTQRv10Sl5l4Gk42Y/Jq6DopmNkUVFtf/APn7XelRBRiBn0j1yfP7HHuVC+pTlDfZv5+3R3BGQdM3NJsmr2CvhHcDhEVAaqirm0D0/qBCf+Rmfy1mbyW1/wB9+1y821/z23mdfUeiRctWdDRHcSHcdCJXlTmhYsX93SmVvpWq7y/7VITJTL7YQVcDatBJxjajF4PQarXpdqVfWWaUV6VdQSeuj7k26ncYYdlb7E109yw+xUoc2waVWERefRRQtcuVbnVTYTZMdg24t010mg6EBKW1s+DJjSysqlei0Edke8qR14y1E4qmJDP+kaeZekWQK654w60w+uWgzTgQsme5bg2auciqR+Qn2zagWvjXbB2Pn2N/02g0Y35Y6PJ/JseXHVf5x9y4w76DVkIKtp9kWYdWiURDTZK/QdVBcQZRxFodYFSofd6fcXUrfq48wN4V2rcbbHfX1Q9CFhSZmnnf/wCa5f8AeS4aJKj3/Hvk86nOsokqSVFpFqhH3Tr3/wC635LnVv8AEIkL/ErWrdXNH6M3V2nStrUBNepZJv56upXQhV023HEIF4Jb5X5UtKs4rNtNsuveSv7qMPrF0Vnr15a0TKUkvWHVlG031kcuFfVcE2+1bEG9WclOa9V8nF12a2VKENHntwI/sAomgSGyFn3n2wMH/PRpBkxTxy/McK3nW0rsu6dcusOfXWv/ADVtdXF9tthplJFR9xpFaraFtRaFyHZ1HgiT21q+5u/732+pe+G+5/J1ftnlHfgPyqac66HDP2RRB5eB58jv33uLd1vT/wDZSob3Xe6QofY7fqIQwfhJ03YlVouRmd7/ABYHZ0mH08V31PHkXUlnkmld2V8vxcK767cM8+l5mSEk5tcofMmUMukENF+nWWfus3VvXnEnmW0Xv3PzFPmplvO2MGcZS8T465uf+3cYeNl+YE9120GFXvqaaDjKWKK/+lb2T0EJP98bucfkZuPKfqtKrkpVh61tH/OXt1PtmNG11miiGXrlyfcVWskFHkNUEkFNcGMulvEucEPf8vqPM5cLfvN+vi0CnEONVnNdduF/30ssd0F1V5EGpF/lXXW9EeeVtUp/n6mLfM+2JEmbWLkv9GrntJWZllE3umVHI9nutYuJcIJYqdOObiyX0j8v+1bT4OLa7Le4qI69WH2UskumuKN2N+UkJkkd1HUFkkv/AI1/ArRjPtv97iOzRX31vZLDnrHzjzTWXr2aWbfjildDhZIXv3fTOB2jmWlCoKeYDx7/ALd3b48e/S+/Z3ey3Q7b5ec5N8V3lU6XfVb5U35ycQRb9UcTRA9lz7zRi7utzu73d+ef82M6mwoluoMquvoXpW97T6feU/QQY3uY7RZrfrX1i7w9ccyV7V/gRza54X8cswyne3+cxQxbO1Bkx15n5tI7NhtQ4cYwwF4mxXqsqmVPhxn1ah71jUtyW8Qvrb6d4+T5Y6xdOtXQS6C7dzTCdqe6tSY7maWSY9Z7Tw7Q2F9+4x845Sz368/4VY13KCVS+58iysN/RnpdurRVVSb1MR5zd9gq0s8f2rm6f3X0wZ/c5wa6QU9ZsUy1dYbZWVU/cwuZCqjqyp2RZzbz1/bdV69KgWhar+AlCLj3z8m8loPWbVdubRXyVefXLQvTbeWN8ORZM/F40M6a24Y99+yTke0wd3X35zy/y/6z04cR/V152aUY+5O55l8wpO3Hso0vVjW/rwehtyzKCjhuziTBkFsYjsQHu0zyez5hQ3f/AEmPyduFtUeP9uuUM2+OO+u+9eP9v/ed/n01ftRv1NBhSHTEIdYrc7JJbqVe217mrRn8nqknnwvY9N39G9cdDulyPPmvNfwWENKU+JssPdsPVs6uvcevfOecadV/3nUt8S9YpBwB1u0aU0Znqkl4vsfZierGCz4ReybYWYWev1cmuusJNpkus1913wvHsqBfi0WGPTsu+dIDtU9TdelNsM/W1HfdncA55pzSJvq5a5suprrolZokpPIFn+EqBo5E+3vcU8UtyqV5VwGC92lBC/BguWMPM+HMtutdvP8AHbzHjDrDPH7V9tPPJbB41ZW7AtylpCJKdVKPtqWpWzOIdd/flTTdJABBglQHH9GjFh7cb1BoQH4VdNzZ95FY8/3v7LXHPTz/ALy8k8u1fea++6AqgrhlK+Piknnprefvg/gPTt3jX+5b0TpuSyZ+6U2Sg6lUpGfWM5afZd7QTRSxZTTd890/69w8711w51928z2bRf433HQPwAvI/YAPfvY/X/w433Yf4wwf43Q/Q/v34f8A+GMGJ74H52B10N2H2CN2GEH/AN/9BfD/AAvgn3//AN/+ON/6P7+F33//xAApEQEAAQQDAQEBAAIBBAMAAAABEAARIEEhMDFAUQISUIEDBEJxMjNh/9oACAECAQE/AKIIt1lMEFPe/GSwQSfM5Ffx/P8Al/YV/wBQ/kt/if8ANfx/P+SFf1a/F6/j+f8AO9vfz433FglwP9kSbr+V/lEr+/7P6tb+Qr+b8Wr/AKqP9tf9v/8Ad/Ff3/8AJ/8AcH2aZZaKcCmHFgg+wk3j/D/iLvymCXraMGTpXmNS4HwPzMEm/wD1L0PUdrRRB7W2P/HF/wBUSbl+wlok9nUHwlP3GTi4uTJ0uBOjAyYPne88aZf9AeQE6Mz/AEB1njk9hTRT36gnRV+l6n5noPH4GDt0QTog9n8glcX35HF7zx+clgnUHuJLqAzKfYPMynqcXpMjxl7WCXWLBOiCmGDcuqC28F57j4HpMtNOLmfDZr8xdQbljTL7GoPaY1Bie95T0mR52kuLBiSwUtXab8Vdq9XhY0zxdrj9rWNoDn5XIpgyPOt+RgpjcaZfY0we0xrFgpwGXte88p73FglzK4jdcftaatG8CmNQSwYmbTk0fAefKwS9JT7GpcDu4/Mj6tdD0PU+5kpzGmD2nA9lglglg6H5itM2lhgxPeglxfcWb0POJhx8bgUwfBplewOtgljUFPsag9lglg6H/UsEGDDjroWuKK4rirlcVxYgOfTElglxYJcWCXA7tfE46xfIPacD0nRB7LBhdrTV2b5HdaLd+oOy7N2l6tQFJVmtVZoG86IPZdR+wTpncal7GCn4jzqJYOhx0QTogKu1zXNXaFl1GmuKsRcjj9w1G4s0eZmJT1mZ52tq4xtFmrSTqCdGLqiimH2NMbp9jUHs6IPZcr/6O8uZLhdpWrtDF60Vx+RcriuK4rj9rj9h9pKtw1ZqzeLMns6IJYOol6nAg86bMWYTFgyY0Qey6gphjTBW41B7N2xV2t1dq7F2hw4jjrs1ZlM34CLtc1dq7V2rvTxVym3HNcftcVaEqzQVZ/Ks03vGmWNQezojeI4GDB9LmxplglglgcSVw5/afau1dtV2rtPsHlcflFcflWIuVxVyrlcftcftcfsWi1c0jVsmDtcirvRc/Oq0WqzINWzfY0wU+xqCmNFLkYkGd2r1dq/wPaU4FPU6m7V2lau0eNXq9X5q/wD+FX4eK4/K4ptdriuLVxRa5XFcftWgOfas1ZpGrRZh9xfpcDvcXF9xY0y+xqCmNQe00SZc1dq7V2r1fHj8jirnxuBgU91+jTlx+zarcVZoG8c1rApxfcX2NOJ52HW4GBT8jBLGpcD3C7XNLV2nVDDDPEcVwww/GZOd3rOrcWas2qzQN6b3Y1B7TGiD2dEEuo00w+xqWidkHTfvctYsHaRudS+1dq7Yq7Qt6uxfg4K4/KPa4/K4/K444rigriuP2m37XFaws1ZtVmt4nuJ7L8T3PSYns6IPZ0Qezogl1BTRT7GmCmDyNzqrsXnj8jj8qxFyOP2uP37mDvPY4i5hbggJ5q1aa5h9jTB7TGoPZ0QSwfK9bi5mJ7OiD3El1BLN2eau2q7nxVyOP2irVbqO5xMr/Lagb1Zq1OLrF96T2XFglg+VxKYOolglglgwvQtXavTV6vwy+1x+YcNcVquP2i1/cbRZklg+V6XNxYJYJYJcWNMvsEbnRBLldwcOPjcnqe9a4/CiWCX2uP2tNf8ANBVo1G+16d/G/KwS4uoJcX3DZTGsLxdrmr4Etui3yOT8JbO1Jhak5qzgnMaj+fSmNEEsEssP2PwMEuLBLi4rzXNXbVdoq9Xq/BAxYnTXH7XH7naj6nvM7YMaZY0yxqD2dEHs6IJYPGX3ov8AS4nUU4uV4u9Za86IJYCrMPsHjLnrMpwJet7dQU4sagpwPacD3E9nRBLBLRWmb/M9bifSTqNzojcsEuenMxPocT5DEnUHQ1fBcXuMTuv1HeTqN0xrHRiwS56YPa3GoMTqKcHufsvV2hq8LmMvuLgUxqD2XMlg+N+JzMSWCWCWNMHtMagnRB7LB9jTgQ/GdCQEpGmWNQe0xqD2dEEsGJLBB1sEtOBhpgpo6DEl1BLixpwvXNo2TqD3oSDocXqcnO70GJ0OsWDxn+vY0xspor/x/wCYPZ0Qey6gl7X6tMFOB1EsErjuNU5HuJLqCXFgxPue4l9g6GNQe1zgPM38gZcWD/RuB8TBLnqko96GDAhopwPqes9rbDBLi0YMaYPacD2dEHssHxPva9HODmxp7jJxY0Qezog9l1BL7BL7GnElxfkc2NMtEnSUS9xLrFxYP9C5FPylOB7OiD2WCWCWDE+9opzY00ww4uBie04HssHsuoJYKaKYMTFzPjYcP//EACQRAAICAgMBAQEBAQADAAAAAAEQABEgQSEwMVFAUAJhMnGB/9oACAEDAQE/AEYdZBHrHYWEegfpGYR6RgdQ8CCGC6hNMnK8RiPFsMIseYjzM/uHWcDqEXAK2v8APk/3/wCJn+fAjicTBiMRiFsMeLY/YIfwlmHWJ9AyCMCCPQcThvAeLf8AOOB9GQ/TsZmDxb/nFmH0ZDAs4n8A6T/PMPdcuD8xez/SPoYYxGZ/IWPTmf5Z9GJgxGIRxOJ6ixvqH8g+jvPaXsovZRY2jpjEfyD6GMdhjEI4nvJ8Y3iPFsMeI/xj6PwDxFjaLGI2jphHTEJvVYawP8MoYH0MI5DEDsKsQblw6Y2vjHi2GPFsIwYHqOJgwMHeTyJY6gtseIos6YxCOpQlCACUJXIlSoPFsIzQW++xLGRxMGY6D0f5BBOO/wAQR0wthjxbDC2UWEcT+/Yg6zgMR2G/s5nOFoeZ7KLCOJYRYRghZ/AfQj2WEMRiPMRiPMRgegI9A/ZuDA9NdJY6LEsQeLYRgwLCOmEWEeosI/gPveTBgYOoYgcSlX4CZcvIYhFhFHo3kfXQlDrPWDgYPFtGDxbRYR0wiwthjEdvPfv9FZjx8zkPm0TidS5YgWwx4thjEIsIsIo92x1WJY7jAtoweLaL2UcTjuUFpb/FeZyGOx2100fuPPxky5YlizLEJFSwh6UdMIsLYY8W2MCxmfxGbH6S9ovZRlCUJQlCEeMBc2OcOfk3juW7GF4HEwfhKrAjDn7gJz8nPxiX/wAMuWJYgljDZReyiwjpjxbDHi2i9lHE4VjXSOo5HtCLEoKhKCqESpz9MF8rlcwX8RuwweJc3LEJFQEVLE4tHx7KLCLGIR/EZzeVy5csS5YljoOmEWEdMI6YWwx4thF7lCECUJQgAlSv+lc/Szf2cznO1cJH4DNowZl0JUp1Kh1ib+zn4EL+I6VqxCRxLH2WIDwthjxbReyjphHTCOJYwPWMTN9A8R9GPxhHWJYR0wthUIBwq5EoShAOBKZv6+ZzgL+ImXLViEjiWJYZYRgh6jBiVQlB1hz9nP3Ezn47h1LEsQGXCfJYQ2j6GPFsMeLeZY3iMRjQlBUJSp8/Zz9RnOY6D0jML4xtGUJQVCULEpAcLmxzKP1C6nM5uc/IbpWrhPHhliWICJYwC2GEfQwthjM5BDIdV9A8xCLCPoY86Swjph0JQgAqUJUrPmc/8gvK1csSxLGY6Ca/ABjpbGZv5AePDLm5YlhWJYsosI6YRY8W0YPEfWMDAiizlSGQR6RmMR5iPFtjzAvcoYASpUpC69XPZatmDsLGdCVK7ufkuWrhMB4EsSxcsSxARS2jB4h6i/qLC2GPFvMsIqgqCrvGJg7RDltGDxbRlCUIKuUIQKlCVK5RYuc/8hJ4YuvFfIly4DxLEsXLGRxLHaOo/oGBY9RY9KOmF8Y8WwjB4tyoQqm5QdZ8/OswdRgh/UfJz/yczmyjLQlwnyXLEBEsKwtLaMHi2jgIWMRmfwGBF/587r6DiQxtfGFsSpQVCcXKhGNmsbly3csSx3nAdVQCVjz96zhYhIliWFcJ8lobR9DHi2GMDiWEWMDhQ7xiYEf0nCodShKVTYlIeTmc2FzOZzObln5CTXiuAyxLEBCBCPoYRR/GMTAxlYgRY6gj0DxbCMA4GeyjDCzpVBuUEA//AKYVzOfvRcsdBgyC2OmhD3UfsOpz9nP2C6nMM5Q8WxL/AOGX/wAMB4liWMLDPQMDAijkO0ZBb/OEdQQweLYY8W0fDB4toiUJQlCUJQY67VjsHQMTA6lSsqP18/YLnM54XPyczn5gPEWCKlibY8Q9X+vDB4h6UcSxiFtjA9pxEGQR6TgOoYjxbCoUYAKlCAcyoRK/6ZX/AEwI6fMEN8K4PJasIHiWJvEe9hghQwEGQnM57R4tjoC2GPFtFj0o+MbR0x4j6GPB0UEA+fs5+4nrCEGJ/gc/WbnPxbKJtiWIZYlwHhbCM/z4M9owQ/lEGJV5b/AM9YFhGBDEKuQ6/YIWIEcSMq/MYMCxtFhbDC3iP2mCD8YQyPQcSxiEfQxOf2F1DgPIEfznvOmFsY7DHi2j1HoHQMxBifzhGV0nX/tjxbDHi3LQhIg9R6j0DM3eZggyBxEubR7RiEWF8Y8Wwx4FvHZRY/NsZmDMYjuOJYvlHTB4R9D/AM+BbRg8C2UXso6YY/TzOYPMjBgYMCwxgWMRiPFsMDiUJtHwzWBx5nPz8I6hgYPMjPsAlc4c9pYliFhH0MeLYY8C2j49lFhHTGIzPaMDB5kXfIYW0YJswXf/ABHqIxrHaM5wLG0dMbWwx5iPFsfiGIyMHYEegFFGDzHUM2jBgfGNosZlhH8Q6zBAMBgfyD3HcsQnjEsbR0jBjpbHYYOodZgwMHmBYRYwL2EZpbReyiwiwthhbHRr+B/nx1+MF2ISJpbReyiwvjC2x4tj+AegeLYYQRYRzMAdDDZRYRHjG0fQwthjI/xP8+LfXfSDgXso+IwI6Y8Wx/KPR/nxbRghmyjAhiMDB4gi9lHxGBHTHi2IIYEUcz2nuGX/xAA1EAACAQMCBQUAAwABBAIDAAMAAQIREiAQMQMhIkFRMDJCYXETUoEEI0BiwTNDFHKRUKGx/9oACAEBAAE/As178WR2xW+LxYsGLbBixWKxRQoUKaUKFGcznU5nPVblSpUqV5lcFu8Y7vFYx74xxjtg9hbYPF4vti8e+PfHvj3x7+nQoULRRRQoUOfk5+Tmcyvq/IqXFyKkiO2K3xe+MhbYMWDFjHFYr0lvit9aFBIoUKFBIoczmcxHM5nM5iwqRKlSpUi8GLbCW2LxfbF49/X749/S7+kvQaF6i92joPjwryiyPNDibIXET7nMq0VEXFxcXIuVSuEhYMW2DFjHGODI98Vit8Vu8Vu8Y98Y4rFa0KCRQoUGijOZzOY9KlSoyuDx7498e+PfHvj39LvisV6Pf1F7tOPWiXkj0cqctJHE3jXYUIdig1Uu/j4lvZi0oUOIiMChaU0ZzOZVlRsuoKRUuGyL5FSuscVgyHfGPfFd8V3xXfGPf9xjtjHbGO2DI7LB4yxZQoUKaUKFChQoczmczuczmc9eZzOfo1KldKlSutSvoLBi9H5eovc9OLC6IpTlSLjpLYonHmf8fea1/wCUuSOHthPYi8XiyRFctKFChQtLRoijmcznoipUqVIsqVK6R74rviu+Me+MO/7jDbBkdsGR2wewtsHjLF7rHvj3x7+l3x750KFNKFChQoUKM5nMVTnjUuK5fL1F7sZEpUicGNI6/wDI50RDCWxw9ziELtXjxZ2kZXPTnpcsWLBkcGIoUKFBIoUKM5iqczmVKiZUqV0i9ypXWG3+4w2wZHZYPYjssGLCW2Lx7rHvj3x7498e+Pf0u/pLFa0KFC1FCh39RPqKldZFqaWrKXcSpHCSqRVGSQtXjxFVEIKgyMqjLayOx1SYqrTiHCrgyO2DI6VLlXSOKxWlChQSKHHdtKEVWKZQSKMozmcyKdDqOZzHWhGtEVZUuG+QnyKlSo9sZYvtj3x7498e+Pf0u+PfHv6SwYsHj8vUXuZai0s+y1+RpiuodRWXgk34IckJlxcVKnyxeL0ZFU0cdKFNJkVywZHbBkdiQ3Q4dZTrpdQuRJ8jhNtuukcY7YVI7acXrnQWyRWV1GR2wexHZYPYWy1b6yWzFtrQaKFChQaOZzOZzGVKlSpXmVKlSp3x7498e+PfHvj39dYrB4/L1I+5610kLbBiKFqLUULeZb9lH5KM6jmcyrKlRsqVLio2JldZC2wZHbBkdholwluQQy2sSPCp3JKqIKmkdsGQ9pN8y91JbCrUryHxGjgx51ZXSHtRxOLaQUpc29JbMj7VhLZi20ZBcyewmV1ltiyuHdYUJCRQoUO5QoUKFChQoUKFCmHM5nM56czmczmI5nPSulSpUrpUqVK5L0Xj39SO+k32IQe43Q/kTFgxel3xelCiLUUKFpQoNFGdRzOY6irQqVKjZF8ipIjsNkdsGR2wexD2DhcR4aiSVTsbFrkyEaIlGpTkR2Q+FXiVKU0nsyOywn7WLSWxHYnuRfWiSFo8ZspJsjsNl7UkSdD+RjmRb76PcWC3fpLfWg2RdZMlOgri5kdtKlSLrrXViyoUKFChaWlCgijOZzOelSpUbKlSunf1I+56SRFnE2FHuLBiw4lThpktiLddG22IlIU2RdVo8XixYMW2DQkURahcOg0JFCjOZzFWhzKsuKleQmXFUNkaWo5avYWywlsxbYT21ppxYVRCCjotHi6uRSiFsSqiEKurJptoUKFnPVnCdTiStRBOlWMh7n6S74TqcKNKltZDXIUaasdZEVRa0ro9WxbegsGLBiwelCiKHf1I+56PmRjQeiwZHCSFuT2IRGKPPR1qUZBUWjwk6F3IhOrHOhePYlxGQnXBi1qXCfLWox+0htrOVrRHZYMRQoUQ0Jci1FpaNCiWvyUkdRKtDqOobaFKpKtCr8Fz8FSpJlxVF0So+2PdY/LBjk26I4cbUSjV6rd6LVYrFY9yhT0bavR6LFaoYtK89GLB49/UpzLX5LZeTqOodSrLi8uLhMqV0Yt8flpQWj3wnsOuxCFCUOZadicHUgqPCWs3zEiW5Q7aPcex1ENic7SDbJpMjsiWxwm600YtsGLbVyJbFdKpjdCU1rx30UP+KqKX6SxfbTiukGf8aHuKIpsWlC37KMpzOZ1HMqz5DnQuLtI0TKlUVKi1qVEypXVYrBixWK0dRJ6LFZbiWbx7+ot8XhQaEi1FpaWlCjKSOo6jnU5lS4uGy4uKlR0qVweMtaaW01tZaPRHEhcJUQ06i2J7kVo9hbYS2YtGUJbD3JztRwa8ye5xabIj7UVkybcmcKNIHHnRpEa05k+LRkOIpacR7HUSk5v6IxtiXPsJ81j8sVuzi+DhLoWsXWTWtCgiiKIohoiiiLS0oJFChQoJFCg5TqRcu4ihRnM56UZzOZzwqXiZUqVKiKldKlRasXo9/Uju8XiyOKx75UKItRaihaWlpQaOZ1HUcx1KsuLi4kypUro8ZbC2Gqlj7MVw9hYS2xnsSjUXC0lGo+EkditOSIcPnXSfD/6if3pxISbIcO2S0nuifEcuUThQoS2HLsjh1v54/LCrbNhRuY5KInUZBc28Y4cSVCM5+BNly0bIyRetHKhcmIboPixE09VLBehJkELCmlEUKDIwKFGczmczmc/BV6VLipU7+myO7xeLI4rFb498e/pPGRQtRai0cS0o/JR+TqGmczmVfgq/BJsqXFxcSZVFUV0ntjLt+6UWst4/uMlVojBLW1CXVj8ng0RjzdSg41EqKgyGMdsLREnQSuNkNXMpyoKFNJMhEicRkeF5KU0dCb58iO2qyrJFalB8iOjFosUy5asTzoUR39Nkd8XiyODI4rfHvj3x74vGWMsZYvWhQaKItRai0aLS1+Sj8lGNPkdR1HUVfglWsSr8F30XFxdzRci5FyKleorgvc8Y99KDER2xjtihqpTShFaMXD0jsW88HC4UEsFk0KOjI4rCTKEVzG6CdRiQ+ReXFS9V0uWnf02KtWdZ1FZeCr8DZcXFxUbIsqV0ZHFb498e+PdYvF4yxljLGWMu37i91i/dHH5aURRFqKdRaW/Zb9lGJOrOo6jq8HMVSr8FfoqVIvkXFxcXEXyLi5FSpF8ipcipUT1rpHbFYrFYMjitWULRIarpQRJVLShQsOwo6d/Ujvi9KFEUQ0JIt0oNEUczmdRzFUqypUqV5lSpUqV5lSuvdYvfF4yxljLGXbGW8f3F+6OPyWPz/wAxXueMe+MdsY7YMW2lCgxIoiiKIaQkiiLUWooJFpaUKCRaWlCgkUZzOZzFU5nM5nMTKlxcVEypXVYPF49/TZDd6SlQ/kZCTe5xGRk++lSoxDFvoxYrOhRFEU5lpaWlv2U5lGczmVY61KlxcXDexUqV0ljLGXbGXb9xlvHF++OPzxXveMfdLGPf9xhtgyO2D2Ftg9hbYPYWDFisVisVlQoiiKFC0tKFCjOo6jqOZV+CpcXC39NkNJwuQuHQijibi5j5IXM5kaiJMU6ClUkQlz04z6T/AI6aWixWK3x7498KD3KItRaig0WlH5KPycx1Oo6jq8FX4G9ipcXFw3zRciqKlR+5Yv8A+RfmP/2f5ivc8Vu8YbYx2wewtsHsLCWwsJbCwewsGLbFYMWDI4rBiweLx7+myPfFoUUULaFpQ7ExUEiWxwo6TjUSoMWK3eK92PfH5LF7rF7rF4vdYvdFEWotRai3mi0t+y1+Sj8lHcdR1HUcznf/AIV+j+eC4ih8i4uE+plyLkVRUi98Y7YPYjtg9hbYS2FgxYS2FhLYWDFgxYMWDFgxYMWDFg8e/psVSsvBc/BcXFS4uRVFR6NVFHRkcGRwZHvjH3PFe7H5Y/JYvdYvdYv3Rx+Sx+Sx+f8AmK3Y9iEKcSUnHqffVbvSiKItRFblpb9lv2UfkSZ1HUdQ6iqc/BV+CrHsVKlSpJiZcVLhsuLi4uJPkVLkXFRvkJldXi9hYMWDFgxYMWDxeK9Nke+VC1FqLUOKLS0t+y1+SjEmdR1HUcxVKsqXFSLLkXFSpF83ivdj8sflj8li91i/dHH5LH5/5ive/wAxXueMd5Yw2/3BkdlhLZi2wlti8ZYvbSiKIoNFEURQtQ0ULS0oNFCj8lH5KMaZzOZzOY6iqVZUqNiZUuRcNiZXV+kt/TZHv6TxYsGRwZEoURahxQolpb9lv2UfkSdSkjqOZz8Hcu+i/wCi4uK9RcVRVFT5LF+5Y/JY/JY//Z/mK98sY+6WMe/7jD24PYjssJbMWEtsZYyxljLFiwYsHi/RoNCRRFpQoU+yj8nM5nM5lX4KlSPpsj39J4sWDI7YMjgyPfFb498fkURai1FqLeZb9lH5KPyUkUdyOo6/BWXgq/BXmi4uL0Xor1f4VRciqKi9/wDmMfdLGO8sYd/3BkPasJbMWywntjLGWMu2MsZYyFg8XixYMWDFg/SXpsj39J4sWDFtgyO2Me+K3eK3xXux+WPyx+WFD5FqLV4LUWIt6mWFn2W/ZR+RJ1Z1eTrOo6iNefLuVfgufgu+i4hLkXIuRVDfIg+lYT9rFthLbGXb9xl2/cZdsZdsZYyxli8XixYMWD9JemxNovP5YimmXFSqKldGxYMWDFtgxYMjit3it8V7sflj8sflj8/8xXueK3eMe+MNihRFqGkKKoWItLfskuRa/JSXkpLyUl5GmdR1nWdRKvI6vBWXgrLwVfgdarkVfgufgufgr9DZd9FxeXDexcXIuRciT2KoqVKkmVwli8XixYMWD9JemyJxGRhcUtORQoi1FqLRxKFv2UfklXyfyTfEpUSkdRzOY6iqV+i4uHIhxi5FyKlSOK74rfFb4r3YrfH5/wCYr3v8xW8sY/L9xj/7xh7VhLZi2wnti8X2xe6xe6xfbTkciiH2KItRai1DRRFEWlv2NFPso/JSXkpIaZzOo6jqHU5+Cr8FX4KjZcXFxcNiZUro/SXpsj3OIR3JEdtKrBkq6Xx8nHnSJwY5LVk5VOHEoiXuLUUFFFiLS37KPyJM6jqOZz8FWS4knxeQpFxciL5sqipUqL3PFe7Sq1XuxW7xj8sYd/3GG2MPasJ+14y2xl2/cXusX7o6V1e6xe6xe6xeL7YvF4vCgyhRFqLShQp9lH5KPyczmdRV+Cr8C9Nke5xfcRG+YthjIN1GxTqMu5kti2rG3J08EI0WLwnLsPkcJSGLclxlEUqqopaqSeiwuj5JzpU4UOdcFuURRFqKCRaW/ZR+Sj8iTufM49aHD4c6VRGcn2KvwXUbP5EXlyLkJ82XIuXkqtIfL9xht/uDOH7Vg9iOywltjLt+4y3j+4vdY/JarTvi/csX7li+2L3xeLxeL9demyBxUJkVr/GKNNLUhiiNchqRw+H5Hi9Wqojw6ElzFsS2PiLg1FG1HDl20nsbMjN9ytEK6Qqpk32JQoqkKyfMSoj+VynSJJ2xLuMudTgyuVcVit2cZ9SRw/aR/wDkej4c5cR8yPCjEcorfVUqyiLV4LUWoilz/SxFhb9lv2OUuzLpqlx1HUO4VaFZeCr8Ffob5F9IkeKmXIuRJ8iqK6y7fuL3WPyWPyx74/LHvj3x7498Xvi/+0XpyIyKorEqipXmVK5ctHi8WtaC5DfIj7lr/Ei0tuRGNqKE061R1SIR0jw1FnG7EpX9K2OEqLGO7xW7KV4g3RHDXOukd5abt3H8rUkorlpZ7nU4TbqsI7f7hxHSJH2kqyelzvoPYWywlszidkcONFpQki1FqLUWlNi0t+2W/ZQa5oo/Jz8nPycznU6jqOo5nO45nMq/BV+CvMr9F30XFxXmXFyKoqivMqiqKlSvPHvj3x74vf8A7RenIoQ5ooiiKIoi1FqLS37LS37KPyUl5L3WlR1OorLwVl4KvwOpV+C4uLi4qXIqicuQ+IrThLvgyO2MdXFMXDjEj3xj3xXcfD5lmnEfI4Wz0lwlJn8aVBiq2/0iksIbYcZdJw4ppFEiUqH2T4y5pEJVRM4e5UnxGkyCcmq6SkoiJYvdY/JY/LH5Y98e+NOZRFqLUURaqlqLS0oU5lCj8lGUZzOo6jqOZzqVfgq/BX6KleZUuKlS5FSqKlfTXpsiuQ1KLqj+Zdz+aI+N9F82y2bP45lnEXc/knHcjxIvWT5HDjWV2FNHnaWrwWRHwYigqFpb9lr8lH5EmdR1lZeCr8Cb8F30XFxUiy5FUVWke+Me+DRHvjY3WjIxa74cP2LB7EFy0lGr0/jiqshHucSNaCVBkufIjGmlKiJdv3F+5Y/L/Na6fLH5PR6/J4/J498e+Pf0u+PfGhRFqLUWlChb9lPso/OnUdR1HPwR9NkNHCL7H8UCyPgoq6zm60Q4cubIQqynEjtzP5Zf1OuZGNFk/SlixbYMjtikURavBai1Cii0t+yn2UfkSfk6jqOs5+CLfgr9F30XFSLRci6PkqvJUg+lYS2ZH2r8wns8XrtpLeP7j8lj8/8ANUtF7nivc8Vu8Vu8Vu8e+PfHvj3/AO5Xpsjj31nwpVqhcKb3IxS0p/2UtsWLBkdsY7YxxjjHbGOxQoi1eBpCStRaixFo1yZb9lr/ALFJf2OryTrQ6isvBWXgufgbfgr9Fxei5DfOP6XIqiqKny/zH5Yr3PFbvFbvFd8V39JY9/S749/WYvTZGRciqK6OcVuxcWD2f/cS2xYsGLbBkdsGRxjtjHbGHtWD2ZD2x/MJ+14y2xl2/cXutLV4LUWoorv8LUWItLSnMt+2W/ZR+Sj8lHV8ykvJSXk6jqFXmdR1eCsvBV+BV58ir8F30XfRUT3LkXIuRVCoVRVFdE8Vit/S7/8AZsXpsiURaiiKHGhzP/xk47nC4fEi+bLfsp9lCj8lGczmczqKy8FX4KvwVfgu+i4uLhy5lyLkVRUlixYMjtgyO2DFjHbGHtWDIe1YS2ZH2x/MJ+14z2xfbH5LH5Yr3SxW7xXf9xj3xWtCgi1Fq8FqLUJItLS0oUKPyUl5KPycxVOo6zqOZzKvwVfgr9FSpcXIuRcVKlSvpsXpsjjOFx/1IfhF1X/Z0LV4LUWoaLS37Lfso/I19nM6zqOrwOom/Bd9FxcXCki5FyKobI7Yx2wZD2rB7EfasJe1i2WE9sZ9v3GW8f3H5r8x+b/MY7yxj3/cY4xxjjHFYxxWK9Gmlq8FqLUUKFC37KfZR+ShzOo6jmL02R2xqTnc6IgqR9Xvj3xeLxYsGLYoiiLUNIS5FqLS37KfYk6blJeTq8nUO4jWiKy8Fz/qXfRKXJilyRei5eS5eSUlRiaKrWe2Mvj+4v3Rx+f+Yr3SxjvL9xj3/cY7Yw2xjtjHbGOKxWKxWK9Zi9NkdsXC4jwor1u+PfF4vGQsJbC2WEthbYPYjssHsyOywlsLbWiJ7MtXgsj4LEWIlFFpb9lr8lH5GpVXPudR1HWdQ61XIq/6l30XfTLivX/hci5F0fJVCaqyqwj8v3GG2McY7YrBkcVgxYxxXpL1mL02JlSpX1O+PfHvi8XjLGWwtsJbHbCWzFssJbMW2E9njxPbjLt+4veOPyWPyelEURRCS5lsfBbEsiWIjFFpb9st+yn2RXLco/JSXkpLydXkjdQ6jq8HV4OrwKtNir/qXP8AqV+hv6E+Rci9FyG0JouRVFUNiwYsGLBixWKxXosXpsSRai1FiLS0tLfst+yj8lH5KS8lJeTqOo6isvBV+Cr8F30VLi4uRcivMqiqK6Pti8ZYy2xltjLZi2wn7WLCW2PE2xlvH9xfvjj8/wDMV7pYrv8AuMNsY7YMjssGLbBi2wYkURai1eBpFqLEWotGi37KPyUfkox18iqdR1HUOoqlX4Ln4LvouEy4uRciomVKldF6LF6bI4rFel3woU5lqLY+CxFiLS0t+2WvyUfko/JSXk6yb4iVeRCUpKtCVSsvBc/6l/0y/wCiUuRci5FyKok+RXCXtYsJbYz2xn2/cXvH9xp1xx+f+Yr3SxjjD24Mj7Vg9iO2EtmLbCWwsJbCwYsGLBiwYsHhQoULUWotRQoWlpT7KaczqOodRemyO2KxWKx7498e/ocX2nC9iJaz4qg0mt9JaURRFESiji9MeQpPwRnw5OlWW/bJLluVX9yj/sUl5OobdN0XP6Ky8FZf1Kv+pJ8ti76Zf+l6LkSkuX6XR8l0fJVFR+6OPyWK97/MY7z/AHGO3+4x9uD2FssJbMW2EthYS2Fg8ZbCweLFgxYMWDFisHixemxYMWDFit8e+PyxlJuaoOsWuYuJV00lNR3I8SMny04r4i9qP+rLcjscTiRjuRm38So4KWk2sZbHGfYjHpR/FHTieyRwoXuX0fwNPplrP/j90yXAtjW4/wCMqRf7rLt+68Z9i3iojK6STRRErUtir8EHw5FFVE1KvIrL7JcSaKfZTr37FJeSkvJ1nUK65nV4Ky8FX4KvwRe/LuX/AEXovRciD6S6PkuXkqipH2rCWzFssJ+14y2xlti8ZYvGWLFgxYMWKwYsGL02RaKoqV0WKxWK3x74cVtI4cacycG2KPVpxV1VewuJFTVI6xj30tc/+RzNiV16prx6M4MZp/WE9j3cRfuE9h8PiQk5QOFxL196y7fpx3ySOEqQWs/j/wDtquqej90dOMRttFCKdT5r81n1T0+f+Yr3Sxj3/cY7FF4LV4LV4GkKKoWItRaNci37LX5LX5KPySTpuUl5OvydR1EqnV4Ky8FZf1KvwSLvouL0XIckXIuRVFR4vF4vF4sWDF6LF6bEkWrwWotRahRLfst+y1+Sj8iT8lJeTqOo6jqKy8FX4Ln4K/RXmXl6LkXIr1FUVRU5HfBpMcFfGixcVcsGSTg9qkeNX44TVUSv4Urkqn/5ap7XU4MnONXpP/2OcV3OD/8ALL81nJKnPuSlfPlhLeP7pxXSJwlyrp3WjVSasat0/wDsX5pJ0Rw49VdF73+Yx3l+4w2/3GPtWE/a/wAFssJ7Yyxlti8XpQoi1DSLUWItRaNFv2W/ZR+Sj8jT8lGdR1HUOpzKvwVfgr9DZUuRci5FUVKoqiuTFg/UYsVisVit9aFEUVS1eC1FkSxFqqWlv2WvyUfko67lJeTr+jrOsd1SsvBc/wCpf9Mu+hteCsUXxL4+SqJNHJj4XCfY5LbSfb9JcNMjFR1lwVU/hVVg946SjVFvFjsy7j+D5R1sq+ej9/8Ag5S7RJPiy+JBUitI+6WMPl+4w2wexD2x/MJ+1i2wntjLGXb9xfbF9sXi8Xi8XjQoURai1FChQoU+yhQo/JzOo5+oxbYrBixWK3xXux+WPfF7rF76UKIohpFqLIliLEOOxZ9stf8AYtl5KS/sNOq5nWdf0dfhFZ/1G5XR5F0v6l3/AIsv+mXr7K9aLkXx8l0fJcvImr3+FUctY+6eMe/7jD2rCWzI+1YT9rxljLt+4vti91jLdYvti8Xi8Xi8Xi8X6jFisGLFYrfFb4/LH5Y916T3WL7Yv3Rx+Sx+f+a0RavBarmWx8FkSyJahQ5vmW/bKP8AsUl/YpLyRu89zrOv6OrwVl4I1tXIuf8AUu/8WXfTJS5MUuRej+SPkuRKSKryVRXSXb9xlvH9xe6xe6xe6xe+L3xe+L3xeLxeLxfqMTRXBYrFYrFb498flj8li91j3WL90cX7o4/NfmPz/wAxXuljHeX7jDbBkfasJ+14URJItXgtXgtiWocVy/S1Fn2yz7Zb9sa5oo/7FJeSkvJ1eR3VR1HX4Kz8FZeCrrsXP+rL/wDxZd9MuHLmi9F8fJdHyXIqqlUV17498Xv6TxYvRfqSFFFiLEWotFEt+y37LX5KPyJS8nUdR1nUKpWXgufgufgu+hMvRei5FyE1UuXkqiui3x+WPzxfuWPdY/JY/NfmPz/zBkfe/wAxj7pYw+X7jw/bhLZkfasJ+14y/wDeL3ji/csXuse+Py1oiiKKpavBai1FqKKpaW/bLX/ZlH5OdTq8nUdf0dRzqVl4Ky8FX4KvwV+i76Li5FyG0XIuRVFRvF4vf1GLbWc5V5EZPuXYrFYpqtNaFEULY+CyPgsiWItVSwt+y37KPyUddykvJ1HUdRzuKy8Fz/qXP+pd9F3UuReXoviXouVyLl5KrX5rH5/5j8/8xj75f5jHeX7gyCdP9x4fsWE/axbLCW2Mu37i/csfksfksflj8sflj8se+Pf1KLwURaiiLUWlpb9lCj8lJeTqOfqyI7aTlQhHuSdJHDXclKhDi3OlNLl5ET4yiRlcql8a0qV0SkpasX/yLSpXRYrfFb4/LH5CaelCiKcz/lfFIjBURbEsiWq4sX2WfbLftlr/ALFru37FJeSk/J1/R1/R1XFZeCsv6lz/AKl30J9UuRf9M/kRfEvj5IyXP9Lo+SqOWkPb/uDIe1YT9rxnt/uMt4/uPzWPz/zH5Y/L/Mflj3x+WPfHv/2jx7+oxaShXScKkdjiEUkiWxCHOotj+O6fMUaInFXVHyRw5Vw4qm10s4PDle6sSONzoiTtjamcKtnMnxbZUOtdTY+JOXtOG6xOPxZR5R3ODxJ/yUkT9rODdbz1W7x4t3Yjxax+zaNWcPiN7nBcnOb7HyOF7pEq3x0boiM4yfIj/wBX/kV7Ik6KpDjRk6afP/MU+p/mKl1tYx3ljHv+lF4LY+CyPgsj4IRVpYiz7ZZ/5Mcf/JiW3UUl/YpP+x1Eq0Z10Kz8IrL+pWX9STbpy7lfov8Apl/0y5DkqxL4l0fJciqK9a/Mfn/mPyx+WK9zx+WPfHvj3x7+u/8AsZCaoVRXRi2GqlNHEjsW89JRbY1yIKiwZwlu9JwuIcJRKEeHXits4sW48hQpAgqROPGVVJI4EHc5S3JNJHB2f7rHd40q2cPhKBJVTFHiPpocKNEPf/CPTGpF156cWsp29iVLqQOBC2P6f8j2r9JU+P8A/SPtX4cTiWzp3oQrbzwXvlq+I68iNe4l1Sxj8v3Hh7f69E09nrD2rCXtZPdfSIy1n7cZfH9xfujpRFF4LV4KK7/CyPgsiWIsRb1Fv2Wvyyj8lsv7FHXc6j+Sd9vI6/orIVbnyLpf1Ln/AFLvpl30xS5vkXovRei5eRNVLl5Korot8Vu8e+Pf13/2MiyJZEsRYi0tLfstfktfkafkSZ1nWdY7hXeCsvBc/wCpd9Dl9EZU7H8iP5Il8S5EZLmVXkqtU+bHFPcSS21XfFe54063+FOVBKmnE4dxCCi/80nC9UHwklFLzz0lwruOn4WMfdPX2S5Mm2kcN1q8YP3fuk7qciMqn8jc6HD9v+nG50iJ2conAu51YyPtWHE9kvwjGUnT/wDrJRo1Qm+k5+RVtf6huhXV7rH5xwc1Wh8/81uVaV0XueK9zJOiOHHnUckt3ot2TFqt3hRC3ZReC1eC1FqLUWlv2y37ZT7KfZR+SkvJ1HV9HUdRWXgq/Bc/BV+C76Li5FyKouRciqKlf+2eLFgxYMWK1ochJFq8FkfBZHwWoilzLEWfbLPso/Io/ZSXkpPydf0df0K6rOvwVl4Ky8Fz/qVd2xd9F/0y9FyFLqZfHyXx8l0fJVCfXIrhH3T1sdRqpw+V37pURQ4ez/dZuytNzhQ5VZwvYiULhwoRVES9r/CHsj+YT9r0fOQ41QuGSVP/AOokqovsXMjfOVdH7o4/NfmktmQmoL7IJylczqnxWTgkvs+JG1O5vmcNzfEq3yoL3SxW7J83QSocWrkRXSh8W2TVpfc9tFOL2ZJqKqzh8aMm8V3xWKwbF6fSURai1FqLUWlpb9lpR+SkvJ1eTqF6j0k6Fx/IPiEXyweLJToR4jHKhHiVGfyJIXET0Y+KQdVo+LFOgmS2OCmqk5qCqzh8ZT1j3xW7xupPFbsoi2Pgsj4LI+BRVWWRP419ln2y37ZGPOXMtl/YpLyUn/Y6vJG7n+n/AFPo6/B1/wBSsv6kHJL29y5/1ZLi2rZkW5OrTL1TYhJKEfw/lh5HKD7l8fJJq1/hFq1fhy14nteM/j/+xKSiqlHN1IxotH744/P/ADX+ONdF7mNV0/jh4EubI7yxW7Kc66UddElzqRXMkqxZwuFYf8jsRi5SFgsJyoiHGk5UpitZ8WV1Ij4bpVs4PtJzfYhxJN01WPEnQhWU66S41rP53/UjKvpL1HpxCKcizkWUIYMWEtjmyMSUakCexHmdNCOxP2lUjgNnElbEhw3J82JKK0R/yauUUWLh0fcWkcf5qSdFUi6qo5pEZV7DdEKSlxNL4+dJ8aEP3wcLiXSfKhPiWkJOW6OLO2PLc4U5t0Z5x4fz/wD21boql1VVENn+4w9unEivc+xGlOQ9iHtj+aT5RZwuqCbRNRUWWrwfxw8H8cSxE48iz7ZZ/wCTLX/Ytl/YadY8+5xFJySryRGM14P+p9HX9HVfErP+pdL+pe/6su/8WV6/8L0XoviXRFJXS5l0fJVax3ljHv8AuPYS1aRGPOuMcJxuRweHbitVw4p1JpsiqRLZ1IQpqsZxqyMadtP4astSiQXP0l6jKnLBYPFiWjI7k9iEGR4fnV8OJCNCcaohGXckuRHYRxYN80R4cpPmLSLw4ntOFBVdTtyOHw6c3uR9zY+aOFFVZPm6HL+SMYk21HkcLh0V73Zw1WcpEY3TbenEjdJEYKJP3Sfaotlhw/l+4RVEKSjEXEq9tJQrJPxpFqi0fNEI2qhx5UjREOJKNE9tOL7aEFSKOKqwYtsJ7CnF7YS90P0S54f/AGL8xXvf5hxOUSHcovBbHwWR8FkRRXMsX2WfbLP/ACZa/wCwk/JSX9ik/wCx1/R1CuOvwi6XgufgufgToti/6Z/Ivs/kRciMkXR8ly8lV5KkNsGLHtivRfpr1GWosRYi0tLfstfko/JR+TmczqOo6jmdXgq/BX6Lvo4k68jh8kXovRei5EZIuXkqiukcGQ5vBkUueMCfDu7kIKGjId/0s51wls0vJFUisOHs/wBeql1NacKDrdIfPiIlyRCtOZN0RwoXJNiE66f8hS3XgtbSqLYkqtE3bEk68KunEZCLcq6cV9SX2St+P/8ASFbeZPiUdEdVKsrJygc1JE3zoc1NEuUWcNddcV7pYPmyPf8AS5FU9Y4pouj5HOK76x204zpE4SpBaR2Lo1p3wRRFq8FsfBahJFiLEW/bLfsUfstl/YpL+xSXk6jqOv6Kz8FZeCr8FX4Lvpl/0y9FyKlyLl5KryVXpr13xIruVqNl8ROur9GciMdVKsqFBoSRavBavBai1Cii1Fv2W/bJp7VOHCi3KPyUl5KS8nUK46zq8FZeCr8EW/Bd9F30XlxGRei5eS5eSqI0KrCG3+6pU0h7UUGq6cRVizh1tj+YcT2Ma21lGpP2/wCrRUu6hPTiwup+i4dB1tdDhQ7sm25WltJR/wBEudSdUyEe7JvlQ4e+MfdLViR5/R07HCjSusNsa/yzoiatl07j4VI9XNlbIIblvdQ4XFk5pdjiTlHZFZSfNHYlxlskQ9qLOu7TiTcVyITujUjtjHbS6PnRtCJTSFxE3oxYrKiKLwWotRai1Fhb9lv2U+yj/sUl5OrydQvUekti1ykRVETblKgoURDfV4vVm71m6I4S7lUXIW2l8dJyojhcW7BkcVjHbGO2lEURREUqFsfBYixFqFHkW/bLf/Jlr/sUl/YinRcyk/J1/R1DuoxXU2Ky/qXS/qXPwTfS+Rd9F6L0XxJtNL9RcvJWH0VRUb5xx+a/MLUL3v8AMY7y/cbLv/6WUEtY7Y8KCjE/jV9xTmSjVUH/AMfyzhQSHsQRxK2Sof8AHhSMmyUqIhWnMY3KbEqRI7YMROuwuGh7E/8A/Z1LhLyQ4feRGPVXR7CwnK1HC4tzpQfJDlJ7ELu5J0FxCMqkpUHORCdw5pEZV0en8iqJjkkJ1GL1Hqo00tVRiVNXi9Z7arY4hFUicT3EVKp2G3KdCwWxxOp0OHBJEpWqpHicR7rkcLYZHbBkdsGR2xjtjH24Mj7VgyOywltjLbGXb9KItj4LY+C2PgcVVFkSxFn2y37ZTr37Fr/sUl/YpLydXkV1XzOv6OvwVl4Ky8Cb58u5c/DLvouLkRkqF0S6PkuXkqQ2WDI7LCWxHbBqiLVpJVQuFOu52FgxFNXFC0ppIWDuZw4UJLkQ0m6sUvESKJSpIcnLkQjai25kVaiunEenCqNXMiqIYvUZUqte+LxerVT+J+S2mko6PhxfYtS0tWjLRbHGexW7kiKoifKJwG3gyO2DI7LBkdsY+1YS2ZH2rCWzFssJbPGX/vF7x/cX7o4//Z/mK3eMe/7jHbSiKLwWoUVQtiWItRQS+yj/ALFH/YpLyO46jqOo6vA6lX4Ln/Vl30XDkKSLkXR8lUNrF4sWFEIdzEqEuZahJaOEX2LFooOu52EtJwuI8HyyiSFu9GL1JFiLEWItKFv2Ufko/JSXkozqOo6jqHUrLwVfgufgu+hy+i4vRei5DZciqKo5DE+RKKkR4cY6S5o4cVFYMjthLYj7Vg9iHtWD2I+1YS9rI7LCftYsJ7Yy7fuL90cfmvzFe9/mK3eMf/eMfasGLBiwlsLCW2MtaIovA0i1FqLEWjRb9lv2Ufko/I6nUdZ1HPRV8FfochFSpciqK6LGo22RWjF6nfHv6TxeLKFq8Fq8FqHFFqLUWIs+2OP2KP2WvyUl/YpLyNS8iuodf0dZ1eB3eBOVNi5/1Ln/AFZd9McuT5EZckXoviXx8k5K1kZKi5ly8lUVJvol+C2WHE9jx4nt/wBWMt4f/tj8o4/P/MV7pYx7/uMNsHsyHtWD2YtsJbCwltjLGWLxeLyWVEURRFChai0tKFpaUZzHUXqd8e/pPF4vF4sWEthYS2FhLZi2wklRlEWx8FsfBZHwShGjLEWIs+2W/bJR5blH5LZf2KS/sdfkndRfp1/R/wBTwis/6lZf1HdWPLuVfgu/8WXfTL19l/Ui+JfHyXx8lUVV/wDhVYL3Sxh3/cYe1YS2ZH2rCWzFhLbGW2MsZYvF4vF4sXrMXqd8e/rvF4vF4y2xntjLZ4y9rxn7XjPbGXx/cX7oY/NfmlCi8FEJK9/hZHwWR8FkS1Ciqv8ASz7ZZ9stf9ij8kU6blJ+Tr8o6/o6yN1qKy8Fz/qXfTHLk+QpUWzP5EfyRL4+STVC5eSqK6S2xntjLGWLxeLxYsGLBiwYsGL1HuVRXXv6/fF4vF4yxntjPbGfteM9sZ7f6sZbx/cX74f7j/8AZ/mMffL/ADGHz/cYe3B7EfasJbPGWxReC2Pgsj4LUSiqFpZ9stf9mWy/sNPyUl5Os6/o6x3FX4Kv+pc/6l30xvYuL0XxLkNoqiq1e6xeL9JiwYsGL1HuWotRSI0It+yj8lH5KPyUZ1HWdR1HMq/BV+Cv0VK89ipUuRchsuRcvJciqG0VweLxljPbGW2M9sZ9v3F+6H7j81j83+Yx908Yd/3GHtWEtmLZYcT2PRi0ltjL/wB4y7fuL7YvdYUH2KIsiWItQ4lv2W/bLX5KPyUfkpLydR1FZeBtlX4K/RcXDkXF6Ll5KobFg8WL1O+jI+4mzh+v3yoURai1FqLUWosRQcS37LX5KPyUfkafk6vJdKtDqOodxWXgrLwVfgr9Df0XfRcXFyJSRei+PkqvJVE3t+lcJdv3F+6OPz/zFe54x3l+4w2/3BkPYsJ+1i2wntjPt+rF9v3GXb9FhLti91i916Xf0npRFEUQ0ihai1FpTTn5KS8nV5Ofq99JbFrZa0R5H8onXXvj3wcyUnVEdtW0itaYvSpetGVWD0lL/rIrQTqPF4y7fulEUXgtXgkly/S1FqLIlqHHYt+y37Zc76VKPyUdy5lJeTq+jq+jr+jqv/wrLwVl4KvwXPwKXN8i/wCmXovRchNc/wBLo+S6PkqipF8sGR9qwn7XjIWEu37i+2L3WL3WL3xfuXpd8Xi/SeL9Xvoyg0UKOpw1QZdaR4rlxOW2PfVmwuc9K9QpVOPV0Rw1SmPfRjQjizdUkONI1Ie04j7FzieNIRrxKnKXISoS7fuDkkS4sROuEu37i94/uly1rzjo9iCrPT5acX2kPatPm/zFbyxj3/SiKLwUXgtQkqbFkSxFiHHl3FH7Lf8AyZSX9ikvI06HUdR1FZeCVfBV/wBS76Zf9M/ljWg2uX6XRLo+Sq8lR7rF7rF7rHvj3x7498WLB4vF4vf1XuXLyVWq3w/5M/if8eOK3wkjhrq0cKijQkuZ3WPdaUGtP4+upNVI7E4Nn8e1TwS9rI9MWcNd9JqrR1uVEQi0uej93M4qqcNUgkTk76ay3j+4v3ROI+lkCFeZxX2ItqSIO6NSexHpi2K58yM/+pT604j5lbY6XUlL/BOpxeJbyW5w5y2lpHef7jDv+6N0L9FKkUKVdG0hvpYsJat0FNMl2/cN+OPdaURxKKDODzjzGlVFqLEW/bLftlOZR+SkvJ1+TqOdTqKvwVfgq/BX6K/RcXIuRVVLkVRXTvj39J+v39V7lqHGJWJahR5lv2WvyTqluRhKcqkYUOrydZ1nUcyr8FX4Ln4JS+iPIv8AouL0XIqqlyLo+S5FyKqpVFdXusXutGqiVFo90OLUqoVdLV4Jqtv7paq1pq/dHF+6JxHzoR4KRQnC5H8PNEFSIxrpoUmcOP8A1fxaPqZzpSpH2nEjc2R2RP3kq7i2RD5fuMNtOI3XkdNBbCZBE3SJw02P2vGX/vSpxN0JVlyOM+cUKdqIuqqTfI4cbayZ/N1ouWn/ACJclHycNUifJDdFUXET2K+RcWEnRM+WPfHvj3KItRai1FqqWItLfsp9lOe5R+TqOZzOfgq/BX6LvouKlyLkXIqV9Lv6vfTiy50IJaLfXi8+Rw4UXpMWtNO5QoiXISRRVLUWIsRai3mWlv2W/Za/I1z3KPyUl5KS8nX9HVVHUdfgrPwVl4Oddir8Fz/qy76L/pjl1R5F6L4l8S5FVUVKlyKoqf8A2f5jH3y0cGRj50jvLSiJR204ez/XjD2jYo1qKCQ9iMVatGqlKEtsZ9v0k6EF3KVEkjiQuaHw+QlRElWRxfaVXgim5oboqlrm6lsodxc2vw/5DdEl3OFCkSVeJKi2FwaOtTjy5pIj7Vh8se+PfHvj39ShRFChai1FpaUKfZR+Sj8lH5F6vfTiN3EbhVP5IpkWmMe4pl1CMq4LfHuXIrpKVCM+YpV0n7hbHdYXNzod1pXXusfkse6x+a1oUR8v8LV4LV4LI+CyPgUVd/hYixFv2y37ZbzfMtf9ikvJ1+Tr8kbur9Ov6Ov6OvwisvBG6mxc/wCpd9F/0y76IOkUTkKUUi+PklKNGKSoi5eSq8lSftxn2/RK7nh8lg1UsjcJE/aKdOxSUhe5fg0mPZnDkojm5bEIV4vPtj8se+K3ePfHv/3K9XvpxIyTqQ4tOVDdEoO84WwxqVRJ1KEeTwjjU3eiJ7nKvIgtEqsnK2JGcriEq6SfIi6ClWS04jakQTpzG6IcpSkR4jrTR1lLT5LGToxTb0vjWldPmvzH5/4VLl51Xvf5hLlF/hwG3cOSVPvCPy/cYe3BkdlhLZlEWx8FkfBZHwSii1FqLftlv/kziQbpzFF+Skv7HX5Os6qorPwVfguf9S76Zdz2L0XxLoly8lev/Cq0tj4OSILqZJ0VTgTc6117498Vu8V3xWPf/tF6rfMuRVFnDORI4WFSNa4Rxe4oCjpKKZGCTFokTVUWupBU0mKiI8+IPYirpacX2iq2QjpX/qafLGVO5w9LXKTenyxe7/Dlu2RjdJE50dB1pUhux8V15IXEVdOM+g/4+0/0ca004l3YhKsSHf8ATiSpyRBuMlXvo2kQn0oWr2Ytlo3Q/k5k/a9HITrpLt+4vdaSk1PX5aNrX5f5rRFEUVS1eC2Jai1FvMlw7u4uHbsykvJ1eTqqdR1lZeCsvBzK/Rd9FxehMuRciqKiZXBY98e/rMXq/Ioi1FiHFCgWlv2WvyUZQozrOs6hVKsq/Bc/A5PwKtxd9F5eXF3MvRci5FyKqpVFUcikRUu0SS15XaSjUjw0tPljKNWRjTSPJvT5/wCY/Jj4SIxoWKtSXMS9xZIUOpacTnJI2jJLycPbScndaRVEQ2/0nBuVULh8+elrlKTZb0RWEtmLbTiFrqS9hOTqU5HD76S+P7i/chiV3EG6IjxavmfL/BtIk6y0Yn1MlNRK8q6r3PFbvFPm/QnyTOE9xFCiLUURyLUWItKCKPydXk6jqOZWXgq/BV+Cv0VLi5FyLkVKlc2L1e+tUMjvisVhVEe+K3ORyKIohLqLUWrwWIsQoqpYixFpaU5lv2WvyUfko/JR3bnWdZ1HUdVxWXgul/UrL+pc/wCom726F/0y/wCi9F6IzV0i9FyLl5Koi+qRVHLSnMh3/dbVXTh+3BkdlhL2vVqoie3+lqY9iKppLeP7j8kT2OGu5xVyLWR3/wAJqqIrnpxW6kFzJc2LY4ffRbvWcqClLuRfWyTItp6XOUiPfFa8VnBi1zEOVBOukpUK1YtKjmiPrU0oi1FpQoWlpb9soL1e+nFrTkcFcjicS04Tb3wYio5n8jP5edNLpMQyhWlT+Yjxaypoz+RuToc40OxxONOtIkeN2ZHclJR3P5fojKui3x74r3Yr3PFe54x909KIovBReBJcy2Pgsj4LEWojHkW/bLX/AGLZf2KPyRTtXMpLyUn5Ov6HdTsK+h1eCsvBV/1JN02K/Rd9F/0y5EpbfpfEuiXR8lV5G1WJVYfJatVQkfJktiCpo4pi3Y4IoLRbvXiblzZw49yaZGOi4aTqLFatXzwjpxEcKJ2E22Pkhqvc4Uu3oydERaeK9F+t30mm0cOLiiceZDBiGPkxz8I4ceddNno/fpSqZt2OEurTi1tdDgcOlWx9UzsOEqigR3ZH/qzr27FqSOHu3ot3i5KNRcWTekp0HKRw3WuK9z0rrelKQnXCO8v3GT5NfZD2rCElbhfFkPasJ+yX4LZYT2wm6ITuS/dKFEURTmi1FiLIlqLeZb9stf8AYo/Jz8irVnUdZWXgq/AnzfIu+i9fZei5Ca5lyJTRGhyI98Y4x1XD510oJavmRVFooJE41RazhwxWD2L7KkJSlLBei/WrzL0XxLkOhHBkdLUWLwJUEWrSgyPckkcPfWPctWtBbsjBRJpvkKNFpHd4z9xHh6fxu+pP2nC74x3Zx/8A42RlSFDg9zizcaEI1ukzh7YQ+X7jDqq/sfTGpw53fR/J1U0gr1UlJ1glpMmrdjgXdyc+dqIrTieyWM9h3Te5Kb87EKuCbOI+dBL2/pOdpGVy0boXu4Tqfyoi9P5VcKSelR7M4S5yJSUdxTi9nqu+KKIcOYoov/6tpGKLC37ZR+Sj8iT8lJeTqOo6hNl0vBc/Bd9FwmXIvRcjkJlSujFisJzUS1zZCFurF6L9buUKItQ4oUSwtLfso/IkykvJ1HUcxXFZFZFZeBt+BTOJxa8kcN8ti76LhMvLi9FyIvmy5Fy8lyKoi+b0rrRNsSpq1Uju8Y9ySqqH8ErvoUUlQaqJbiWEO/7hP2nB2GqosnUhw6DFCVORFVktJqrRZyf4cNdKHBVrrxPa8Zdv0cJdj+PydhKrH7okldIjG3TiDdWjhrkSiiKOJ7RKPOpw1zJSd9BIcuqhHeRxOpkElIn2OxHv+4x0fER/KrWcKNXUg1jHbWUqIjK5C2xWlCg0JFqLUWlBIk6aUfk5iqdR1E5tFHIhy7FfouLi4TLkVRXJ+t8sGRwYsGRwY+G2Q4VN8EihQoUEtyhai1FqFFFqLEWIsFEtLfst+yn2JPnzKPyUl5OrydRGvM6jrKy8FZeBXcyr8Fz8F30XEJcv9L0XouiXROHRRLl5LkVQ5IvS4a80OEu+vE9kvwWyw4vt/wBxl8f3RqulB+6JTnq0Wq7/AAQ9GqoXD6mJFqrXS3mQ+X6cSLrok3pH/wB4x2JvkUjSrH1S5EumBCLqnjHbV9THSMRcX6ITu1YtajkiqK6sTOIQ21Rcq00pVlBYNFChRFEUKFqLS0p63fFYMjgxYMjisY98Y98Y98Y98Y98Y9/3GO2Mfai1Fq8Fq8HE4fdEOFyP40WfZb9slHpfMt+yj8lJf2KS8k06f6dXk6zr+isvA61XIq/Bc/Bd9F30xvrRcXoviXLyVV/+Fy8lUV0XuljHv+6WrWO2MdiUao/jZCNDiIh7Vg9iO2kiMTjCVThxpq9haM6mTI+05o37ik4kthRZaJEpu6glyK0LeddJSURSUlixYP8A7PvjHBiwZHBkcGRxj3xjjHv+4xxj3xht/uMPbgyHtWEvaxbLCe2M+37i91j81+YUKdTKItXgtRYiMebLS37Lfso/JFPyUl5Os6zq8Ea02KvwXfTLvouIvkXouXkqhtUI0pg9hYSpQSVMGLCUEJDjU/jP4yWwimn8fOo+SFVvSU7RpzIxtQsHi/8As+5cXl6LkRaKrVkcGRwZHBkcGRxjtgyP/vGOMNsY7YMh7VgyOywn7XjPb/cZ7x/cX7o4/L/MV7njH5fuMNsGR2xjsUKItQ0hRRYi0tGhL7KPyUl5OryOtDqKyKy8FX4HIu+i4uRchtCaKldJ7CwevEhJss4hG4bpEhO7V4vHv63fSckiNWNCiWItRaWiRb9lGUfk5iqdR1HUOoqlWVZV+Cr8EWy76Li4uIsuRci5DkiDVCqKrWO2MdsYbYw9uDI+1YS2YtlhP2vGfb9xlvH9x+ax+f8AmK90sY9/3GHtwZHbBkdsHsLbCWwsJYsWtBooi1FqLUNFChR+Sj8lDmdR1HPSVWqEKx7F30XDZUqi5FUVRVFUV07+t30kuoROpw9sVisGLCckiO2DI7FChaUEi1FqLSgkWlpaWkYlv2WvyWvyUfkSdCkvJ1eTqHcRuodRWQ507Dk6bCfLYu+i/wCi8lLkxSRci5FyOI+kqvJXWfx/cX7o4/NfmK97xjvLGHf9xh7VgxbYS2YtsJbCweLxli8Xi8XhTWhQoUKFpaWr1++k9xbFxHBi1qMg66fyylOkSfFtobojhPnIjPR8QvRU2QnUnxFEi6oZHZYMW2lUN0KiaSK10uTGR2xW2r5yHsLZa8d8qHw/zXkUQ3DYtRYixFiHHmi0t+y37KfZTqRz8nV5Oo6jnf8A4dRWXgufgufgrzZd9Fxci4g/d+lyLkVRUg+WDIe1YPYW2EtsZbCweMsXi8Xi8Xi/S7+t30tQy0jitZHE4rl0o4MaRJbCf8deRa5OrOxHCjqJE9iNqObFsfEcrCEXOVRKgxbYMjtpHlJtkpXEujhnDrM4fuOM+xS3mRncmR2wewttJPkQRxHSDIcSVVpKajuOV0iXtJcRR5FeVWTk5s/6igc7o/uMvdHSUqIhJvT+TrFPD5f5it3jHv8AulCiKIjFULUWlo19ijy3KS8nV5OodaHUVl4KvwVfgk+RcXFyLkSkqFUVRXR4vF4v0mLB4vHv/wBn3KvwXPwX/RciLKoqiqGxa8fiUVDg8P5MWlqKaR2wZFaWIoMrSJz4kiMaLRi2WEiOy0lw6kIKJxI3Khw4KMCMScKjhIgqRI7LCWwttJiRx9jhcPkm9OKqxOFwq8yXJFK8f/SftIOKlzOJO44cP+tH6xfujpOrmRVDi1pyOHHq5+BrrwXvekuJ4OG5t89FKTboI4kqIg5byIzUtiP/ALxjtg9hbYS21jKujkmuRNtSWsthLkURai1Fo0UKFH5KPySnzFU6jqOel1FsRnUuKjZciqK5yF//AIHvoyM7p0GRRQtRaigkUHEfBbmWiRQo/JR+R1FU5nM6htibKvwXfRcOROd3IhSKLkXIlJUFJFyKoqMT5YSI7asewtlhPbVrTiKqFpLYiuRL/wBlFWukuFUlC2Jwd6/+WPyWPy/wUeeEfdIexGK0ZD3v90mqjTocKNCG2D2I7LWUqElJ8yD7E3QddzhusTiNsjstKHFlzoRiymnEnacPiOXJjKpFy1eHFlRCjcxLBnEfScLbSmlChaUKFCW4q6M5nM5nPSrKsqVKlxcXFdKldV63fTiS6TgR51HJEMGR0ckhSTGKSwYsGLbCezOFHu9KFBlC1FEJ1kNFpai1Fo4lpaWlCSKFH5KPycyVTqOo6jmSqKTZWXgq/BX6JN8uXcr9FxccR9JwWuX6y5FUVKnz/wAxXvf5jHeWlq0kqnDjv+6sSoQ2wezI7LRlGxuVCEe5xE2K5iVEfLSD30t6iexw689G6y5i94+w4ScicKRqQdYrR4cTqmJUprxJHDbqM4j5kFy1erdBNPStBc2baPGqxktzg1xoUKFBet3OK2PnscNUiKNWQwZKTINk1zIpUOJ7SHLmzhyk5asjpKTrRCqNlTmXchSbJHYQ5rTikdhtIbTXJkY0JugpLCW2tRTiyROVKEa6yx48qQ/TgVoyqer7aXf9WmnIsipIoWotRajl/Lb9FqLEWFol1Mp9lH5KPydRe1No6jqKzKvwQrz/AEufgu+i76LiLpEvRci5DaoJqiKokyJPbGSWlNZdtXwiMKD7aT58iKotHusKU4h3WtKsUEhiVZYPV7kNxkmRRPc4exxJUZ/I6C4smQm60ZKVEdTkXUR/M6n8sk1pxZMhVDmkhcdXU/7XuOKYoRXYoNEMGWFCdDhupJC4KIxpqxDF7hyWqTkSIbE9iBN0Rw415sbtQqvfTnxJHtklpxIycvo9rWEteLXYhGhIkiL1lhejiO6RFURZ1V0/kbex40hzm3o4yfEi+x8kOSRGalo+Kk2jhdXFlL60/mi3TWPulhKVFU4Subf3jHbBkdlpQoiS5FEWos5lo4lpT7LX5KPyOp1HUdRVj7FX4LvouLkOXNFyKoqtHvhKKZbR626SIxpg99bOYlQZadi0oWu4fDqiMKIURoSOJFsjChbV6Uq+YkTdWcOCl/2vOp1FZF0vA2RZei5FyHITKoaTFRDZHbB6SFAUESFpTSWklVEU0W1GqDKSWxDhutXpPYjDnV4S1a0mOMmRjTWXb91lzQyEepHGbpRHDTt5j2OGPdD/AJe5w4NE5URw07eZxZNbbkIO2rOCnXSdDhxo2cV1pFD4aivsWy0jvP8AdXPwSrLkQ6YMjdXCGxOVCvLScyE9lhLZ6t0IzUtiW2FUPtpVPXvo3R6tcyhQoWlC0tKfZR+R1qdR1HMqzuVLi4qV5lSqKr1qYy4FWQ4dua9bvgyJQoUGhIoUKDQkWlpaUKDgyjOo5nM5lWVY2XFxcXIky5FyLkVRIuRciqKokyqK6yxe6wZ3Q41ek69iEaHyRTno1XT5/wCElVUEqaUI+6RKLuqhQ86x+X7r/GW0KdP+i21Zw/aiadTqZJO3kW0i2yCq64T214rryIRocXYgu+jnViQ+xI2IVuJy7Iinciur4r7ClV498e+PfWmlesoUO5QoUKFNeZzOZzOZzKsq/BUqVLipUqVRUrovW+WtT+SJDY4nFUSHFroyODFpOVEcKvMYsHi9KFCg0UKFCg0UKItRahotRai1Fo0NFv2UKPyNOqKPydRzOZzqjqOZVlWVdxc/Bd9F30XCfX/hci5FyLkRarIqiq1h3/cYe3B7EPYsJ+1i2wntrKFRHE7EdiT5C3EPdE4lrIop1HdDWk9hUI+/H5aNjbIuqG+ZeJ1174SZH3aMW5X0KrScrUQmpejTShQoUF63yJOiIczisSIPpGrpEVQlK2ArpC4jjyEpPmcPTiTtRDi1Ljic2RVIkuI6kZ6ORehlaIU09Xix8RJimnpPi86IU/OlUXaPtjI4vH90T/jyrHX5LH5Y/LFe56UKFqIx3LUWotRQjEtKfZR+TmQradR1HUOtGKtEVfgq/Bd9EnyLvouLkXIm+RciqK6S7aPmKK0e6x760LCnVj30kJCOL7i3pIba98JHcW2jXLSD5jLivMciruG+RJNnCboTVYnC5TedGxbE5UIOuDF63yJKolRE41FE+JGNGURxYOdBRtiR4XOo9iKppx9yEVGAinWSHyIc9OIyMWx7HElzoR5C0eMh9Uyy0c2RR3K2xqRbkyMdHuseLNQocaalKqITZwp+dPksflj8sV7njHvjDbBkPasJbMW2EttKFChJf/8AShQoUGtiwsKFGOtTmdR1FWc6lX4Lvou+i4rzLkXIqip3x7lBa98JIS54WMjGjGqotoUGJEt9Ioexw/frdz1bIjKVIKmDF61OZRlJeTqOYiv0XfRd9DkRfIuLkOSJOshJiSRy0kkJaSjVkaEiXDqWMW2ndY8Z7EY9zqkKA+GKHNElVEOGo6vdY8a6c6EuFSaQ+C40ZGwR8sfl/mK97xW7xh3/AHBkPasJbMj7VhP2vGWMu37i91j3x749yhQtLSnMtKFDmc6nM5lWVZ3KlxUqV5lUVK6d8KHclGooaTbZCOjEtXESGUxYvWXuwZHBiRQoNEYcyhQtKDRaULS0dTmczmVZXmVLi4uJ85ITVCpcVK9SKouRci5Dl1IuRVFUVOVyKROQ+HFiVDicZQ4iTxXvf5ivc8Y/LHh7f7gyHtWEtmR2WE/a8Z9v3GW6x7rH5Y/LRa98e+PfHvrQoU5lChQoUKa89OZzOZTSrOelSpUuLipUqVKjF6y92DI4MWDFg8Xj3xa5lChQoU5lChQoU6kUKFpQpzKFpaWnF/4989yn2c/Jz8nMSdWczqKyKyI1qysvBV+C5+C4i9/0u+i4uRciElQuRcvJVDfIg+lYS2YtsJ7Yz7fuMt44/LH5/wCY/LRa98e7x7498e//AG1ChQoUKFBoXrfLBkcGLbBiwl6XfHvj8sflj8sV7njHd4x74x/9600iuRaWotQ0qCiqFpaWktin2Ufk5nUSrQ5nM5lWPsXPwXFxcN80XFyKrT5Y/LH5PRa98e+K3fpLd/8AesXrfIrqyGEiHtwkLB498flj3x+WPyxXuxXueMd5Yw7/ALjDbB7EfasJ7MWywn7cZf8AvF7rChTmihai0tKcy0tLfso/JTmczmcyrOdzK/RX6Li4rzKoqtU+eK3fpd/S7+ksVgxet8ji9MRcXieDhriv3cijI1OorI6h1K0RHiXdi76LiTFIuRVFRlcO+Pyx+WPyxXvxXuxj7njD5fuMO/7jD24S2I+1YT9rFhPbGXb9xe8cfn/mPyxW7x74ooUKFBItKac9OZzKlSpUqVK6V9Hv6SxWD2F6y95/yXSJ/wAeUavWODOI6QZ/xva9WihQoUGihQ4nJHC5xKHM5nM5nc5lWVZVleoqVKlTuVLi4uE+Zci5FyLkJ9TLkVRXSO7x4ff9xht/uDOH7FhLZkdlhxPa8Z7L9xlvH9xfuWPz/wAx+TxW7xW7xXfFYrFa01oUKFNKFGcznpzOZVlXpUqVKiKlSpURUqVGL1vkf8lNpHBgowRxJWoWx/LGG5DiKQ5UVSPGr2K1OO+k4KpBDkkqs/nrsuRLjLkRlVDaRHjqTotG0KUX30476Tg8oInxFEhxFLD5YrfFblChQoU5lChQoJc2ULS0tIx3LSj8nPycyKZSXk6jmOpGtDqKyKsbdCLpFci76LiXEUU2fyKcOQpKhci5Fy8k3yKorrPt+4veOL96x+f+Yr3PFbvFd8Y98VisV6Xf/saFCgihaWjXIXrL3azhcMXAukmy3qOIqopOVIpURGNqocSNUhckj/k1aUV3P47eHReBcO2FXucH2H/IudIo4PAsGS/k4nGp2KWySWk1N8TmRhRHETlxSELcO+spUQpzZE/kVaYLfFbjkluXKhXRbvW5DZF763N8daR2wZHbCWxHZa/8r/4zgxt4JQoURQkihai0tGti0o/JR+TmOtTmcyfFcWlTcqz5FX4LvouLivUXIuRVFRe54x3eMe+McY4rFf8AcrFYS2F620i5FyKjI4MW2lq0mqi5IcRa2dddFDrqMcerFe7VnD5tnc4cKtvBb48Ti2sdz6pEKyX0jhfI403FEZ9DbODVqpxZutqOFBx5nHfI4KpHTjSmtjhKVanMnOyCOHWlWcWXOgpuI9iHtWEthbLX/kO6aiT6eH+EZ8ST5HF4jUPs4Tbgq6S7YyfNYv3LXjc+JFafLVypxFHTvpQoUEihaUKMRzOo5lWKdGXfRcVKkWXFyFNMqLFYrStdV66xWDFhLYXrfJlC1FCqrQUShR+TmOoqnM5lWNlSpcXFSpVFUVO+K31lG4jG1HcSpgt8GfxX8Wr2HFNULaRojhxpE40aoV/EdCMbVQt66vTj9jh+3SaqKNNLVJISOJGV4uHyPiR9qwnsLbX+N/yORxVWFCMJxVCfD5EFSK0l2/cHLmcb4kW1GonVHFl2RFOPc4kn/LGmnElJbCulOotifE/6lBVJSta+ynOo9i6cZM4c1NYLGOlVoyPOWMShQS6ygkUKFHoqnMqypURxJ0RwpFSomVwWKxWKwYsJbC9Ze56OcpTojZHD5zkyIpRbpXSqGLYqtWtaaUKFChQpzKFChQW5zOZzHUVTmcyrKsRVlSv0VEVKlw2QoqlxVFUTSZDbB7EdsHsLZYT2xni91hYq1GupHE8EVSKJxd1UdTLP+qvzTiPkcONFpCLfHbejV09eK3/JacGFiwj3w4r5HBq4jOd1dJ7HC2HN1KlxeR0k+RAewq6PiJCddEx8Qi6rSU6EZJqo+pnJIU4t0KaUKFMOZzOZzOZzOZXSpUqV0qVKlRMqV0kL1lvpT/qqhLY4aomP2s4HDp1eSb5M4P8AJLiEjjSfJIScI1bODO6ujx7498Vvit8VgxC0oMiihQoNCRQoUGhI5nPyUZKtBVOo6jqJVoVZV+C76LiT2Li5FyLkV5oqV1+aKYfP/NGq6pdTxnwrnctzh398Id8OJBtnDXSMgtJEFyLdLWSRD2rSUXUiqHEZw9tOJzZwlQY2VRwqpkmWo+kRjTSf0cNu3mLFauVCMqlyQpp6VRyFitKFCgkUKFBoXrL3PSmq5oSoSVThq1E9h7leJxWcOFi0ePfHvit8Y7vGPfBiwkQwkR2wewtlhLbGWL3WlChQpzRQoUKFOZQoUfk5nOpzKsqyrE3VlX4LvouLhMqi5FUVI4w2wZHbBojtpTSSI7aSjJPkRrpbU/jFGhOLZ1HDjpLhupYJCxWjZSpSguY40kqEp0N0cPuLBy6mOfIi6olxedBcV3KuiwkL1vkVfgu+i8ciDKoqtOJ7WcGCoUWsse+PfGO+DI98Y98GRwZDCRHbCWwtsJ7Yy7Yv3Rx+WPyxW7xju8YlChQoRRTBHM5lWSrQjUqVKjYmXFSqHsJ4rBkdaDFitGig9hJiiWIaEhYcVOtSEGxFiTqPnJaLCQvWju9aDRFFqLEWkoiiUfko/JzJVOZVlWXPwV5lS4uLkXKpci5FUVI74x74MjgyODI7YSI7LCWwtsJYy7Y/JY/PFe54r3PGPfGG2MdsVgxYMS0oUGihTTmdQjmVKjYmVKlRsWK9ZiWjjUUKZMXrR3eDIbYMWDx76UKFCnMoUKFokUKFBoitzmczmOoqnM5nMdSNSrKsqxsi+Rd9FxcSZF8kVWssZ4y3WPzWPzxXueMd5Yx74w2wZHbGO2EthYPbF7CwkLBi1oUKFChTXmcznpzKsqVKlS4qVKlSqKoqN4sXrR3eDIbYSFtg8e+PfFb4MjgyODI7YMWxQoUGihQtLSSKFChQaKHM5nMdao5lWVZc/BXqRcXFxcV6ypVFUVFu8Y7yxhtjHbBiwYsJCweL2Fg9hYrBixWK9CmiKFChQoUKFBi9ZbvBkNsJbEdlhLHusVvit8GR74MjtgyO2EiO2EsZYvtj8lj8ihQoUEuooUKFBLcoUKM5kanM5nM5kdirKlRkdipUqMWDFhIWEhYPFiwYsHsLFYrFeixYS9dbs6isisvBV+CLLi9FyJSVBSVCqKlSWPdYrfFb4MjgyO2DI7YSI7LCWMsXusfksV78V7njHvjHFYMWDEUKaMWD0qVKknyEypXR4v0nsLFYMWDI4MWDFhIXrR3eDIbaUKDRQtLUWjRQozmczuczqKsqxVqVLi4uEy5FUVKkcGR2wZHbCQtsJYvF+5Y/JYr34x3ljHv+4rGO2DFhLYWDxeMthYPFi0qV0qVKlRi9JYrBiwYsH68N3gyG2EhYPHvj3xWlCmiyrqyOxUqVGLCeL7Yv3LH54r3PGPfGGMNsY7YPF4vF4vF4sXrrFYrBiwYsJej/AP/EACkQAAIBAwQCAwEBAQEBAQEAAAABERAgMSFRYXFBoTCBsZHB8EDh8dH/2gAIAQEAAT8hv8nFuLMFjMtua7u4KzD4pZ52MydIIGhNSBEjSlrRPc5KEqDoSxtjaq8aFq0SSNjBNns2M8+7GfpbhY7TMYrMRWeNuVrK14Wu0/nCzSKQJIgRIjSgidzsNAlQyvgXy5Z6kDkIbjKBtBNme3B3cwWsbWNjPLuxmbsZm7GLNuS3JSFsQGgiWRIkRnUZIjcQICPXsiuYmp7JexL2Je1DNLHmvCjQJJqxWZBYVnjbl2tyVrtPNvn5xZtWVqsdpisG+NmQggJRMQ8wKpogQOJpHEIqY8gTtDOaIEB7g4GohKJJMDBfEmNjPLuxnlZgPLsMzdjMnwh2xmXa3y7sZjYzEghENhoaBE7k9xkCgIpTsJwS7A2O6JJJG1RJNXha3af/AJAWbVl8J2GMVmPjsz9UaA8hIJkCWhgNp9w+tCEiFpDJJbiMiCBHY1UQtETuT3GmIyB0OAltR0tSVUwqCFEjY2ljPOzA/Wx3GVrOwzPtY7tm7sdozBZg7ViLFmAkQQQhNUQIkKGtaO52JbkpyS3I3ECA07A1NZsGprJrsS9iWS9iXJLsk62CSdSBAkkT1sdrAwqxixY8PjdczSysDJjKerFig4xCWo0T0qhu2Y0o+FYkiZpEisK3sIEIRHYaCSCJ2Z2G7jIIodBtkiVV6RGvdmbP0Js/a39rGfpbj2WM/W1gswZhszGLqzEVnh38QePznn5iCNSCBAgQpIkTvQtRLc5CBFB0JexI2JxSkIjaE0TV/GZntwoMw3lujH0fl231Umfhkb1cr4MQjKNSlHgckSLBKJVGMbWBBBAiFUECJGjMSJ7nIQE1HUnaS2JEFMSI2j2CBAkkydiSaN6DStmDt2Q9KzFmCtFZmu7XbP8A93nm3ytXwnRBBDYaCXah3O5EfHZqSJAlUwFKFIoVS4hGTshECifUxVc7U6wrgaEa0wJyH+ROASYmko0GhD+FYGH2SRFoJ1GYfdjPPuxnmQiGxEaC4wRHKzeTkJSdjSOY5SNwwgpFHoayhcBLapaIiRID6hYJrh9259vif5+Ks7Vb8/EWVqytWbH8QwFY/wA/GxUy4CPJ2UETIsB0OYQ8jZakJAgRolQJNCaZru6tEJNVA5QsEDKiaiklmJgswoaULTOoiL+Bmic5BOjBmH3Yx5+xJIyDP0o8CCxtEJT/AEGGjapmt2bo9SrmkUyaCCEQFQRO53JbjN/JFGdpOwZyq8SJCJEhUkSSSSLMkkmiytWZJJNFaVhiytWbVmx2nawFY/jOokSPzTAxVgQREdjgpOyG5SA9SOpwk9rJiQI0tBECUSYGKzEw2YmEQ0SdQtJmFElpcjQCIx3T9mM8hJRJyPBUZ4jNyPYmiHD1oFafLG+AJQj1j17PWMHVGhMmZjw4gaIWtP0tzXZCx1oRAyFQiJEgQhGzZHc7nehNLJbktyHuQ9xJzkjcRuO1EOSKCDYlJInYS9hlPW0E9SJGomSSiRsYmrFaVj+OzLR8iQhEMEwVrzsbE9aTSRvRWCKIIbHFQakSG53J7jNxQIij1GhgdE0J7UxEwaUgPoOo0H0kk0bS3yGCg17yQBKMCYampwQapNA9Y17uJEhU9I9K2YVkgPqkc4sErkxpiu7YoFJzoqT5hDTN2SF0TuEhqXI/hRJqSMeaTdVl25KPUVFGBWnyM6ljdoieR5GJECiyyAqJLo0pBoJENiJChCBA7ktxGclHQejApJbHSoRgQJ+S6hLEvTYlQsFa87HwQg9RoY8iTpJowlpI3wJZNWpkrXgVjGFmJgpoQthECYVJuRuHR0MktzmI3jGkgnacJLYek0IhaRGkiCSQUMEokfV0P/ImvrGLqzL9Co0dP6Rqnkbr8O7Vg8jSBCwPAQzZhRLYUvIsjEtRi8j1cjdBakIzVjySipEuqy7c6FTZMhknIyaFBg8sZLVjOhLQgEMWjHpQIlI+BOCPyYhikWfgSYD2YXCSIbHARIj4zGCRYaUqJjUGHwmonSR4Dm9RNCNtB5QqY6DZQWZrux6Dd6hkAhhKNkJOIFLbwVJGHkaAkmjGizeur0I0dUqYMXBAjscQnYTChA7Gg9RkLWi5CAkyYlA6iaWtB6ykTfdCohPY6kiS5RCknYZAbXsSiSaOK0Kn+awPCkZvIZzyQ54Ehf6Wsn3YzzsZk7GZEWJF4r5FTLII1Ym4aMeLTqbdRIJhCd0YGFtfOYpsPxUKN6o4xIWCWzOhEaMWiJAlEB1IlGlfAhDQwpg7sWQz/YgSxzkQRGA2I6zAWFRmhGjLGnQTSQwm5Ges/MnAkJiW5qTNB8iR1DKRLNimDF0WYswVhZlIJKXRYDEBhRIsURLcP/jGK7Vv7GghzzhEEnqjiGkiB3JDkJeRB6E7TgE3J8CE1ErIDaaEc0I0okBsmhKIEDMQIEjZ5kkkknl3azsZkTTSmTo3geRddTEM8DliOjwK0vnszXVSCGwjYVscRE7nYWvJznMQHRzsJ7HQY1EQIESIkDjyJCUaE0pWYVg2QNZMS0RGg5DIxIxRoCMRIMwEwqJpmMHVuwVSGcWUQiFZF1GLKIcmibYmaEQ2IL+kOZk0rGhJVhi05kjORDXh+ilIbsNCS1/xY6J0xBJSBYUIhbENhpsKtTiOA4hCQilAhZndneo7k9yYgYCcktzkI3EBJ0IqFJL2Jew4kHipiRoYiQExpBrFUfAMVtfE7xVrCxmTsYqoGiNUQOI4DgGsogd2die4yckCOFE7SbwcBLY6iQRAlgiQJQ+glizIYhKakIJLUzGCsziwqNSJRQhi09WJJKFQ6lyNBu0BkKSuYdOhVoxlPCZmkf2eYZh6Ueu5ok3i3/FjYeES56jtQQCElDQrqYWpw+QiLLEKWRhSJrhOsWI6Igh5PFkInJqQKvlas0bJDQbogaSFqyAkjgIECbcI3Ce5yEBqh1JDgG+DoQIkdxa/HwvlYtYWMzdjtHceNryvhQhCOxwUo7sg8mGazQIolFE7aqQnoY4ogQEtCLmIEob2t/JTiItiFRCBg0JQRJHrBBbXqVjFgY+QJEh5WTWJo+7HbQeRUlTsfWi0sKCu48C8EDkwHRCF5KVtKMmXBKnMTRRnlbuSNWeIUxko81IO04QkTPNcLRiIID2BL42Bkuq1ha8rH8c8bGPC3/fxMRWYCsxpCIbENhUHEcFKAvQ7Oo3KTO1SdlEzaXmkluOjOo9VS5KESH8kCSSRvTb+9EMBLZ27MROQlWFSCQiJIElCFq9SKcdQxIZImnKjtsRMRCUUY2Opskm0OxHpIFE2lJkkkhuTeTEExgnPyMBGgPoTtqI3Y6kRIRFQIggQJGG1djM1qt+Nrtsl3dVmNxWY/dvh38W9u391kEaeiEcRxHARf0I7ncSHOZyQOpJTtH16Ukx1Z1ookSI0gSkIUojWBMCNCI0gVBKJRAbUDCSSRj6Eokkkex1RRLTsNQpCUaYShDoOoaUMJmxpjXIPP42ZLighscBxCSEQEliSe4zcbrqRVdDUOAnsdaVkIkSJAgYECUTdYLc12KzH7t8O7fDtW/p8Ufqtfq+I9NW5d7GftYzBSCCEMxEIhsQEUYFQcBxHEQnoRsHEcFBqJIEN2dx8zQOzOx3J7jdzmI3kbyKjJnYN7BmxPY6UOhiRHqxtQMSTUqwIKxZ/HhUxZG3BogasC7EkSFGAxqtraQmmMzsYlqQtiBxD2hKIHZnZmjyJR1OUinwjQE9joyJA1OxEiQJRqjskmvh3b+luVt7Vv6LfDq30PmGdrgzBZkMVmYxWZjGzBmKsZhY7bsIdUUYkiGxwUmglZDc7Hcbbi3CKE7B8TkHVnQgNPxsDypoBAIScGPQUeo2GhDMCJEzVClkwHt1RiaBwmRmbsZk7H8beFYIbCaOziOChEwkt6xRvMFE7CaCdOjydWdWRIC/tOc5iG5AcZJr7L4n0rfdtyduxmOzMYrMxirMhgrMhirMxirMGYBibEMx+FwMLHbwMbStKsCy+PAztKYh4HISCAwqKwIsCCBtupWlHnY7YzJavint2+xbku7ffrBCERzeEcJwU4FDdnZUbQ6+CN6pnaTtE9SBMPzCWDoQIWUuSlARPclVdtkMNmYwdWZTBWYswsyGKsyGNmBhSKYGNmBjZgY2YWsTGzG4Vi+NgNNwq0dSIzChzEBkJ6CQheRRTha8u7Wdh3D8LfG12nsW+xb7rtf72/k7VYOiVtoyf/wAbCKrhHAcRwCf6I7s7iVEiaMjcfSjRNHBNJcA7baCaME9jqyexIogZsdGdaNMSECBAlCWDkIEBUhEENySUNoJqCSaPqMbMGY2YGNmFvExtqzwFZl8eBnRBBCGlJDY4DjrKEHdk6A943RG6noPiNsOAnsdGPSZKECIwgJRJNPwt8erfC12nt2/qt/0t8fiJ+W33Lc3azC5LFZkFizESrBgJIhEEIVBJRg4jiI7CIFtHERoJSEpAhuzuaGRac1A5CBkSsfQG2HAS2J7GhQjQgaBpECUSOKx5FZk+PC6eVcWLWNrCkECCZIbHEcNAqWR5O4lRJU5FTO0kpfgS3HYRIEYdCQ5jkIE2366ujXvt/J2q19dW/jtzsmfs7M3R6VuwXw2P2KzH7FZj9ipNMBYsxMLMTC0rMBWMRBC2IbCIEHEQpZnRI3kF6idtFLY6mpv48bp5VxYtY2YWmHxAzJarMI0/g4jhOKs9lbuQY31JBh55PEdGR5ocpHWOY5DmIDaxNn4rGe/bh2WYWj0j1LMosWYfduK7FZ+wrPDsVIpgKzAwsxFizEVFTG1haxuFY8iqzN/HiPa83Vi1hZiYrMbRn6WO2My9W/jb/i3w6t8eqwtiGxC/k4KbjOESfQQ3Z2E99LO5IL6E7UN7URgjPJOwfBiP6dLnFvC5aivoJVWjpMFn7fHArP0t/S3w7FZj9ixZh9ixZiK0rMDCi+AKx5FZk/jxHD0HDKY96hQMjmI7kCUIGRJJIw2hJNeKzExtefdjtDMtuXq1fi3/ABYz/NjFla/Lb7tjP2sZ+rIbHEcBCehDHYR3Z3mq1NCxWour8kbkfQ+hOxEv2JsgE7ciufJJ7hkrQ7DqyHJAmfYgcxyHIJ/oW8R3IbkBGnYkJRKJPDsWLaHZWLMPjFWPNvn8eJ5kCEBM3AkywQnBxVBpyIO5KiQoaA0SIJa1ZLBkWCY6EdmLSZqQ1Q5CI0GUfZKJozPtYzJYzNbk6sZ+NjFaeisZ71udgzF9rHbvSMXVmW3x7tz72v8A1tUIrBmII2EbDgFU9hbRwnGcAvStQ3Z2GHUnVLyGgEqXQ60k6wE9huwuBEiQopIkCR8CZNfNj+TjSbAuiteTxTaTRDE9NTUiEknya82swq0GIhLge0bQoFoNRhHYd2S3UmoI4n1J2kkkN6CBqhGgpRCkiQ5iO5AgP/AmzJ0NpCZh1y9WM/Hbl2sZ+ix27xaPQFhWfsv/ABbwn8KDFfPGiyKmdrNCJJp4CtIghEBFsJNjioQGe5KqKJ5pnZ8yXEx7DaDEkoGNTNE8ESklRAwsBkJSClnIg7ixRuCXQO9ECKwNCFmQygQtDEoo3BjmM8+xujaQnaJDFZJ5CCCEIpHEcRxkRMshuzssiIx5EJAo11rNFqUCeQ2dYWfKcI5iUNqEqrMna4lXN0elZnFZ+D5wb9AyKvG8MV4yo8ipgtyViMlbkhWlYxWebH8nEwY2Ux0YNWkSxo2KD1E5KEIWTuhFwkMTUL1YppBmsU8DQlKIYyZNBNSSplFkT1HdA57Y0uoqw7RDIIEdCjfhJPI+d6s1j6dhk63J3eciQG0KKRQUmpJa7kbIUNShqkcCOEcZwDVBhuzuJbhB84n0bJG9H1NAjWFRoc9xrtHgaKlPRUvnOQQFuENyUSNqU2eza/W7fDqkV/zb/ikVeNrwp5FR4WvC3BbkhUVGKx5FZ5sfycGRymT5oc403ICBAkkb1rHyHWkWBqSEQK+prB5oNSKeZGqwPS8i4BaxVEEN1I26OjRuYJCTye5PKxjf1uuqb3FGxsG4HlnIxpeEQ5QJDNbf5ixnirM3ayWYuicsgvQsI8XpuZuj1qJqnpDSKe4hENhEY8o4TjpwGsiG7oOwnuzyVLBQUbyPKfQ+h9afyJ2k7agS8fBPcdx1Z0dOFhUTzHMQ3IDQyrH+bGO08LcAqKjyKx5FZ5sePk4DaG0Og4jiHtGtijykN2dg9WSVEaAmaSRN4tA0hOoTbHSdWdSJBiU5DmInGorIvT4QaSWDy7qp1NYR+ljP3sZn2MpOCfliUKCLuexSYSSYLzQy4JdKs/d2OZ0H8CxEaPQS1GiEkVvA0aEi4IdUaDg8tXSEkaVJ4dqxjW79Tt/xb/i3zuwQtiFsQtiHgcRwnGcRsKUeSG7O7OQnvScpykSyRuR9DodTioOYT3HVj2KYESI5BLvShROomrJ1sePk4imxnyhbqlshaEc45h4A5AarXWsQmQ6NCsIIo4IUYGk4pmzKENUIIQ3Z2UDBB0ZG9D4IXnDHGYnuOrEo1E69nIcxyEodf1Yz97FPJ+1jE40GplJ1Z+iyLcgWPNGr2IMW8ED6DGgLSnT06CC3CFPLESUK0M/Xb4iSRULPq1epVKitFQkmizvTSRWln4jCIIIWw0k4jgoQIkeTsJ0SHOSNx9Dohv5JiYPumQHER+AkYUY4DIHDnHBryNTBoQ82+FrtwYsWsVYMLRpCvZxHGOM4xqeyG7OwnuoNdHkRvR9SdiGygvkT3Et51ZEhPtnOTDjDTcUUqrfyPXWN/IWFYuldfC4mP1u4Y9SCnpK8sWPjqVwWVqytWVqtPIrPNvkVnmx4+TiYWMVT0kZGFpDarza82sVsrMDFfCHaMw+7cH3Yz9nbGJDY4kcIhYHtA4zsI7sj1ngTQtRyqaNoSfVH1OFVt5Lkie4jsztoKb9hyHOjkIbjaiJRJNFn1SK/lsdaxU92xmVDrn2sYsukVydqyt8/OeRWef8AwOJBJyHMQ3G0NQx6JokbPNvm15Vr8ditlZgYKzAxWYXDD4dmOx2r1D0ljR0iwrP3Vv4LIQi/uQtjhHGcJtBxnaQ5IbsWtq6KW85tKqEPCI3o+pq4ZJ2onbq08uY5pLcdhHY1+1LnOek8nr5OY5iG5KES+yaTTN25KzRZ+AqeRWebVmzD5OIiaOI4DiGohoKQTJkIZB2ExOc0nKRvIMTsB8wc2RLcdWRICIa+TkOQ5iA2hJNW0MLMTDZgYbWNjMdjtGB6dnrs9ZZ6gsWforc+9rx8O3z6tf1W+7bnafpYzz7IIRDYhsKn4OGi4B7NFDkjuzszuxT82SqN4g+h9DoTsE5vSi5hPcdRPL0ZCtQIyJdyO5AknUlWLNmHycTH7sdAm/VjXqrNvm15VIIIQ0pWhDY4RxnCJI8ncT3nNGBLxZ2R9SSaGBBCW46sjsxo0KJHMchzCoG0kk0ZhswPTszdHq2eoepZlt/H8QR/ZavQt9q3K28u7cbGYWMxte3D7sdp3PNYRDYhTQcJwESJ3Z2E91Am3I3n1PqPTr8nG2Y1TEERlGLNvm14WvDu3/d1WYmFi6CqBxHGjgIT0EtDuO7Owb7yMigRtH1NB4IdLxQ8onvPBPApaXixyzLwQlqchKJI/wBqs0/Lb7rt8bX5rVtH7LGfs/hWY7HbMwsZjYzGx2meVuVqyKrFZh/4WYtsmBVWLNjPPxHh3bmu7qswZgrMh6lmQxdUmmYb+VnrHpWNDGAhELY4kKlpHCoOGjps5O7J76n6pCPFo+p0ROwYznEt9J0Yl1HnOc4hzGVnIiVuSSOE2fo7GYWMx2MxVrCxmFmBjYzCxmNjF8JisYrMPlVkdyG5DcbE9SasWbGK14WvC3Jd/FwFhWZzB1ZkFhZ6R6gqt/IxdWekLCsaG+rfzW+9a8XDtXoRBwI4EcQ49Pk4hxHAcIyp5I7v+0nYN942NX/DGo4CQ6o+p1Ek3AOTnHIJ7jRyI00Z3VeFkSWTlOY5hEMbRGlcGYqzAxtY2O07btMVmPyjywcZxnCNBJJ2Z2ktwyKSpj6n1FqqFzyW4nOGdWROQ5CMDmOYhuSjPsTZ/q1tLcwsKzILCs9IwdWeiYKzOKxJ+6+GJG0e7fG36ytztv3djG02YM9KzBmKzFmKkIhCwmIg4Dhokk9BMWDsO47M0csXIc2m5RIhI5I4n0J2DRwMqxQckluOjOEjWmggSkNyA2hiasX/AIRhYzKxmVqzeghENhpDQ4aThoNJRHd0nJp3MqFHAhQJsAz+KTmUXYIdFznOcwuQkJRNPVMFYmoVmh/q3Dr+LHqNk7fO3+e3y7twWYPo9Cx9Rg6s9IxdWNqMFZkMKKmLMLMbWFrC1gKkIhsNBJscBwnANRLR2ZMNtxJ7kbz6H1GOP/gjMnYzKxmT+cb0WvKq+G4kUCo+xyE5UmAkjgOJHEILBkJrJDlu1wRAp7MRN1FjQTcDhGjyhrQDT5C2jP8AsznEmTKNJQ2/iry9dE4hzENx/wCjJsn+Tt9Bamt/zS3N2sZiszdC/wArPWMFmUwsyGFmLFiipktYisxGswtYmHwjxcL/AMMxteVrJ2MyWq34WMQzUYemGaK5CHIRH62429QJpU1EGXGqpoEHSb8UWWr8idtqIISI8Da5jWnrC5WIeyIcFGkzX0Go+RIfLemFfwVwIQE5H6mycCFkNBZ4tGmparwNa43ENgi8CA1cCeFqJ+Qf9UcMjcj6m34RO1VvmDZ19RDcdpynILy3ZxDhHMhpD1HX0E1b+R6FuWLRWZhWY1VMBWYiswEKuFrEwswtP/ziwsnMQIDZ5WMysZk7Hc+NmiPJnMsU2sECcUVACpgTcTR4NZtkYtlyJJIQj+AqSS4yzWjsaSk9tq/lnj3aHAdonpUJlVx6KC9qrl1UbhSLr0RaC8uiOEaRKB/VasfvUgglLEngWVr8lrz91jRBq4OIcI4RGegyung4TuIbs1WrFoyOScunfZDRwI2D6n1NHVInYq5zR21jydhHZnZ/KUVa+TlOU5kQ3HWnYmtzSr47FZ/u6rMBWYfEGL/w2PizU+YQdhPfQskscIjifU6C1YqNyTuFtshszvp8wl/g5jmIbjTZJUaaUyCOYFqLEtZswNW5hWiSs0HkTwCiB+BDlNTBTsJmUJyrD/1XXyYC9RK0SEoUV1fbp9gfZUf7USsMnDU/TSTZNJ4p6a3/ALuLcnax2z2R61mUVmH2Kz9lb492+JHBDY4kcJpjjOE7iO7OU7CW+vclDlR9T6k7EcJO2j5h3DNhcWd1YZJTmOYgNiaJ+A8BfJxsdpmbsdp1IRDYewbA4RxnEdogR3Z3nJp3Eocbx9CdiJE0peQSKO4egLwo+jkOAc5otfKJ2jIKJKSgkSal1mpxqJIVYHlmoThzZ7TpoRh6QmOP6g8LzDo5jQkl+FGjAf8A1poTRI555GfjtytP3dmTo9JZ6Zg6s8HKt8O18U/a3Ptb425IVnhb4XFSCENBIcSOE4BqJSJ3ZPcPkJt6KN9D1C/8Gdx52M8rGZLGfjasPnDB2QiGxwI4kSFp5OEbPB3/ANORifJ5oudU5zlEblSkm6n9GOwckmH/AERwfwNZeHZycIyxDlVEjMrr5tvSE/jZgCxZ49q3K2z72+7b7NudrNCsyVuSuK0rStK0vk42O487GedjM1jPxtX4tnRa7Z5VvsW5drW/o7X+tviYIWxxI4Qm6HhUnEd39OZisrJMuYf9EcP+CQcJkdlQ6h//AKB1yTlE6Gm0ngSklPAqK5xlRKOMcyIbkof+1twLXu/OvgtwW4LcArPAVpWlaVmQvkxskNyUShsexnnY7TM3YzLYxW184btvct/dRV/RYxW/5rXtf6uzBnqWeiJaKkLY4CBjyjhHGOI4yYXcQ/8ApRTLyvk26PwiNoTVNH1J2Dg/2hcCkJUJHZia2OIco4GpyECaPC1424LWK0vhGKzIXyHFqjhqz5Cd2dhLfQOmCNx9T6D4Dba18kfIQt6HZR5znJQ4RyENxtDW1+bfDq39drtm/fa/at8LGB6Kxnur8sZ+215V8uz0D1bYlZ49KqnvW4PfxZ42/wCCCFscSOBDg6eKLjOM7KSO7s0WPIQMb1Q+g9pHCoeec0bzmdxHZ2UuUW6cxAQJkkk0q0XycVGaEXk1mQsdp2nVUIhsPaQknBxKDgHsiJDdneT306oAjej6nVE+PWKPlHIOweokQ2dPmOUeQOMchKJQ4+lk2TpVtZ2WejYYtiwJmcyqh230WL/JWfuviX6bX63a/Rb49Wr8W/4tn0+LNp5FSCBoSWxxjjOEdIjuzszsHyFQSNyPqazqL5GGkQ8mlOev6ELIzwu4x4YGAwiJMaGuTUQa0FqmefNTYb+9IIgSZOx2rMlv+bfDolIIRDY4BpHQeEtq3IlMtY1OI4DTKPByf1QSLkCoa8AjeOYWo9Jg4Z/2ZyiW4fNLwQ/+B2/w5KTLeRwDlRO4cDTLlZgJCuLPTFhWYunxA/S7fC1/n4pZ9W+dvl8TztebWKxitL/wuCoiIlCgSUhUK3CIUkZh83oKeFRIRSBCVDlcqzCRjEzKIEJCTLM4GYm4ZAWWR6+RSL5nlMgMwitdsRtCzB5vz8G3EQpIAOXM1EbjA5Dy0P8ABOfkwOPNFzM1SwhWzz9PoS5sHhR0TtNC2S3V31b7VYWw0thU12HGOJQM0S43HN5/o1/+goiyGDEtVSj/ALI4H8I3oz0GjwZ/+saevtSeCdBPfRQ/+B3D3EzkOIcqOZDSTkStyVVWnn1anq6+ILK1Z2rKxizF8J5FYxWlZ5+TAjNTmIEjUEhQ8jUkHmj5E6YLoTQFu7sfQ+6dIESNJerNEjcCGJDSvMakcv6a4TR57Bok1PoZ+OxjhODyksgXAgwLyyT7G1iLW7ELCiJziEsRNbjV7mp+ch3CnEhdMcf0T18wkTvA0EtaszOEJk6DkDo6BDdG1udkzKTaSli2UNUdv0dLNTE8KENJTrFc/wBW5WqewhHAjiHGMWKBxHacj/okkpeDvsLrV+Q1vRCkGJLhQxEGfY5ROlNTkcTO85aaQcnCOZENyUNrsdwS1fEebWKzIVnkXyFBg4qfYNd2LRklusbKDoyNyPofQ4UMtF5xPecghRI7aHMPfPJHGOZErcbQqhpbCaVztetZEGoDVzbCESVNHrA2pUKlCYs6lEPcaljPxEEEeU1Epo7k7Gz2ItSJHv1IRoPCz2fu/SbeB5G6idBoyHyx9H0evYzUeZCj9wRMDUkZZjmxmQ+D+iUliR4Jp7Nr9DrIir5JUhK3p4RO009BXGQYiXmYIRKHX2DTCsexWFscAiwE3gcI4zgNQjz/AE/6OinuE7nVT8P+HdEktXgnaqn8k1szsIbM7qescpynMQ3GkiaJJo8isWRfJWLWFrD4RmNIWxDYa2Gs0OEcCmaxtwOZ/wBoJbzmjNaPwzvQbVInsV9e6FMc8EtxAOw5xH1qm4BJhDmQj6EQ3Joz31+UeqYnLOBSQLorxSw0jCJs515qwiLzHq6dSojkYe6PQW9EwiiDLIC5KRQkBAs//gsHuu39lPSHVN5YHnGbioolLXOBFtIb0HdzY8H5LfbJLCkSF0y0HJDzA6evXInlcBPSR7CGNIKB6aidWZ9rGeXdvl3YheR5sYs2QQpJlEqTgOE4TgpR5OzOwyy6wRtEcSXy1iijEsQkwSJaWLTE0HXqKSSTEDaCohIaEMnGhrPNNSNRDUoyGvafGeiijP0sdfFWzIsgXx7HAjeQe3pMOG7wf8mRoaXW5Np6VbD+EbQsItZHQdInsf0/7M85aheYlzMmH+QNTw2BTOgJUhwh5M+QgmVgTuJVG9VIr+YYWFMl0IiVG0e/gm6TRGgvpE5EGtIjYe1b743ilGiSWlHpJ5ZnQQheUa/lkmtokRpqYKzz7s1I06RNjqY1IowlnuYrii33RmTtY7QiGwwhcME2NFGrPNuXy0O14Hw10EUEhWsFZkEmYoxBUtI1GhxvJiSJpqawksbQalMkGTTsIhJlHmQaQZtRqSYzy7sY0RA9LKDTMvYlw2QmRmkHpI2lkTHFGnNzsasgLdtmK5vwjxyOe8mCds6ZE0nJ+bdT7KzzeBIrAewrK3JMFNIzTwJFeBm6PSELYi2kpgggJGBCwKFaKHhO/wDojflEP/oSDnn/ADRrSYTzyPsS5oZ2hz0FKTOJ/Tl0aYZHDHZ/DtOYe8fRBwDmRK3JQ/8Aa3Lutzo3IlVrKF4vhaSJRt6tux2YwNApDZCBfejMnaslLoIbHrWOOSIArPNj+ZSbk8DQkZC0sWYHlo4j1D6xlqEOqecweCOjQsNTGRGtZ5kZkQmuf2JCSHgib7sk2gnDeRqWQkvMEYFUDWgk1JZNCXPwDlseGmpNL/yHckbCDQion0EczVBHSxFmHbV6iYluJE5bcI0hstqb1hiGshCyKgmsyNHmKVMW5kSFJiwqpK3oyy3RnVnvvw1z3dG1SdDnb6akEIbAtRFkjjHAOOcA/h5Of+j/ALMmHINVD5P+yON/CNw+pEtEiSQ5X+ieeSPyTT//ACOD+BctNBZOIcI4hAYSTVjYxTghfC8kVmxKGKzzY/lIcdHuI7sfIluOTXJrcQfofU6ofElKPI6PMZoI0co7KPKPcIeThHMQ3GxlH3Y2jGm7swPEebHgWE+zckxNCzvRNIFhFDI6QhmtFnUQDisCRUmPwEqNPyQL0BpGZrEu+BmzhIUGv0pqATIJo6pqQaO0R+0VvqJj4VPoY1PYKieQjIMandAlTsSXz2P0BJXyNI4HtuNv57XFfcSeRYjrg+7GKLInOEjYyhqmLUZgpou5DhmATnno8VYig4kcI4g9kjYO05HSNoyGRmcg/wCSOENb0LRpB1HBr2gSKAdlJKc5wjjHISpJs82PHynmrKGEiaCEReROFhWOxyUIk1YloMxrQhsI2IWDhU3GMIBzM7qZhQY8sq3whrcjMdETtVHQXYlvO4hsyHIjWdzlpuMcw2t6ZORE1/dXVDokqbe4hIdIdweOSUKKnoknSul2FhV/xNNTyJMUnElkcwjQfhIWQvpxkBpKQyfMa5PIkN1b7KrgyMmWnIbDLexP0djJIfovJDSGo6kfRIy8YvOpgdVDXCnkSm8zyth6abUmySYJBgseGJoo1ZQTTUojZMTlyMRrTQjCx2mKDgOMcJwmpinDdnYS3E5yOdQxtD0ZXy8lRoYUo1Q4G3F6+SU/gsKjwheccRoLBMGqGjyNmGYiUjWiSZETSIpbSE5wIjCx22ftYzXIhHAcSOIax8s4hw03zf0U5S6aVBOBjRx4BG4fU0iFggRbD/gzkHJH5h2HA/4dhyCQT/8A2ppNZHKiG4r7iVWFMxqP3KQiKHqviBRN8hKhEr54ZpxavVimvnwOQkxlbWKZSFUiFHNIHI2rwaaqU0JsgSwaNwYLMDFEkIefqaHjY1JxI8RMB6XkJnjTMYWJBjNCBlIxnmaGkSssleCQ6BPXwQsDHUQsqk/BMLUWiEMyDEYGHy8qNSSNB6iXOBJ+KKpkMiMPRklQGbyIjUWBGnhjZCwsk9uKegtoetkZtjAxfCsDDYzGSTXFZgz1LMWelZkFiz9lcnsHAOLSQaMycB3f0h/9KacNQ5BzD/mhra/guCnShOxR/wDF0qQXeR2Z2CGrc5jgHCIbjIpJo2j6PWsbUJCD1o1IhsCZ4IJFGCZIiI8GNmFDR1ivQTQakUKYMwqyS9BC41JnQ7lomEdcOwD0tSQlESioqmSxMCElI9B8M03I9qk04w+U6TEm5yEoZOj41UgGtoIoLBI0JaDKWPEQsIS3MakIwNDZjIEE6LER6HkYl+rWCzG5Mdjds9A9Gxo6h/4fDvDpWb4/VasrLPdt/RYzUrIQ9hHGHsjqaHEdpzMaxlmjkcw51CsHqJQ0aPqTsRIPDAk0h2EdmIhkA5zinMiBkTW5KriL4Zo8USojQWgz0IUWqEsIgyASHoh4OEDUB3mm+g1QVKyMPlJLRw0+whuzPJLcc2vD3SN59SeJO1DbBUH5JPeO3CTZnbTn8i4FAcxyIncMoFQE0MxFFTEaJ8k1fQw2ZD1LM3R6dmbo9VWegemrH/iLourMtv57fdf5a/Yt9FYz3bcX2seLowVmLMLM5haLFmAsELY4DjGwFsHGdhHk5WLmJbzm0SbxLcieBO1E7Rt7DB3ECwx+BqJTkOYhuShlbFUWGmPynjarXn41EEIhCISRg4RxjjNiKNHccj/tBoZDYWs5dY4DCwQ1QnYiSeDCSHnVjTajAhKh4GjcW9QZR4OnDhHIiG4tankQ+omvqiUJWf8ABzb6i1/tb4Wvz2M/fb+rs9A9Ox46DB1ZlMFZnFizAVmArMRWk7SsdiBiSOA4DgGmwlpR3Z2Z3Zr8mjychG/5Qx42MVp5tyVvj8XFixZizBWZDBWZDBWeoYOqQtiFsYEKJaI4lYJlBKjYb/tVtbLHNP8Amj/kiNgTMWFKQcL+n/JjgueTobi/gaTw8OtpfE5hSdTyIlbkqj+mxmHbY7d6TPRVnrGCsyitlZiu0KzBditKzwoq+IrS+EYrGKzD5DHj3YxYW+bXm3Jd/FxFZjbmFZlFhWesLCs9QXwz9Vbn02M9x/lv6CCGxxDgQxoeBwKbiO4890EP/pRcw54tp8mcH+Ef/JSejCIoksUPKJFNrMCUJ4Njt/hyCYJ3UUOBzIhvRkgrP0Vvh2Kzw7t8exWZK3xF/wCMDD/wh0OYhuShsTteRWebXj3b49/Extwty25fiH7q3F8JcXR/z92t/O1nYsxWZuj1bNPULFNCFsKvE4hxKDjH/siO7qo5BpeYgRuVLoh9GizRc45BIto8kF4dGbyc5otfIt45CVuSOCsyQrSsYrMLWH/hDEkT+BmmOExK8iy9GS3WTLlI3H0J4k7EZ4qpMT2MWo1+CKetfTK7OSi5TkNwQ3JRKo4vh4fEftamjtWp6/ih+l2MXq2/i/Lce+xnr2egzT1WMCYw1H91SaNj6LpZI4KzPt8AhENhVOgn8HAQvFBEo7iZcmncioH1J2qg2Ahz3nRkNmIgSHLTcwiBkSial8BJN7HjTE85sGVvm3zb4UghELYaUohscRwHAPZOKsR3YjdnYck5tEwILySk+pO1E2UcClR57h78jsOjI7OlE+0LdoOMc6EeXgQ3JRNM7b9dvjay+Fb/AM3FjMnazA09NmRwYOrMv0Kiu5quduTVte4iSfiCYmPKsY8BWMVYEIHsC2Dgoo0uZnZj5sSa8sSomAepSJkkkk3s8aikE7VjCCeBayrzsNjZ0Q+gxVWS2JWhbkqNUKhkjxTWbENEliElHj2Kzx7t/IQjiRxDhGjxkPbOM4Dkf9ETlk7CZaieKf6Uzh/w0+aKdg4Uf+bP+Lp+SMzSH/wOB0Z/JO5jiHEOZDTcV5eWTXF9HqWYPAsWY/atfmtXXvav9RWTtcFvoWvKJsf5tbArGFTzRitpECpmhfGzwokigag5MfjDMjAfkwNfgdjFYypEjwiWpvQYxoLcasrGPDujajGzBCW9DtQO2kj5gN5akyG4TFOfsbkMeENr0EoTmuaDsUiasyvoT3CdHCWo1cbnV/lGhmfoOnj06NrjLGbkovQt/NZB+g4DiHGOEfRjgO3+nI/6KTOcNzRWokHMoZiWR4NH1J2qgbTyIvKmgG7z0PMuY4hxCG46+0mxvg1FHhfgij/IrHb8LlWkTYVovjY0JRcxK3G0QMKqIhli1rY7BoRBkjEhYnRitH7KNKmFsSRIEhUOJROeQeaIsgc26HQdxryogbS6PLhiKFGp10NquJFor29lkERBpufJryengeNfNNWQgyoXfhXNCaSiXqQQJypGjz2oDIZY8/JT/t4tw7KICSafURVGUFPrMF1Zh9qq0pbJagqrSg9khbHEhGseDXQ8mEHGdlJIm0NXVuNg+o9LBOxVX5pKcjuIbM7qk5TmRDck0CpN55FaVjFYxWML42JI4hDUnwSUCfccgknMn55HaUQXZE8CdgteLFAxoPlB2EdmdxOaV15znIaTU5iG5K3JQ39zSk09+kaBUSp7ZuzNyja5YWy0co3r7Nv6iSAWrViRCCgkN6wyGQkomYaEeBjm6KMYRgWEQ2J4aFamzBpdwaC2MaXcCa87f7ujkf6NEU5e5p+piGTJMM1Fi/wtxXSiVuDRsEc9ED4/k0Uj9xHDcgeYYDWgpImnYk/SELH+hMN4MKkcFOhGaAeHQrHj1aqIIIIQm8HAjgOOg7DuzsJ7ifkoo3KnqPXQp7jsIbMesQchyENxpuJrc0q7i+NnjR0EHVqaeKCGKyVOLNjFmxJFSZBBAaRCENjiIwhLIwsGk0OA4ThpNIEd2dxPeckbCrvhEbg8uD6k7FaG46vHcQDUJHYcxyHOOK5wmZ7ZyI5kQ3JUe5NnoI8Cr0Q2iH3/AOUbsokSeJFiLjYiBGpOiaW6GJV4QkkISGJNCM4rPxiUHzMaZIQaITuyPOWRC2RBI0IaiSD+8ImxmRA10DyQl3Q+6H8EC1pgOniepmLP8WrO1ZWrKxiyt82QNEIgcRDYaycFCBAesnuORUBHIvjZ4jwONA8/IsBQLZhBh2wqIPIN8aszWoNbhsSOi1JQrCjSi2FhLZRLHkdKG5NHWmjt3bfi6QQ2OAhRUDhHCOBQSeg4TtIhIl5Q5VPGz/CNgWWpbqhIP+LHVuTop76LuIRDF6JSIGtI1E/Bm3g4RxCG4/srXgpssWP9awISGhISEIQssiJCE3XAiSBlkaIthC5WppSDnO08urVn8SWVjFlb5tebfIvhy+RniMckQ9gkJBkaGIMsajEqzJ2M0NiUsi0ehgQesb0BGh4NZNQNVdXExMmouzjCMKkEXXQZWjRU8CwO2hmeIJGiTVT9Fy13Gtw6vRWPL5CWT8oZo3w+CMbR92Noz0iFsaELYRJ0eDSwjiHAoEUtPKp8z/tNIMpZE1of+SI2D6D2EnA/tPyCZYdWDtOY50cIj5DkRK3G9zAhGiImiXt4Ez7tKrO1ZfEMu1jMn8Tzb5FZ5sfy2QoLfJfKGxzoYQjJiNNmhoNDhIrTqzysY+oWxCplT6SJAyAfGLxSNU6uScniBoZjpXSQ0mIQlajFDR5dPC3WUhplUXMgsI/xa0N2KTSB0rC1NACJIx5a9kbIDKLekDLfQT/jsKfg6MinwyOmZ+sfDIxANNWNmjQ1KvqHrUQmpHRGhqpIQhJVPyW+/RZjerxXFEGlbaHAcYpulFxHGPmEktWJSGxEigY2hKTU+pOxHCoU5PQnuJbjqxNEy+znOc5iG4rXXzRNGzyt8vieRWeRVwfy2RKHEcBw0SpEq8sluOQcwnbIcM7I+hyG1nDXOAZmcGjyOjI7MjsxLQ85znKSFL8nMid6Jdh00xEGjMMqaEfwFBvxjPm8j669KCdStLXrQy5pWWkjUVbIUsQQs2onECUN2CNa6ceFJR+4VtgclfhRboBK1OBKvpGDqkoSFAUCxDo00TubPBTO1/SaE2RHGotzHQpSyjMcIZLIhxbEBIlewJp4p+G9TRkxKxZdIGXSJ2EyQ2OI4DiGkE7xQjyPmxHvRQXdH0M6j807jPBDmp8hCciTchuSiTyKuHy3XJyUZLGedjsMkE1EEIgZGdEbDgHtCZaeDhpuE4T+LQ7iO7OzOcluOTXpfSEbkfQ+pOxC9Bwqq884iEijuON0f4M5TnOMc6ESzsch2JHkIx31b5EQY/uzBnpWeoLFIhKD8H6N6WjxEZ83t+DMppPcSJ2aWKBL5HtY8CNBIW6Rr5EiPgVpdrXgeRZ7DRp0ZEhDXh0nddBYfYVmb7q9Npk5DNPjIjTRORpjAkYRcSNY6QRSCNSEQiEQElJxHAQIkTszsyZNoz8p2eyp1IELJOu0fNCUcBB6QnCYmNCUajIUXIlnZOcDtpR4QlcOZm/InkcTZZNuGXoTaoG7xV8vVjF+bcnVvqW+urIE9RC2OA4xxiZp82AL5BD8ssmXOORR6QhT8EjeHVuBpMYJ2qHnHnZPedxAJtxX8DkOY4BxhzW8nIiVSSf5Dhi0NAGJQL1I1iFTUGqdhyYwJFodvSNGDWYcUoY2m6MW4zfdv+6SaR4EoROhliwqLakY3I9JD+OU+dA+ZCsViJGYSxmVydhfIzxppA1STIKla8xDzBT0YPcwiR8Emg8DBbSNB1MysiYBXwogSvLIGtDR0Emvg4HhDX4FHtmjPYxxQJyhLQQJJLW+uNwJHhkqilT2EYfCGjssT1qsQSWssmjaWTUQz06SqPHYPWs/dU0pJsnLW0ghscSOJDXFuN/g4aEW5HzeKbkHPGlEmsfQnYjh0TAdxwBclCVq8nIILRiM5Z9Bl/VjPLux1Mg1hmoSRRREIgYNodpHGQObHaRNkKUTgVHWxDFaXyMcKDkOUZyEsTseRA2ZQ/CIB51ITNREbaMzoxdSkOYq1yJKzECOH2KiHamTbilDbotYwRUBLX4yWn5hCDT6CmCyRFMita7MrNiz3njodM2IarbQUotVIxkjcmQ9NBDapGqbawzB4NHNI1IlT1BYVn7oxLIRQPkRomQQREXEi5FSOaRtaCUlD1dGTMbSQpa4yYkmBKxZJil3RklBJpn3rCIFTns4hDwIeB4WJGEQ3ZMubQMYHDO6PoN7EQcUPJOwfBkKxS5SXyNhEENyG43VdW7Szk1gQnwLFaXy6GBxHCbAVLIHcluHvDfUEbzsM6Whwo4KhNd6GNDllO4fBkbehDZkeaDNMhz03KODIrLsSiG5Kog6akjT9NjM+4lzH+wxSQTkSx5ILP12PAVTa3ZMIchawZjRgxRfBnSnRyCG+vuIuoa3iK5WeLdBYNkFp9DVWe66dEpo1YtZLwRMZaRGjwE5m8KBmoehwRHTHuEoRKhiw2TE5uDy7op4O4GtdDWk62OwU9j2Nq2eKIRDYjsIEHGMoDGjljI6sSbWaJorvJ4E7BJEak6WI0HcdGQGgtHIcxDcbUCaJpIwvkZ4Wsn8LgYWYE61TIRA0jMQIEBpsKkROA4jiNZZM05NdndncT3ExOqcQUbjU7H1J2I4RwB5aPNPyTtHwZE0p5HYIeYbPIya5dNyo5EahSNVn/CgQqB6ln4v23KigRoKB+o0yqh5NQkgsISWhIXALz7CEN25TzGQJSWBZMoJQjF9rf2IglAXQQwkL7ixmOkjOHxQnrOgTOuDMFSSBvhKWRIxtb00ioGTgwUbVDRuE6DfWRpQhBBAgSEdjiOIaCV0o0PUhfI7bPP4hj8IzzsZ+ljP0sZ+ljP0sZ+ljtjNf3IIRC2GlsKmHBXZbWAS0kSdzsJlBrWJklrOfWGCTfgQX0J2DhDd1TcknvppWw9EyOzO05KbWOdKFzohuStx/wCisk/YNJiThEDP2sdLQjfZLJVNBFcxjpLBAYDENfXMYUaEIHawI2kiaRp6xohqciZE7ZCSAgGMgwRliUIXxBWPIvkdtnlaxtYWsLWD7seDHtYzz7sdsZ5d2Mx7WMydrGYrMD0bPUPWVmW38dv67WCCCEQ2En0HFRcJwiPtI7s7iW6k1cedF2R9Cdgdal0dw0gXkctNzkxqNBqTXN0YqjQhWeRKCQkRTBmBBBAwmzRQlIE+49YmsxEIGpZJqQhYZ64EwIwtK0rHkXyuUXwZDZ0XuGq1OREomhs2YGFrF92sH3axfdjwftaxfaxmL7sZ+j+HwtGLPWs9UWFZi6fEf6Pivw252n6u0kLWBpCaCGxxHAJJ6DSxQjuzsx8PVjYyOfQQXnC6HCq2aGBchDZ0uQjZN0R3Em5paWhBKk7SEjcgySDIE2FaVjC+ZA1jLG8InYVLOGlEY5SW45KJrcJuO1gwHCcdIyQnp5J7zqyHI15ExHNLmOU3AhmcxyEobQ/sTVmbux4tGYLMGerZ6x63wzHr+Jm9Hh2rO3+Wxn7LGYrMDDZgzBZmMFmQwswFYulEEEBUC2jgqC4EZ7s5lM23EqH0J2jnYR2Amkz2HR0UtY5h7wtw5CG5KoXyOliVJkI0NDQk9W9jtMxtKQQRRdctyCCFQiECJAa7C4OChAai4IESI1jLNGZJ7jkULB5iiguyNDwIiHRHAPdJiQDEi2E952jReGKZQlS5TlEtoZxiG5KoynpJsfT7tfuW+grfYsZh2WO2YsxWekYrMphZiKzEVmArStIVlWkiCKGhIgRIjQSkNiNJKGL5GKl5VGhSDcHnawrAbQSmjG4G8xIZE8sThZhVjfQLiCRKcJSKDUaNSJ6rEYGieR8zMLkxU1InURkakKMsSYDaWRYTMDHYzFR0Wbo9QimgQgklCIQ1wOAxDUycBwnCdgr7T7HYS3E9w3zeGQUHG9H0I1hOxVr5AnxbHcR2Z3EBMyHKcpzENxH9E1wdozGKzKLFmcwsxFZ/oVnj2K0rStq0rSseRWl8jFTrTBgJk2eVjMK4yd06j9fJqYnZHRzwMKsb3NdEpwMnXJwmkpShqWSiISEYmO1hHgcA5tBsgyiaZDNEEypmdQMdmYwdUiEjknvBEG6ZIJn5GT0jpebFAE6Ux4Qm145HCLLX9t9mndGVQ9Efgydw1Ys7lgikH7CEQOIZeBoQOzGxkOSaqWA7DSSJorBpI2gtGCOzp8gxoYt45CBJ/sVnj3b49is8exWMVmauFZkK0rPIvkY5wrv2D5BepzHOcyEDEko0Zl0zGnCNR6K0RQaBBO5ggkJoJJ34Q9XGiwKUlTE9SzCiZOO0pJASIXJF0yeSS/J6VmbowdU1NIiRrMFAS2RDNvAi0d0N9T/8CSw9Mw4WBzY/Kbf1UTiCUHNPMJljxZ6Ko+YLx4jwc2icajNPLElJpQmL7WNmOx9Ri6pKpkFgeBU+BtLJqZ5GYsC1RCFUzzdxbRwHAQMNM93WKGEjusn1J2InaNvTQbSMJ8WQ5ImAW4cxDclDE6KmStPIrHkVnm3yL5HTBpQ7YSII1I7HBSaiSNCQNaEUoQ3cnvUBNwsK87KGBikkOhpDILgXAocgy2pBWpyHMQ3HUMVAlbkrclDaDaOqrJpc9SzKLCpqTXZwposwIhiuh4jWi2lCeWRdW6P8tfqdITqsxAzdn4jMTHIooeErFGmGdRqHa5LVkTRmIQhHWobqDFpEtbaiVPRDHALpN7kGIhaZHkIuOx5zE/zXJCro245D8ESiuhkiLuKIIDRAiQIjER2lSYm5iT3EZFGTIcnAcRPYnsPXgQhsyBEnUhuQ3JW5JkL5UcCk2prdhNiTytYUz7MBRvLeNmBiNCCD1hMIIRAiKkJdqDUN08CxJBxHERFQJYVPdndmgYrU5lFG80DsfU+hJeGuBZpFYph4Ex0I7MW8BJd45BO8kNyO5OkaE1b+C1v7qmpNIxmcqpKoMNnqHpUaEOQyYUDdGFijwJoQzHEvxyx4GOD8Omt296Lspb0Q/wAJItGtz9Boc6ElImFMlZKA0oVItDzujMkSoiBK5IVEjCDHAI5yUEzIVjU4miIIJl0GhDIIIRBAiRIiasXyMR0AzeJMZzki2Lo7MRLROB8lVsU0DQ0DJGwU9dK4mFUIcmgN40JXyaJniDWhJRS2EhCbiROUT0JQkyjgiWQUolNWOLR2NqFijghpCMBiw8k61rj929k0IWQxPNJ1z7UlwkDTaCgyzJHY4DgOIn+rWIcmnyzyhPfXqNx3FqfUnajgRuhkWjyoZ7zuHwZEUOY5yc18GdeDkEvSRUkIpCxZonzRIsVy7CVJnKPOyJqEO2iiJVQqvVMkFSD5MEaTUxVyQqPNBkSOCFDtiS1EZBGPFjT0I0DghrCZBIak1oxOUJOEO7GhIGN6GSdDzassXyMQyBj6EB5d2YiR6sSJaIZMkxkyI8i1sYDaDFfya5ZqtYG0sxEplZKslsFaNCmENO66DUQxYJ/PAc6oWK41bQGMtDE0pJ9K+HdW0lLpQSXhkOiKgHopNNWg89qffaKC9C1PyZnmYKkRMDCG0sihVfwWKeGvfMias/azBnrEIgcAmQosHERERBDknuORQLoO1E8DhHfh5pOw6ugoFvHIchK3MFmVFF1FRpM0SbRgq2lXFqICGA26x8KNCIHI5shY+UYMmDykJNKjISFsNafh6CWgs01mqyL5GPw0cJwhsYI1g7K0gVBzGTI0IQMhKJowsDky1E9aEUKjVmKUoNMNGH5CAYE9pKg6Q12LGs7TEjAa6uz5dFV0DQog1HkSTIxAFliOp4gz6NE0HF5YoCF7GgkzvAtKi6klqz6IhzfYF6D6luNbDKTHbSZk1ZjGNCNEmJyhENLU0mKxyWKKSXRjwj5Qmn5pJzGXYbSQsQ0o2oUiFGRIhCIECJEhsNJInZkxyBINSNx9CTwDb8BNsdGdGRGoSnNQlDakVjSkVYPNUUjU8C5ExSwQLNuQvkYrOAqh9kNiBEQJgiRpSJghR2HzE0DLyJKydx7hOJO04ziHPwdCOzIUEtqhynIcw6ZynKcxyCoFvENyUSaoXJKJJp7tiKBKO0gHRHUfYgj/AHHIwJZN+KNJ6hogWkUzk/BSx7c1Z0GSnIpDUCqFcHRaikaupouRvZDHosZRUfAeKM49kdGkqhkXlwLaOD5/oJPGiNGNwTtAtVrxtdtiCKGkYCBE00ER66Z7ktzUackb68nInYcVJ1MsC4shsyJEhJzECBK+YxVNENmiZ5OTRfI1xYHW42hJNWFak1UYK2iKoRRAiI07oiR2ICtOyGxxUOAXK7sqgITXYk4Ce5zDI/NF2s1InacJwDguPFDIdh0Zq6g5DlM6OQ5CVuSP77GjB9irm6PVpCp6IqSWaPsqqZMRIh/VKBiZWjY9UIIR6zpMbFRiWBfS3/FIENvJmBS1EEQJq7ZAoeDVISnkVnmnJTWIqEUZGpBoQqEtSJEiNPmsQmGO9TNKCYgce5mNBrHA2oTSGrGx205oiQd4iDaCpTmjAppJ5ohHLS1kZh65K3JESMWySMLW1yFgaPJqwJMz7IVmS7EjISzSjBWeFv8AikEECfwIRDYjsPYET3sKiIh9s7MnRGtwkGpG47k8B/rDrpeKqS3EraC0ZEdmd1JLhyhbhzENxi69xaI1BSxQQQh49UgauhKvp8HKJCJtOhQC3uZAcPVkAfY1wGhEmySGgKHsRjUkMaxLEaQKrPI8ErQnkeEa/wD8SxGDAuKihEtSR4gWSBQi8ORcPklkFwREo0ohU3Gl6CkNSJuTZUj08jKTQHNENRGpUyXdrRBNnYkROdSExDcsb09jmt4Q3vcgVPftWM9yNEEOEx3lT/a3w6tWfVv5bf0sZhswZ6FnrGLqxBBCiApR0IkSJE1xDc0+Se5yCQ6nc7E8DhG4dKRMO4hQ5DkOYhuTToyFSEy5CRelGlLQSGpQ6ggqVNTUHiAmo0IjP0ZRUeCiyIMxoRJ//GljkeSg7j3DvYlQdhwOihzQhEtA8lqKiJGg2KSRJrAyKKcgU4kIqP2WwQXljI0CRJS1Nohm3JZEw6+1ayf8oa5HiFoO/iCEaHj92q29Gx3XDs+EPQPVs9AWFZj9isz+Kbx6vogimBEgQqO5PdkbiPIdyaXgJfgT2OlMSFBAgSjQKrSjTkREI0QjbEOalPJIRiyhQF/50wE0IIIENKppiUzEsESNeqMtxOvIgihI4CUNCexLY6HQd7ZCiKBKQIjslXIIDkOY5iBodoSOWlQ+kQkCHMoVjVE3Vmfa3L2swtXpHpWhYVn4LfZtf7W+PVv+BmNfO1Z2+VYosiCKIUIURpeqiHuyHuQIcneo22EmnQcvAp2oTTimBAiJSO5HcgNp813DD7tY1g0GFtWZEEUZGikEECWglqQMNESBAj/QiR2IbEdhrEiQp7EG5SkThKRBQXcmVMjgOAafFkylsbcdxHZ1hD7sW5RcyFS18H8MkmnrGLqzP2rfxW+1a8OviFl0Oz5ipNFbK0sripJI8ioqebfJBBA0JEECA0EhEiRER89Z2sX3axW8FaVjyu7GeNvjb4W+Fv8Ai30rHaGZd6QQNC6PsQQQGlAmJA4jiJwiCNGjyLDk4oEbzseduqZ2k7TgHfh5oOjI7MgTP2IHIcxKJ09Ek1/zaqGVGLIVHRZfEFl2OxOnkVFTyKxZsYrGKzH5rJSMNyVVh92YGC1gvhvDu3wtVtY9WMWPVjPwt9exnuWO1M/R2ZD1LPSPWszCsxXS33awiAxRoQIHgEiOxLccgl5nemaVaiBuE8hcWQFq0uYlEo1nZPwhZdqyt80iqtLNjtO1j81kT9SLWTdHZrMkHuGi4fknjQnYNsJ4zwhIdHRRCocxDcfVECUTR4d2MWFqsMWPTsZ+FjM/Vv4bHgysGY99jMVmXo9S2YKz9VbnbfuteFpZdfElkQQQQJqyJEiRE60d2Q9zsJOXRIkS2E04OtMSAmpZAlE08itKxZsdp2sxj8rMnRCdkg8kkpmH3akQn9iCEKFUwEV5thkpG2ZkbiN9fWJJ4TgHtCb+CexPYnsPiJ5nU6HQa8mTxZXJ5EhyHMQ3G1A/pJqzGyZn7WYu4b0vhHqfib9PxC9XxL2Lc+1jPPu3J1imTIIogjUjYktSW5yEUNaJPBQTcktiex1GGimJEiMiBDcgPoY/KxfkhQ021eTwkiRLcanYhITQpzEvxW41SUaFbs7kMTISNT+wT0atmtC1tsg5RTLMJQpItxBO1JibEIpA0fiQQQNCWAwggQIEBBRIbERoanY7s5hANbiA4fmgjdTongE8ReRI4SY0HICQ6MeRYJhiIoc1Epxk5iG5KJPxCs9630H8I7r79ufaxn6WM/3bm7cnYxZtWVqy7VkikDQiCBAaCESBA1xj8rPxIVICRiIcsPBoRpDmolt0ZdBM7AkLgbzgHuYMcJWpPyx2+QIg25ZoQvgJkCj0Rr90Z56i4hONidc00pdPZzqNO+KjM/VjMhm0GROhF4dah6CZhkCFPRuSSNEWEMf2JHCE08OjHZkPSpB4N2L7NSEIgcRETH2RoRo1ux2ZzDlEbzQCZksUC2htwfFJLcLi6FrvihyHMQHsWexa3s7fPuxn+rf925Pu1Zdqzasu1WO07eQx+Vky9UuUgNoPp90gSVCKFNSWhojwLAtiRySGNKdBO1fwMy/ijRMUxrZ+FYxqQZWDy6HNdxUZnsZJJZFX/IVL/wDcm5eJENohyQ7LeWOAaNhqVLyyenLZBE/3Rq0ajYGWzQ5GPcP2M9NUeTi0Zz0KIYl8EOobIEADgyp+lq13iiso9IVNLeBLQ/waUZCaNEIS1kIgR2IiZdae49wV66nckSeA0DkTDozrTBJA5DBMaDkk0dt0t6CTCjuLLsYs2O0/imQx+ViX8iBwERtbypT3ZyiN4m80FTJ4B+wn2OpAgRlETmpNCVa/GsaBMSEpaxMzWYGtZoNNNCHHGhUHTahCEp4FB0dECadqkhIUkDwawIEa4lkSuZ+UepY2owdURqbE6ExuIwGa2/JABmdljIRr7iQxEMbJa4w3SQcdPIo08iGPMCstRKO4avcJyjImhkoVmTsbg8u6eCaaD2BIggaE0oaGaNDSobi3DXc5CaCWx0HgW1bjk3MkSAghuSiaZE2ZPux2nawumHyukbgxaFKZpTAhCVOShkkliZh0ikkRRBCaIkRrWz3JbktyUiN53oY6jJEjgHsDOTgJbEw3jA8N6HU6nUXGBsDyQoc1JdKPJJCmmYxUaIMx61mcWKKmC7VGpr7tiQSGhnghFKRJZ9Kpi7kTuI3PKMW/Cq46miJ5qz9rI4IfUDQjXELAwTUxTQKSpaGFEphJc0FkmnptRhqKSUPAqCJ6IRMjRCfCsXSpoGEiNeBIh7kbjvQhIkzsJbCbJbE9qyZEiRGkCCBAlGBh8rM4xvpOzIfbh2oskVtkQE0vwnqaEzkQUfAGPtrVjwsYrDMvVjMxBBAzzIIIo8qIICIRD7IECO1FUUMz3GRkdC1I3EFyiTaiRWp2pkTDipJjoS4ebZDX7iO5DclEofoINzcSpEqInpCoxzQMmi1Z+jFVBfgiCymQqiTU40FM5JKBmCGiFQY6JiGrDMKDgJ3YxI0NSegjSNy9SJeXytuwsJPkGLdGjJLLSiCCBoQhECA0EESJE0jD5XSOhoagShIEGiR5MozatKYHDPRCIVfeFjFZZkseLQz9LWqRVYaU+7MDHZmPUszCwrMKQQiBf6kECA0GkREiRIn40z3oGt4lK+CTwnCcBgdJIdDoLU90uQ5iG5GBMmjqxetBmCxPIsJVBfIeCKERQgGhqOp5GRoNjTBArbqiQgSJIk3JJ/uPwIczHcra0AWtD1HJZCyEUwY8WsPmMTaaknvI7MRAiPs50chKGBBmxIwvgPCxissy9WsrDwfpZgYPurMTD7sxMdmYwWZBWfshWe5a8erf8XOKRT2SCCBoTPZAiRGoiKIIe5ruI4pmg1AyLBPY6nU0WRIgROYdSFQiavFtFDMKsYGNjqkFAyCbN4bMo0IRHaUZBxLFhDenWksHi1gYfO4IICBTT7OM4SIk0DkUUb6EnhOKgnDQ6kdiIwQOc5TmGm42vomrM7DaHl3ZgYPuzEWmKYnpWZjB1Zjbn3tdB1eHVrfy+K5dibMndjMdjwY0ggwYiggggTQ0CCBA0BUoe5G4anqycEiWxI0HWxIiIGRKJ+AhVaFYiaEKm8FB4FZj8x2nEzd2YmCszRFIII0kVIiGOxHYiNDUdM92Jtxm4wRuO9a+okyZLQGhQ4DiHbDVgdx1ICYEfQcxKJQ+gnoqyNp92+3a/wBbV+PhbPat/a397MHaPDMFmQwszCszWsDGzAQgihhVUtyGJPcjcd6NRDgJ7EtqEehEiREhzHIRECagkmmPzHacTN3ZgYLP9W+NjFZZmteVmBj9kWP3IIIFF0VGEiWCNg9ye5PcnuYtfJLcjcRvrCTwnFQNsXg6HVnShLLoicxyEBzmz3LGZu7GY7MTGipgzGzBmFmIsW2FmYwseLWFp2nRBBA0JEEKhoQgQIjQSka6x8xj2GJk7szHpWeHfwztWZrMD9LMD9reKzAw2YCwvhPr2tdGCCDP1IEKICJECJEZ1aM9zkGtxl7s0iaHAS2JbDOBqESA6hmNJpgzFWYO1gYWYisxqVMbWYxsdp22PYxfCYC+VknEdzopHFqHQ9PI4+GdlKY1IjXwcxDcgNquyaTdO1ZmteXfxLjswPSsxF4s8O0Kz37XZM/D4rq+1jPLukUYuhBBBgxNCCCBdGIooluJMlBI1NSWYCbJWE0KGhI4nZgKxitsLHgw+EwMPhMWYf8AiHb0P0IREiKgSwtCBxEDVJ7nIyN52NRJkcaOMbwEtiWx1IcipdDmIbjSBskk0xuLabWKzG3Ndq33fhmZOrX+GjtvBgtYWZDCzAVIIoggggX2E0RBBAgkQRTAZkslS2KogPoMiSaPArHaeDGzAwsxMba+V3N+lmBgurM1YzwsYrDMmQtiGxDYaVEUljE3BLcl7kvcdjOBLcluSGZjZhbl2t9m3/FvrWMz72MwfdjtHgwWYCsxFiqMBfEq0vmGRZLGZLE6O08GNmFrEwswF8H/xAApEAEBAAEDAwQCAgMBAQAAAAABABEQITFBUWEgcZGhgbHh8DDR8cFA/9oACAEBAAE/EPU8Qw16Twk862bhP4rNnTO19ZZh0ZbenLd6bjbx9/S5e/0PSYsO1jD2hXteO8GkjHLb6V0dGFMYWRR6XtjfPC3ZNumOkgsbJIifwwLFsYIvisbJo3ydOdFtY/PHocdXM2xe76OLcHo+jbPQb/yLYGrLf3RZjR/NHGmYltj0GDideLQdeKPQ0fQcvQ3JYiYkWY7Fl6E9kvHYvFhcNj7252Uo6rB2Vz2beEuuhLhhzpn0HpXaSSGdrPqooTovGlPeIEiZsy7W72NB13yI1WBj8Hoez6dbR3e/o2mqzpxvu+jj6me6NXi3w6Yk0GDteNeCwJG3xoe/eRsHWRxvDed0h3ie5ZuMAOkHYXttjiJbeVGmfmSscM4HkmwgXmkwJ92DYWSWzKM2YdH9aGNOHujj/BmdGeji0Y04YlszO51JZcjQ1acaty6mjsbMTxc339HCW2gbTcZw76Byc2fbqQeosaraI+1I7QBULhfxGyH5vCxHdtwYndlp17T4EjMjayIIrUbZyMUL1gcgkmDmCKwsLcrjdizZluLLA9Dv3+hbQ20A04ty9/o5LM+z6OFv9Dwjhfb0Lb/QcLm+T0cfSzxbh+emNOEPt6AYgboF4rwrtIsb3LLusFYt4gw3YxHeaBtGII4YJAbDvEsA72NjJg1wbM8yNkslm2ENmyWZGFmzosuzUmeERZm59Jb41YwWdHiW76OLcIdT2uNwwzBkjQ/wcLgaDK42F7E255z5iBiyFbAb3dEXC7kbgl4bMcUzf2iLbCydJXotkOGFGetm6ts4cB1N3cvZYEMFmsLztnlJ2Z3YcQkmbGE6wJAAbyWFjHiLJ82bNm4t+7Ubktj6FOJb+6zqu197Q0YGTz60GnBnn8noZZ9z6OFx+76ONzvQsN2G3N4izosKOyDRJB+ZBiwsZ7UODHWz3g0kw43vZ8lnPInBnZuKecvOWG3sd5YuJvkeehe2z23tsdCzpI7LPdXJwx2my7Xt0l42NjY4gZ6hjIiXZhNEYnzZ1W7SzvDcNUkcafS9bGvC+to4O+ggIDo7WwFyRsKY6yGaed0bhKmjK9ytMaCj1J0O9slmxMsXA1xAsUIeUQ/S8axeLpl5nSK7oAwvPq2HrpzWLxPF26z2mXBIoQz6xmFhDiZOEJZJbn6TawujK5a5OiGdOFs9yixFwY40jT6TfX9D+Fth+Hoe+4EOjcT3MbHo+7o6YlseGx6Hj7RqS5Pt6Es+iw8NQk0BYLBIgPGxvBeK2OIaEe9e9O3lt9vpvAvKTAEMHdWfadHawuGQMg5svWxrG5sISyTMPaOP8DFwtvt6Do3JFvPJgnBcrUh52WOBOwHox1k74YGJYHGjMyynvHB6BztnbxGMGLFLt1JUiFgzcTpCaEFxxpiwxAfybCR2gWNxOWTq3j1BAQ8HrYOrPRm7HvFwHeyId7Hdz2mTLbrY6fksKLqIR5LGRi2ZH/pYWFkiysi7rDZsy+KWU7noePYYYoan4o4LxGjme73LhGi6Ua5t/wCT08Pt6c/WJsadXsekd3tHoOftqS3XGrDc6sGg6Jc2ztqm1yYCxYI7MNpL0g9i8KxHaST3Pm9yy77IMsceo9HCAy9o7pHeiszMpkOYABgLMgGd0ZGAeh27OILscHJIdJZYHuR6GgIQ43PDidFMYi5xgLjDbgx0iXgRCso4nsKVm8WNG420+jmuX3SCE6y9l4XGe73aZxpwt4vLXFjixT3SnS8KeyXZSUvU6auMu48TOKYfkXGO5jtl0rpMMHeKDF2AjvCzS4nRkcR0tjlefOLhGRW3SxbDxpEjdYnc5JGHtAhJSYg8Ido0bj01Z4+hdLpqxnP2NSb6B6G5I1WKejO+NVt2oToDVLkjXhCNRtqxrcfRxQ40ND0OnBsxm2JeOHGYYcQB3WYGCwImJTcThrOhkmY1ZcxJUh3m8pZeGQxyPexjCxln8aMQ2ZbdEALCSIp3Z3GyKcx2niDVDE5nTbNgI0dOTUZjSP2bPJZ9+KzsY3XGAGTZWCwphU9skerIGSWC5/d6N5Zh8rGAywZjiN3O6yScCHEfSBPguMZFVvTQXWHNsTsW9u56Nr+UPiWNC3jkGAe1F+EsLxF44HGMF71mdWmzTPQtvZIx7WxoiFw7NkHDYdRvPopI8YheG8lh3sIGftY2NhInv+1hYWEs7yWbNk0ALCwlllEJZLM8S3xDZlqDRbkjVlujENi4aCXWNvTcfRwviP8AENr6+iCSwDNm5L6NiwWEEzO0r0S/Iu3mE4zBS5bLunpTx9AvwNkkC647ssu2mAC80dyO9ZTaHcY7mljAVPAeLNkslzSvNmG5NIqGE0vaZAlMSM453s/ThwtoS43W437X0LaGBAcRBcioZJ/et5M46yAOUNLPO0z3MPy3IRDYcMXf7WKO/ESdBlGRbE8r6n0PDT67TMpX+kY+rMAGdwswZNHj3AjjV0p7kYdMlxPfTaydLwkQx8Ssx0lekduaMwskDu2HdmGTvBWXfZd1l3kb1i1INsjHpQDokjHdGVveXUFOJZ4HpEHupjZJcnDe1191ut9ATrA7yMW+79YMd6xtnWZhuNx9HHXnT9Ecf4uMbeI+DrZQW3d4I2Ab6URotp/b0CETVxBdEd75qybRvYSImSwxxZ+RePPYiQwbsd5ZdFq+2k9LsJYPQsxn8wQG7Xm3mMNZyEFbzRUW5Bi2rtmxsIxbiez82dfqSx+WbrxNYGe5tlIW4bTjoUsyWCxSIznHa3Z2IYLtG3jD8CMBgNPtIYPx9G4+5i2E8aPEEu7bcsYYReU4bAdliYGm/wBjoa8NzMmutL4TFLhcgHzB3UYeHyQ02FukDyADTCRjLfArG0I4ibf73ob7umawSEhsMovSBwMqVbRpzk7lkyiJLddreCTMT2mwOLhO2kY5dGBsLHZBmy9Edm7JI7Qq3mbzNn0cmbq3GGJY0ygycSPXD7tO3El5ojGyP4x/i4t9ebDKbkS9UPD3lEn0jTOi20nRkYj2vs4jhVid+ZSkw3P7om1HpEJnj3IjRgmGDQmLDcHtqlyxx7Nix2XjXSi4N0vFNiLPe7Q45bGQUac+Jbe7YPgSNOs7C85lZEtokGF0Rus5YekBCO0SwANLGMfsovwIHeUlnhvKXxrNmzcTz+1wgicMGCHkxsjTlh6I9/bjXFlbh2eCEhKhJmA4O7MbTOK5XLFniToXazcYJMuPdZrZRjG8rIEhmRISKuNp4n8NjiS4nmDV4uV50G+hWxlb3ZR0RzZM7R9G8AJcQLAtxnp49mOSZbB3hgk8M4IvA27srZhmNUepZ9IdTc1nV4llbNmBLdHDZIxclwsSWCBiUcT2UtMMHIRx/hLhYs3awnUWJ0q7sLhiL2lt9o143F9/QW0nn8JT6pAnYsiIsiHaJ+5KbA7YLGGjd7SI0ZpZ9sczR8YsEeZDYVFS2QcOccQ6NtG+lMgjLOB7Ru70NVDbHJxR3xGOqbJb4AOXtPKdyZDoTi6QrkWfoXhXjRRjdjkvA3mbA6rrziwIx2sHAsXReYnYzcggMXt/M3xhy29ATwMYf/SGG6Oqo7+H3W3FHWnr3E+gLAxWNhKQ8reQYxL9LY4hyq2IBZOHIhslXDeKh4J2wLmcWBou1yfeJdedOEN/dGoL7sGvCMp7ybCR+wNEg3Q0RwlsLNoNk2cwYISMs5vv6BtPmeLI4uEtsXKsci2DdIt6ns9C2Pe4+jPqnoLhA7cuoSwcGD6l7RshvCm+xc/FYdUXngmzB5h+t5obrJFtLtMGHGjczk6E44hgE8X00aquCVAdFig3Sw8TiAW/N2lJjbvPAnTmtvsFiCMk2HLZiCEd8EEz64ss5gA5gq7sTB5xcRLbjebmbRObssC7CxNcZLdC9Dp9ZhVx01xYiR+E0UITMcuM2xfEH8GxZMZs4A4iMrJeRsUJbWZqQKphEYO9GMRiwaEz5GxBWGQ+4zBzsBnv1sExY6t7t4q7CmuzeWLH1LI5Edadx22zws+2kfkzb1hzMYM5vJea8s92LPusrrBR3J7kGfcx3LyWEEs/kwJFhIsc+5ZsnezPa5nzDZsyMS3e8TI2yXaQ+5CFibZW7y2MFyfeNM3C5vvoLZcGMGhOY86x20dXHVmHHpPTx9FxMo7EEjteFBOEscjmZedsOilg7588TtGw9NjsPQgwOI7+8uy7rwWVuzBQ/W88r1LHAzhYPNmlmEjb3jzmHRnDg0TFNyQmJmM8OaITwbRgM3L7RnABPmOS8CF0VzfXIHNziGOrT6t9do6fWh8RM9o3CmdO7/El3cMBYWVvKs4IycpzB68HMs9MbpyvKql3mApZ+QZt745YXnc5IlBybYAyocOgeVyxx92eXZPLfLH042eiiQ+PEedm8hOVgk9o6G43ivGvCuxSsk63gaycUnCtm76HvSA6wOeeb3uk9yX3bk3eZTEDOcMk7NsaZGEyOKPeslwx3SDgqzCu0SO+jOUY24bFyNjpEIxCdet5Z7kEROZy46WEWE72ZbMtizox14m67h6gjXjpmNG23AhnRbT3e/q4PQI0CwWEGOLD81m5LwJXpmxaznW8KV0diqgd1iNmO/MjoafCwzHjfA8u9yVOwsRv0vLZ+GUiGwYglksltfw31yxQSnKRIPwX0j0LE8DwTbolGLY/cLYRw9GyjPGgwQ4ZcWJ3KmyI8XPQ8tlw+vGnPwC2AJebxLfdcwwyjAMdmA7MYZO5BSOtnCW4cNiAYuF6R3TOpYOBlzMltuds7xQeONo1wQpBhHLj0Nye7OhJmhnH7tuKsNtszGBlkzDqgmOW2W3sWGDomkyNjPmx1ticnsW7AnFwQ+B1bOlPMTcvdFk0S5LJCXDOLhHLEYMUuLtJA4nZyTR7WgVg4LICt7F16XzlibsBNghoHqjvZ9t0YnLQO/NkJHpP8Q2NxaZsz2b98a8Yajp30s6La6dCJvu+hvtRqlzPfXbteKIOIxmyX5mDjJdmDHKyRh3bmPieYmMUx1igY402LqvIkEPMYDdY9nTJUhYQLZOiO7ZoEGeTCWbNmWWhi3c45sJlk5mUlkepE6+ubdNyHLEgQnA5tw8Ma5n6ESUzsss2ESOM43jYdi3ALF72deF+6dF2Z3YzbQLGXEm6Fj4C3rDA98yRgzFiL2csrYcmmp3jGb2gGOC6S6AJD5nUyHsRcLn7rMaNlDCczkLpGzAsJCYZ032G4SzYkgiCxTKyGAMMtztmcaGmOSBiw7XgLssRsj0np5J3nTM3Z5uGqXG/b6Fgll9HhDf7aOjHHTGjP22fQHz+hnuezU0X7jj0LF4aOivAsWLEw/KAwWbpeFPbROJyRjMiz8z3Z77GNzyWXSvNu1fHtwvTAO1ntNCjzEjPZvvtIcvQDvoPdcWdsxoTyWfrPU7FO5BsJhPsQYxbTiG6e+ZBWG6wmWGPyfQtrifRsG3G4ZFgQEmTEJYIBw3sJUCY5VgDDZZMvfOIuMFjthoA0eXQaOr30NODHIy7MXLxEI7LFy954sQelC4ybN52WJ3RZGZKG0eRGK95QpZ2NrB2hRTEI+9kMwNs2BmHeRDoQerks5MSB2ygeTHUU9RXcoJyotfWH6ylbavWNADDhg2YZdOGkZ0bg1Z0B0WZ/J6GOfbaBr0+/p/sI41bge9wjRuH2enae3pmHTbh3Gjq8jo20TMB/IsWCwdrCQjjqbxF4N4mmyJ0DPcXhGPhTg42TG5TNj6lkdFg5jj3ptjd1zYOq86XTs2ViGRzIQ2ih4GAnTO5HfmKBkvPeSF62e3IxFvNec0MxFgSJNh3mYjZ5rGwnZZs+8MNmW2kCw0yDbDXMtaWExbzLFOBJlNuJBzbSAAtuCasESeCEg7TOTnEYEQeo0NOLHRzZnFjkggnsrxLxI44J28kerZEhcOw2Byj3bEx2EuO8wpC8u7rszlSccOkeeO/eScXMYl5ITreaRKVmzosz8sO0Op+FDHoWB7I9H6kcaZ04+Xos36+oxbvYehn8voLffekePb/ANRGjb7Cxo8aDixoLmfLTaYmGBWDtYdiw7EMrHRicUt0Lwo7BHbhIO14k9heJAY4DIK6Ay9yMPNgXkdIx7o8O6z8nRe7Z984Od0EZ+LeNOHdIRe28WjwmBOTbHKy7rd0YcRBpmPmRoKOIMCyd5mJ6YJECkcGroT0np5L7BMduy7Mc0iCwrDDcXHNu8x3JZI4FgI43s6Kez76cg3AI6dyksFggdolz20dnQYUfjjpe/YsccYoXUS3UER8hOPQkeRKdOGwG7tv+qO0kL1iW8NPy6D3pGHxgWHeyWb9eNS5jx9L+F6dxa3TgeF6Uz42+ht3sYsaNlk9j0Nu/JGvG4Pd0DR/E30z0fVb6/o2+3fQs2dF8DcMarHtW9pZdDsxwNBhuFljXM9nWkLjIdEWCBjixOC8K8a8Ec4jLzoB1WXfpuBtPMXsLw55ECjP+KD1U3kGJ1IjQ0O6G/v0LeYue3bKzEYm0iME1XsWVibgsgkzccS27qxUdZYboYOJu5JgglrPe4s86hLadOhcJ7/adWOGpMCgsFhHZR4wmQ4WXRPeYM7nmOg5KFMfTBIXqThxiOre9DrKcauMso/5rwMVmvbSDto7a8pA7vVkWEpDqQhls8P63nVt/jEGrpRqvplxY6RN9Vvonofx30vRuPxfW9H0dUaP4WWK3safWb6k0kNlPAy2ejg3DQiW+4LNmZ7XCXV7rg9D2uMaYluWGNMEm+5H+Fua2+56EMWBEuLEZR4isBPKFgjgS3CVuBj3DFmRL1s6YQeYCBi4X7vRxZ/gx6OF9T0Ms/hpjR4lz7jBrxph6Hsd4NnRZehJA0GLC8U48dWed8V4sdOeJ+ZEjOMMt0LxjsKwxXqhzm2jA7N4GnWvwvzY+ueKucHdx3bzdmHAxJZ3AjusWG6zi5mbnN81k72ZbRMfd9H1G2j41b699d6Nsuj0Ybdcyx6NLZfjht9HPbCSRgwz3Nx6Z0W63ahlu9A2x3GSCLluL0nD0cj0Hi5veGz/AIeSJvkdRR1le7PYY12jDHcvEvOTok73NTswEjDM+cNkluFx0s6LA3I8mg6cbN9knVlnDy1xPEOz4YdCb4Kxx6BmmJJJlsQ0zDNxf2xY1zc2ZstnRdj0DPf4/wDWuIXxggtgjZiE3GOHAMYLzLB2iJ44S8BeJeBMn5OeZZo2zh4UhUlwwXTYr2Fvc2xwLHMXXebDCzJEO+wddn/FebIuSEG6Oj6o80g6MK8FiGc6r5YExFOWLeWO/ODNhtybY6R5b2M3kwGyQQjGyWbM644TV4VxWdM3JoIsyw57dcXC4+jlFtq8XL6Rs+nkt3uWIiJbpYTbrbfCezske23QZ+YYbtyrsuA67E3pDaeNY8NNY70gplvefJdVz4PxBCBne80L1vPDi532s3WxsJTEjP0GN/fR6H6308Xy6Jol996Mz9GZc+M9LOT7N+/Ri4PYehl8erE8W59ONGSu9fRcl9aNMWxPF9D0LEHbYsSRx+ZpBYsGANx1LALwWHa8RESHUljZKdF4Fhh1tYZt0j27wMklnW9/5gICdVv90wMPWYklZMU2S/HR7bsohto/nz3ErwbCGRivNHdjXAAjuXmsYEuJZLNm3iURMvn9RHo5rn7vQyx72hosrisQacYbbETcYfeSwZEGIMe6X6LxJ7Ww+Ju3tHRRNsfCkiZAO+LDxGPBg+a25/OwwKDqDC2bxK7m8S8SE4ZDudGyWbabh+gzZn7HoJJcxoyz7P8A1qTczXJnnwv6ehLk+URpwjgf039Gz3V9B6H8UPiNcWbidyODRdOH2R29C4+FxH0Jxx2RwWdI5l9yezVZq7gnNh7w5ue4PQtrjZh05riRpiIDcbB6XjSvRA4T+SzT37Hu2Lqx0EaA7W8hHFAFOorH1yw5Sy/PqNM+gO/usaZs273ofQ7i1Z7Nw6tzXBOjPdDZ97OvC5+70cJ/Cas8WL+EBpgvAQIGOqzdOpXuWGPs3iE9NEF3yXTITJkHH5kHArwfmPEo3dfDOPPxWPk+Eef4hNibVOx+zDdEdneBPQYcvhBslmZGPxrLYTynj+vQyyvotq9r62hp9xfSapLDxwDx6Hg+yD0fQy29GePZlt6Ht7UtiWEu8bFwe5cSXXbn5Lg0eY0+KdVhXGZaLfLaGzqcNB9BzDZl6fHYW1ggYui7+o9Rve7XMzx941dPFpnR3DoNtck8emP3OgacfRMR2v0vQtp50hoy3UfQcPdqaLj3GqSXR87FgvAnsofDB1/dl5N41nr3nzPHDsIy7fJeF4eLD6mwpvcZnoCx3QHmMKk2OWUu/WeuMdY7zgcQRiIrfLA9bx5fRcEcNgeSHcslmFXlYA+CJdMdr2Rx6NwPCJnTp9xCdFufsxj0coONA04excPRuPsloSJbPZcUmv7rjMNmeRuNmHRxxzZacfS6Lj6HsuEaPF97Q0z6+S3zpdEobhm6DK9ZOLnrHaR0RoOlMI3sO9hYRsGOoMtnQY0dA4NmHTg3D3o14XM9tMaDaPweh49NtvXoLcnQajc+/wBHC4/YfvQieI/GPQzz6Gpbe7pjQZiJf6ZnsLwbw4zdjY3jpf1N2vns8y4y0MRgYZYESeJ8WA4/EwYOGifkhHJXHGUMABWxdDf1swI55wxEjrvI1TnZGYbMIw7X4vD8IfvD2BA5kNxPAkoHubC4QvReNeeYHPRbDeO9eSB3lt7EzDeU0Wex7z20FiWDWNHOGgacdA69E9o14I41eLl7vUR6QfeTaLIKgx8d1CHCRMz9N473tG7hjE2RHcXkwWxT2MGLaJnEA6lnsvASDiGXD1WffZP9E1TJ2ueYTrHb3bScc2c36orGyS2lDOmZbX0yyRpwsH2z04fhaE3C3P0nN6Db27B92Ys6OZ3H69DZ5Hv1dG94HVWAJ2f3oaIE7KHxtMaL5D9xwWNePt6YnTheNicW0tsXdQWDRLJ7jcCxYLCBjx1bF6F3heJeLY7jmK6dS8PEy9nWMXDZ+r83a+aYMIy5ts3WXif2Fi6balOYJyWPCx2rPZtsydYRtO+p7ye9thu5iA3WDkYkfrE43sHm8sN1gwwoFm6SwjRbS3dD/EPb3RqHvYULpnkSxA3I5hGdSRMYmDEDidkqB32E6WdcrHGqaeC27QEAVsl4TmSfmxOMehby3Yj2XI/Ng4R+YBxR0aQOTZTHrJdYJ5Fp3vJjXZcDbwdWy5DN3hnBdtnEdtHZXlLJ1gdzosO9k0YY9tcohcCvs6JtDd8dA1H4o28S2/0XYXD0ZyEp1X9+h4T4bZ7cRq20vHo3g7/ujVuXkfQt9lbM6MM+4yhIss278np3/m1Aif3xxqy3990uSWn2o41b7dw1M5jv7obSQTA2iYsG8ReAtnsuxWaeG935gyR5LzLszHHpEBOC8Kwxwboi5f8AHzz3CLhmgXnEpEcAnGwdZpyWM4MzYk25UYSwx2lfNz3ncogzY3YdtVkYuLQYue7JO04hLwZsrYNHDmGoXeTHZkHITvoZy3C7cJZgbI8MBlcEioPvCDyOCbCbDmwkdp7BcdLwYowT4JFLQvoF59i4h1wXBBBcu1ymnG9j4cAzPWplvIPqRwCvYj+EjzfFkObL122xeLZYE6ZxckJkeXeQ0GxliTOvCaZ+0tV8q2e2iNfw9HHQBrvKZ0zMn5tGdDnxqGSUsMBMvxumdd3sOm9uGm/2X0N+9FjU/Zjj0cOJl0ODixol9jTmHTcmg15mg1WnGvCHMR6T0b3A2e9hUnYznJOxICzDNw5A5TwN2NgySd4J/jT9h3umOPS4NFYOIUpluHsxBh0ixaDlmeZx2iwocd08OmZjswURDm8w9DLLrLETZUXeZ3HNld4SglFAIQB0k2QwnuZd2kO6yz8bbBLR30GGW++Rq368Z7w2FycsQbhyfEhYlqFexLinvMwAMyNgRgxxAG45l/8AVLcx4MibY2cJ1F7nzK/7Yx40+wxDcQQTIBxHTvB77eZCxUUCxcB/N1bu7SOzbpcABEruYjHB+DLWHqSjjHZWbrYd4gu4gQ2bNi+8s6uuGWZ399pjBjR4+k8dTEwy/YYfRvLTfU32aumJjWnoZS2nNlpyPSeRrNEo6rZnzof4kDzOdMBxxGLhLNhGKR3ryWNhAiMQlk3QkNJx6OMOxDGgvcuKIYbM8dmyxzNw8WfHfQBhhbzGbg3ESqYyN7lNmAW9PjpBnHDJkxdUqQCWBvAxA/I7Q9vZ14Wb2H6h1W5/kjzZsLOQwEoeDj3YBljMcmBLZstcArbapGLaNkhCRYV24ddl/Yd/Rh3ngmyMUWW2GDAT9sMB2CQDOZtNq9lHHtLITuGwJbfeRYXYWUKbzxFl6IJOovuyG50naH5nz/Mfm5jmj+5hGmS4s84YHhfF/YXjfF4c47hkHFjumO+Y6r7SdrATD0aXy57uN3n4SEZfx2H8VjAHPDxYbyR3LyTs89LwLwLwp7lgDPS80YhISwxmSzZlbj7abQag1y6TjOri9BuK4ema811x/hY74AHWD5DN4F4dgaGVvI+bPwX5sY2G+O6np0rONiWC8ZEBuw3Teke85/Sggy2JYd3xY+8j2sDme3jtPmJw5SzA3mGx8HTayd4SGW08HytmzYGUYBDZ+cQ2PGUQy+bnbqtrcyehvlle/RnN3yxECTAdUcebSCbI30GGW4XAoy2sb5POot2ff97GhbS6NnMcMumhPJOWNXUnNmKrCERkwBknrZbuMbxZJBjAuTKABPBbvSMxw3Cxo6No8sMMMthoixxMcTW6Z3HYaKEM2PiPQhYMtulh2vEvGntrO9l4N4NkqRtPgr3I7sC0gvrcXYd2cfxpfAl+LNghIHt/NnrMr7UCctShdKjdHi6mddsRvo3kI78iTjd1ZLNtYUYsz3RjU1PRzwOnWJD3CAYAZ6OWbcb82yGPaN2wLt/N1F/MqxtRvgZcMJjZ0FnPSZLpxCDQwSR/dgwQLCwdodl2ibwR2UTiVHIeIoBNrtRmcT2HGIYz2oQ4T8wXA/hsNyoe5d2wc/HA/iuyY5DzXmC9N4N4ssckDmbuEhLJKeVeei6BmGccQwAOuImFhuMz4uRpiNPzMvl1IgvGGN4xgMzQ8LhicNC5fiyfQ4YnTu3j4flg4scx4JnyxgHazL2IX3cwvgLo9xHGjKQj6DP58pBJCN2LNv8AY6LLZ0o3Ge2hyvgk0zM/gNHDQcSzqk8XVZxAszdzfBGqS3lica8zFiSbihksO0i8S6GR2Gg8Gi5Y72idlFggcdo2DM9XyWA5i23/AMZ32yiXA0Z852DtRHAIxPBZd4erOLGhDNMvMclGwJmAW8IjFwESSaHL7iDb0OJNElj2ri9odC4x+LRLlcl+x0CwWBuEwVDlPbyvMK9MkOIQkciIzbfJD7MdOnvIufJHp1t7p/m7B3+1xRy62PnSkHUvxPmhE5P92gOINIx1wt5vR/d5CEhsHubMy8xnXBb6hqmY+jqEsmRIF5Iw7WeL+9nTOo/OaDpm5D2/96Q7CKMpF0dNyexpxjs0WfEnobn+2jZwyvtE6EytYbOn3T0OqYcOnJGiy2DeF11YaDoukaMU15J5P8fJbX76Y1BAwyZlLs9rdJfKzoObBZeQ2DGMTcXvGjNxe8Tq9z3ltM6PdcD29HJcLxE6cbh0NHtHH5OmLFwuf3WNW53d64jtbk/2zBoE4YJsG6/ueyn+ClefgiLA4bPnIzAT+pv+3GjNu5YmI9i7PwW/k2dsWL/RJBwbZtvA7D1vzYun5gOXAOZ3rBzG5v8AFeD4XnjA7Ivww/Tf9q8WV6JD52FeYsO9hZmPs5MwSJb60dM3C+0SaeJNytTcL72mVixgnnWFwj80lygn0pj8mqaHOGZm644mJmEaPF1+gsc4h0WzcP8AHsUOB7x2l4l413U/wFs6pXCNjBKYww2ZZdvvqzfaj0Pf2NGdG5rgalzX1vRzR1jQ3mxpi4Qx+epPEtnu+jjD5mPQ/c/foZ+Zf1HaNRV2d9Y9Byv6b6Yk0W5oxEz2LAMd1n6JT/RPZ2LiqY8DL85luV8x/wBDB9flH87Gj0DrvZxjvF1ryPicgxnsvyQP+nQMeWJcyWf9e3//AEsDwT3shvjHZyHTb/F6BxcoDKPJ4vd+JoQzHMZXkrwITo+bwpx8kzCzCyQJxD5bbV4ln3dFxNJbtcTHKH0Hn6CxTQlwS3ejkuEf4nHChzPXN4ekx0xAUHWTbEoX6VbOXvrvcHxPFvEvZtnxZPQZCedPUrAd6S5gHX4LL30UidGIePeBKcMTz6kDECzZLeXBqlyw+HUJb/RW4vq+30XG3ejWFfQeh/2ukMB2/R6ODOD29C2f23sw6JfS2I0Z+4TQmYfg+lEOgYaZszLPg0Ou5fKNCbce7omnCGfyWPaW6F4U4+FlsjmU6bwJ7OwqTODrK9flYOIwpxpko+btO/oI6uU4OFmrk5ntj4QByfmwm9Im7e7z0D/mSu6Az8V4m9+I8tv94fReFC9Sx7wMoSzZl2sIQ6clwjQ/w3P6HGVYObGM4sDpeLcfQ3TGqS2vOmFh2luhcUc2fosnOgwuMNIKG/yvGcPF4oKOVDDDBEe2HWFns0bubDzZ4f4j+MmmFhJel4d4d4FkHJxH+GDY2Z7M8v49C3e1zu4fQ8L2UMe1mdPu4YLsNSeNrt+4sy6bAdxsRqPnfr0M5J2/dJq3N/pl9Iz4yfWpNvXz9DxPI/P0Nyvl9L976W5Pl9DbH59C4JuWe7VPS4hb197EaMcrEB2vETh4QnAsvIvFiz54RsYy6aGOKZ9O3sdDDvKuAXCI/wAPNfufRxtztvmcO7MF04a5o3T6GHyaGjpQ6GmO3shs68LgQxNyXDOLawRZ+0zb6WTk/GleHeylljPFvZH5WHT54uYY3Em14fxIf6Ie+rcHBkWFAYsX87uQdQbIRmUGSEFbCc/KfiH6LPwL3mS8B4jtfmG4SwlsZ5M+dFiZLc+kDP8AY29PQ7P96OjDc8ei259//B6Hi6/f0HG5v7bxq8W8Po4RT8mhpxto930bCG1bHosw1zL0bcNeJ0cvd6FuSNW5NBpwnlhjTnuMP+LhbfyfT3ww8SecjHpZoto9Fnh6F9NNwPCNM6byW2g2bbX0jQ0UbfaaZ0WPZb6azEzLC+GH8aHOhPHuL6eYJvwFgPsE9ovHn+GlYPBj5hufglOjRAGDJ+ZIV4eWAAHzxnX8d5/xbfV+IGNTgYkP2rGNHqvxfmQuGTODMmG57Jd+cP4pH8VmWIbOPN/YXj2TiOybMEY2s3FPbWPcsO8Gd3XYWbJLLLazrxuN8voezYGo3FjjSdODcPo4x2TrzXH6McQwNWe0s5ejhGxJYZuboauca8LnGhGcY0H1vFwY4i9Y7a8a8KCLqsLJZJWMGzZloDq2fQN9nQ1fwIjXj+SNM2Z5d9b0L4b6rRs312+qaJDiXyJbXhKzZvm99No2YUeA8EtmzZB5Hyww6rh39Mtvu34PS8+dehbf4qQy3PxT/HT0CQ4hxjoHiy/82TNl8soA8jnTWPT5rI4027dRdp/E9DH8QPKfizWfgjb4z3lz0fJHUHzGe3jvFPP8xt/sjqyV5UdF6Qkfik+T4Nj5X4huGWtkQ2Xgx294FyI4i5jiz3aZmDeJGtmW64PRwbDDTGi21YsR20GvDQa8NJoaHDXPqZuLZgjm8HQdiB7y+qx6Vn0jDWBzspjdeJ8Wzwsd09kwZYNAd3YqV5rCWgfxXhbHzM8c5mO0jt7wrzEjm6IENmzm5nsizZs2J3Q0NBmvqGrL47aXjXG99pH4UGvAnC8EToMj3hxMtm2P++dDVbJ1OfjVbKy++/UWdX419ujGZlnxaKyzHC95mNEuT++868WzJ3s2dHveGOPYWLGm1vDb18Rrhn7DD4yxKchLdCBYHDIOQ4ntYTk3iS0Q5mf3MFw/K2VmVPgwF2o/pLwbP7LHANB7fleD8yVtPzb0P4Z79u5HepSf+VhN3Hbb3o7s4d4zzdyXjXlsKCBZNFrNONw/xNxb9vp7l6Y9F49I8RMFheInspewsnJvE0b0c/Nh2/N2Asv5rtWF/CYDlvbGx+LyKRgsdGdsCYcd+972TxIuvwWHUfckQZgQysdY3h2TpsCEdpwbw3UkWZ/NsPxEas+3bA0zolR3+zB6E4A5GD0bx8n6mzLoDU50IY/o8+hn9P6iZ0wR+ehot9x/c6r51s9lZs2b4Fl8azLZnxd0Nnw1zfB31jR0XwS2SS0WGuH0LEG3o5rYHoWFcNcQBWKW14C8CwuJ/IvDs3TY5h8MvvYd2yOK8iCaf7RsHroMTDjGbgzqaOh6ODfss2fXnGe/0cJUOqRj0G6Y0JiPdj0P54dDNzlix56q/MM49y4W0jT0AyEQDhLAz8lhcF4PxZ/9U9vJGMEGxzY1YOVecDmIenzS5Dg6ydiPuQQm/i2ub8TjVxkoUHhsDn5Ze57Rj+HDrwpCH/k5s+Xwace8/F5pgdIWSMoCzcfNeDdsQP8AW20Lpm3B5vSvx/ufT70H0NUmW73/AMIrwvlfB9SzHO62+wQ6Lpdg9tF0eL4fbVZ5rinU64Hod46ssOFDVZ7rhGvLrGi20H+CcLjEaDa4ER/gbi+jLhc/Q4Rw3o4aAdXi/RpnRv8A19CwTdtlzizZSvJMTatnTOB/EetkdxMaMrMvZliTq8YxHZyYsTy52DdhTy6z7Ij2Yhd4AAQMEyOfeFNmzqM/kWTpAz+WXI2EfeIc5II4YpJsDJ7sy6Ieq4sbEAiZG3Qy8Ped5LYxjvZJXZzeAI0+yMYknB+HOVIGWnOMDYQA3ssYfik/wNlcx43snh8yyJCXll8RJCrtdX80sgMtyanMTjP9jdj5zd5Pxe1zs67Jy8Ri/wB14/zd9/JOChu4cnHjEjz8N3gfiy9XxNhjLCp+FiL/AKl2fmhJhgLncxhGzF+fPa8JLGiwviOz2k0xckNj0frXE0zLbfzI49Ddj5LjGiX7i4arojEtplnFsWbMNyRwNDRaJGnG46GnDRiNOJcP8TPAxtwN7wfm85eQheszO6E0zORlZs2ZbWGsOjlPHoY+p1YYdbFlAbmYLNnMSgwQt8vHMZMDBzvo8KQ5FcJZuOHPYjIAEibIzMRy4Hg6SpdfRjQLNU7kLpsC9t1nQgLXAPltlA+24m3fcQ6cb++bYHVWxXq5X50GWPIOhMuAs0tzOW6Yj4wVn8GiO11kl0YsJ8sLbtFQnEwo2D4gAW4/H9voXaefD/5iNGDL2L40wWDtB2IdfM2X/RKf6r/kQ2x2FmF5C875Y7/ynpfJEK8VsAH86GfwRf3khDh5MRgY+K3f/GxnfZfdggDZLxfmA6vku/WE57iEG8v8BGXH7LyvxOwchYMZJDdMWZ+BCN3IsQ2Q9xZLMHwSMehGDzDgjRLPb3jsS6Glx0IuS4Ea8PS4x49HRcI/wtwnby3jXjveu4mW4Wc+hMmLq0pKxO3HnmKXHcWJuDoTuY6krxD5KRiS/wBUL/C80rxMMqYyjt7J0/MLwIHYNsI94bGWYYDBJ5s5EArg7Q+ggoueuIOWLNUDnzvLFpuDBE2I4yLvXTwslntzxPA5wLFgeNfcNuhyZjhW8fy6isJ5OCCYsqowHAYsaHH7D4DouA5WIRdS/Wm/xwmp7MLhnJm6W+Dt+w0NPobe9mi8Pd05vYZ1eIbvcfQ0Nfn/ALdHTjP4NWWH/pi+h0xosfj/AHDb0feLgTq9h/bMGmLF+vBg0bB2sDhy4gpws/Ij+OvBtoDrHPjeR8t5h+bBx88Im7m6du7Mdl/F3/pOV2Z7W3tQB5vtc/y0njZAFesozUJhhjKx8/FeD4N7sdycc2LzDdF4Fl4SHSAslmRiRZ13s4/4nRxxq7q9HGVOmLjcnUuEDPviSe0XhXZIUmHEpD2cCqY/lnB/tYU3+bFwf5suk9ooPrZrG72uwPyRFntdg/32Q4CO29hN/g2PmTqF+LvfDNZp37W6YqESYbg2BiGkmFRM5b+YwgcBYRCZ4X4Z/IHdY++7dbG05ezzvAdP8DbOLpoz/vdGI8gsVRu2EyWd8fDZGR5cvPtBFKHEpZiXOZfzt3ue8Iwu5wOWxp5b+50PPjP19DfZ/o0HX7f3y6vC9kw9Efc232WrHPm/fD6OJ71jQ03g7j0sWR20SxHRmvP3xxq33Lhq3L3xx6OfujTGOkQ4hYLDteKIcFhcGnePNyGxLOsFws6aHxzsPa7+wvGsDtbLOLjqet0cWro6vQtrlF1dzh6H0tHThDP5fQt9B9DZ2karL5tca14Lwr/nX/GgCDcFk6bkL4fkv+zZvVgN57S/MlxODr+I/nlknJEm3Lieg5eyI8N+b/UJxBTIM56QfPuiQZuFh1pm6XvNkXAfHfFi5U/Fv4Z4l/3rInBiD+YWM9OJHeRfmE/BZs6MxzOr9C278j8voWx3diDx1xHPfFwe2hoMkiY0w9wRx6ZP8GYuH3diIm+0+pjbRNBQbWNHSFixBiXHv6S2uOhpw0n+B5Fw1z/hcdt6PX6OHpONymNeOhNE0bH6DcHuh1YWLwxZ0b7GuZb7+g+iyPR465sQd/oLNmxJY4+56Lcj2X7LDtPbSnPxS/PwRAnBtXPtnDjP5t7Jh+UkbfPbBPhswHH5nN/zC7Km3zRSg8Fg9f8AEPWTP82KccwcODvYua7854z9EYw1fJcdgdJBnL8RlxhmH4MxDKm2Y4vsj+WvCs3UjMOwhsxYkHffoapotjvq3s34OX04PizqOmHyxqwz+WONWVGjN+76XKcI0xo4no4ei+p4f8ZngW6Khei8xNFiBHfrZs2S43D3eg2BnQ0e3pfC+r6OF+qNWGz2dSZ4vefQtry+n7ug2dFkfL0Mtvw5zJukzhPHC/KaGiwWK3t+zGrLI9j9fQtk9x+iJiWO57/v1b6F9Fqt9jF+IgLxLxYRwTxShv8ABOWDmxzdf92Ntv5S3U/mxyB/LYqdyPOWGeuXYHxP8BP8a3dLcYGz5SSf/W8hO995++MZ62HqR1PjjPpfi/4MRsOMPSOqp7jeNDf7oTgzttwx0jeQgd7NjyRqtjk8McaM+lMty4aGviejj+bhrjTx0dOH0E9TNuIKjm7New/Nh4zAHKQcFn0h6ceXYlNnFx9LY77mFjufmCu2wczB1x1rTG4Weq3jqg/F5H40uUhHUNAG6LwpByQ5niyWYZbmudBm2w9l6GXwel+5DpmzbX3PSOfFGI1N/e/uTU5meLofcvo4XJ8XxMxMpbLu8OqSLdf2+hY95bPa2dElhztbBY0zcKEkJuJ3T8HpfynpG37x6PoehxZE7RFn6I/hp/jpBYdVm6Lx5/iLY/5NtDeU4P8ANl0hgw9T+J/E2LgfE9H47HdM3jDuYv8ArWLr+Yu70YZkXU7ufBe/8QvDK4YLnGXwY6QjvSOsWIGouPee0MpDojaPQel087RYIxfDbWBgsHKuxGcHo8X0cbqhNMRsp1LAdrwEv0WD/wCU9ZLKV4E1CbL5uoPzdk/zZ/ywLksPr+LM7uObsn8kfw97auG8AhC5LvB9m7vyXfnPrXQgDd8fxeVPxYOYLxUpjgGw8l+Ybg3mLyFkTJtWFksyl+GS/MaZkuF2H71IZLhdtDLpwmF7/qBJYmLlGZAnfmPQlPaXTOiw9YjrEaYqH+jdPRzHc6Mabj1Gm/WFmQ+9sEOiy/J/ei6N9PpOlmzM4UO1mzM/pGuZ3D0Y0RYJHaT2jE2JXIv+BeLeJdtDdMR/O22sofbfYWzuwdOwesM88Lh6TV0bhfR0GhRDdsz5J14MxSpWGeSQcznDJ2nvbK2aLEwLGidk5ZZIsiu6d2XMOi2YUs6eoQtjOZCZJ/XLZ04z3e3oW1v9r0MdWrNnN1eymws4cN4C8K8SWeGMMZP+o2ILNw5edK9z8tzxzeW8d7RHT5oqOhOURZ6k6ZsPHyJ6Hx3YSHoQ7FsPiwruHvYjd/gX/aLOOTgct/QkuSm+GPmsXK+JfYhM1jIw3Ef9q8SXcRb43/bCaEt/s3gsEliI5DuiHxFjRvk/v9K/q7OiZg0ez5J0NOR6Cfl1WzHF7f8AvRdG3y8AsziJs/xoNWHPtGjZ3lndOwQ6DLDvhs2Zjk8EOhos0s2bNzJYs2bM9yUMTcjQavKOI/wJM9c6noxmDYJrK4SEjgkegsREbb2W3ziTzZckCUgLdPUpcnJNQ4MZtrTDoOmNXZMQ5W2LK+8omBKFmBge1iaORczrKcEhyPzkBYeVuy0M7sAznGZ4SH4JRETwk1jkRBE8X1D0M8l32mxU3Ziy8oMz+eG57SmHJhZwffDIcKshJ5Ol8+AsyFyZkur8BwnxwJKM9IZbNu6fuw72dMwP/YGEmzLYw8YAhoziA+E/o0wXgXZrZsf99/yLJzS/TK5jdky/tPTk+ylcH7OdbfJm8eHtb1wENo5B+yIz9CA/6475hiMTmxIHIw3QZ7E77+SICt1unRsfM7Hf44fo+6ntD8WEB3VfxoRKE4rt/NbnG29nulm6LyEJLcn9c2bM6Antf3Z0Ji/G1JvoEartfVNEzJvdIZ/BBoE2/TfWJmDrllqDpzNWdORcI1OceosattVvw3hwnUk9yDDY4XPNi4yYBi3KIjn8m2bJPES3Ql6MWAOszrgdj9tPxp0MejZY9pjDh1t68OSIjfNjzz3PN3Z59zA9mTMbMYOsyMDF4otJuF9D0hu8OL+dreFd/sXm2FtkgT96B3xXBHdTC+B4ggkSyW3KDbAe6szDoMS20uJ6t33YH/bDFibg4/LHNZW8acL4JlzYiWIFm7KZebh3fiDGrxPLf3gNc3CTv9f2SpADlbyXIc6cWWPas2YJiHpTcOJvvyyWCRm2szyPdHy3TTNm3+0sWJsED7n6WboT1vilf9EjSoRT/aeynuvlu1h+YLj5V0gBvmzzknFT03ODb6RhuAMuIfX/ABICpsPJe581lgFwdZBwfhHW+Yu4Vw/8rGjdx0u6P4vL8G7sznC2e4cQ+x8kfyVl6LyQ/HCW2iIbnd1CeNANW5hqz2xbxpzPT3C4asbv/GY5MM45v9jAcZ+bHw/KH/ttoCJ6deTdmYWGBwM957lYsx5K8YK4pnvY+uOvB1pyj+mLKHfteL4x3H4heNJ5Gwb3/cuzXjfNjcknAnS62SA4kzLtY/FZs6PEtnwjUAcWR+mF0JOEHeAMGmSuLm3R3DK+YAALP9N85uDMq8oTCxs339LHobvC/rEchHhko7jcR1cs2fyB8EzoZZ8w5p4ZlinJyHSVttxwzsvjc/0twe6/KsZZAWcCy8uNi2BPyNgbsp/H1JiBwvfEANsAg2Dx5bPgPOVssMcL2sjHEdm4OyTiMdWFFZHRmeR/vb08bz6Nh0Rl4c4xGd8P3J8izCoe3M+tiHxBH8ZKee6xfgM2QyOi35nmWxpiwgBYO1409pL2HM874L/kT2NjIKtusZ+fmsIZ/wAliOaSwLeR4+ZPRhgf+xPRizPOej893fg2Pr+S2d4MyB9Tv+Vd4+E96d7naG6Y7GE4N4VjTJYECws3Fo20cXLD/BnR08WmbOng0ZntcHpDa2sGmOLjbBeNPZXbJBkeZWFaUhzs/N28ONmf5VeHzaPiMRm4PM9I/F2PgsfwrJN8oFwWBt0uq+eex+bLy4PVi5F2R1j/ABd0PxbnE6UAzxsNuYxsPNdY/wAwn+65uT4FhZJCWNIiiHCnMSBC5XvifqDoSn0S6KzNeAT8MAcXM5AE17HmYC3vySy/fL8scLhIuU5xAa2+P9EMD2/XqSMSbYP3bSCsmxgIyZwnEee92CwLsPuFvqSg/Ag4AHOM7QYGb7R9ehbJpyRDkWJbapHBMskY8BAfgsryqdmclyKqXOHcveYjaHvdMT3/AG2dCbb5ZuNwfbATtKsqNi4dBzFwLnuguIDGM5tr4ZskIdCULAW+Jdo9bJrwnpMyyty9A6PE9/c9HMgjzR6xpiG0N8B2sFiR2JbgTvvhQ/TeDpHLwjy/N2X5WPT5I/7ZXVXZcF0/F/zLByq3nPeNDRPUtu+dRYsyLfJZGzaJxZ1W1xa5lgu6tgZ2srW8sIhrAs8zWBlmNHtJeBuvcC0zMnwgSZGz2+0qOKzB9pIKug6cLmtWLhP6tQFjaOAJsMBYLBIgXhbn4pbl/iWbShwZGXsls55928/yWPgPzbDb5JEgoRe+wz0DH/GQ87kRP/GIiFzbdZ3P7W8vlhH6J3MSMQQVznu2HsLODXgxIzLuvZ2kTarBiz7CDOB5jgUfhsKOM5htj5oPHcPkgBtBz2I7SO8QnexYH+kg2sNMtvxtIdj7W7jWzoQL8jLe9h/BrmbPx/8AcMmTFuyyAAYMQDhjaIGHFxxb15MGA5b6H9aDDLLM34g7xnFioVA4sFDisyYwu0zbChn3kGe6jmx4FGVDq2CS8U8RwXjQm5+9Z0YnZ7WcE6hzDk0G4XX7sXCyrBnGQ5mtGfPMQDllbjCTrdtzd5h2uF9rR1PBbrnLKxjcsU5kbrP7rLHGLhoaZhoTxZZRpn1s6BsRWRNuoQsuOXrZnqz+h4+hYi7FjipjCltJzG5DymwOzHhkxJgNnMkFmCSRy1sYtlWQPnG3vKOQ5UCKwSkD73RBzAzuzaXlC4zzWLEFtLJ/ZM74sik9Jf4DdlVjjIM2XASoFwQuVgjgGWJgcnA5LIbsJA4Yz8N8YbAg7Wf7sd2acDGMSWB5Mbg6LosnwfAGm0AhwMuJmMrhjitYkHCMvSZt/K/LEtWxbie8CNm2u9FDP9jae0gHA2uLeCFOO0iyCKJTYsiKMl/SsDwfJH58Pnuyhx+07Hy5u38Y2LqfcRD3m3bqCxcOQd1bKyPcZxez8z/olmxvib9HaT63wjrfgRjqfXd74YPY0x15sbx80Fyj8MLi9UbOkBsPiG4+ay/7rN0T0Eh5ebks2ZblQejKx1osDYkgcElmgAFDQYZbcPu+jLZ4dKwMaYuNw0TIkqDdsINgtgOd5vsCwI6OF9iPRkCZLckTQmfbPEgEWUdAarCNODcmNT1Lo97B4WTlgnjEiY2AJbOvijGjHKIjA0wDJozL2siTACgABIMiW6ECLro5JlBglQHDaPHIuHumR7FlCp1XF4sLmsNerjexoC+VgOz0TbIcbT71pyTwTzKh/QYGCSG4zA8y/gVm8YR5a6zyOxIQ22T9eIAAEavAfu2D37zyUQ9r2gYmZud30yAESSFgySz0z3Md7AvXqebNgJwn1cbNRKdWQ7kKJkSABwK/MjGHb9i6JRhxuCbRuCSx1BfBezUz3kP3O05Q5tiGcYaHC9hvhs2ZU6cWZbMcodEfxDyTfIswnGbGSxSJtk+TQILFg9k+3OgLxESY8+NpwgVZ/iJbmuzAHFXSuZzOLAH5QTixkz9tiP24sZAyo6HymDhfeB9b8W3vhxLlsX+6QKQnAZnhnC5KKGX2kLeR/PpP8GzHL8W5cN3Th/8Adf8AUnG7kOO9hYQkgGRjoNmZhmcgXtZPJFieLk+9nVNo3e2g0C+NcGiw51jcdJ/gdGJcWY3mPgfm8vysceRGAxoB2HB3rsoA2Sx3zZM9VJdEE2D+bD1S/KshwE3k2GW5xYeT4XnfiFuPsZB23Y+S8Cy9EWObObnKyW2gDWZHGUYDXCCywzoTMAEcqEZ3xYY70WIuVyuWwPMC+iMQcu44F5DrYlkU4htNzQ5p4ZjJMTyv2RpgZ3HmbeYRHaGZcY2x0M5QVckb/didDp37wmLGWzDixYwMgj8w7XCGHq2AewJO2CfG8mAt7iJ2e4jaHgyw6DZhjQdHjcsux7sjjvQwHD7RulV7gGUp7CTK7b06wF2PCWH95Mqrk9cEwfIsWWm8IhlsVP72kg043QdpA+AL4hSEzmNx213od9iNOFjCBV5Zn24GAKnRbDcM8Ess86bY5U7fOM/O9jhsFoX95ALBAw7WM2JT/VZ/9U9OsJ2zizP0+Tdv5bE4+aAicFgLtfkLHwPhHdvxBHOOJEqOGgefkv5OZxbr5jddi5+Cxf6rvA/Ev1fiyVzYORFn/YsnAY6ggQlklhppme7SGmPWzPZ7xLiF4zZ4sktuk94i8rVXCNVHFieInyM+ziCWIbyrg3YvGsHhYPbZoeyvDsXjSH+YkdB/Nn/JNBl6yAma7b+LwPiP4CwXKQHI3bPc3/e071V75kCJyrHzauvw3d+GXOPhGCE342jq42fgR/LWfpnmbls3+6wepbaPd/XeG5iS5V5uDLK9zN1kcmwAyQAARvuNzmAJAwY7Y0AcGgzs0T2oYsE+PoYQzbH9ZIlc8iwJzYezaIcdRSPxMOc4sWXjNl5t7uh28scXgce8RDkZl7ywfKuy3VSC707GxtOmxqssv4Pghiz2rDUsiXZZhrncN4zWXCwTHH9nOhptFndyHPRMNOgxy5t1pKh3RPzJ3y779SBUTl6lmoN3mXYHggBwMTnLjkm5RhdxFngwhO8FgjXZs+sxkS3J3LEafWYD2JQuHUATI8MNGOZCWE5y7EaaIcTFbgjXhHTa2gY4is7QnRLc/BeHPawqg3R+b/qwTj5dSB2ox/wv+BHNnB4s8GYj/AzP5tEQdpfuFkYY6iBNocz2qdFiONWxXA0y7c7DmRxRxbxZVbvsblAe7ZoFYQkysn1EYMkheAWwA8uGIDK4gOVkuyt5YPRwR930cb9zXaO1h5C/u8BeDf8ACntY5kuf2acz8D8w+tBgGc8MI40M7K+CNk6O1wxMbGLyX4v+A2T0c0zArLmRIIAN7G/6I6xfkjr0oOTBv5baGfhsTvYX+DbmOdmVbn4Mp64JQJHvHSoXgfMDyP8ATdhjFtY9h5Sz4f3FiX5CdluZhtnB+90xow3f62iCxJg2soOM7H5k4WxaPEcH3f3FjT6jZkYrHLDodmc1NiBA5JkCAeXMJOZMWYIOC3d5XMR1jEty4fAkDnY4lKvGYXOCwlzlFge66Dt6OT2thTTLM8sDHNFx+5sjeCYLCLne98WVsDgjiePYuL0MXlkd5k44iRbRJ8BslYlDavMgO0Q8yu19xG7sSSZQRcmnDMcqlvJ5gBG4IIYVc+g/xMNkWMkSI5hhvDCc5sD0DmRx6fA0e1YVjOCGHbNnu84ZnnooyPyzZVzgJjmzrbfanOTGKSDqyEW8DjOO7YfGZlcBLay42xi7JZ2nhSodGWzfsfQt1t9A8FgAedTMoF+7pmW5nhl8azOi+Jnj2dmXT6bDA9GGzv8AuttMHawdiBkYNzK5L+JTn45f/TBcC6J9zfsT3h7KT3fmjsk8fllzAw1+Z6Z/gtrk/BeP+YOw2EW7JL0C+SwdX83ifM4t6MvJyrsqE8j+L/gyx/pYVmOXTzLdOnC8N+Zw8Pm3cg4sO5Yd7JB+dog67D4YBnYgDDYgCJtFQwYsIsAFv3yRMcpl5iqcm4Y15PaO0gLBgmIwR7wYRjEIwaYUNljRYFg8pMvNmvJyzUePpCLOKmRwSABMkbsyWTO1tZDDh/LI3AZjnASnEFnYxOdya6fpLjHDYzLOLe7pjQj0ujAMz+iO1s3CS2kfk0zZ05kcasc3DQUJ3IYWe4NwTsC2o26Q2RkC+lYPJNzOIZRZu7w+GxDpneKPGW73jgcLtOBdj0OEMaBpys8p49HBvp65tq+ppmzLHvL6H0ZG9G3wCNGz2u0cFmGZbf2by2dGb+54fQ7X0tedMvYP7s6jaG/4frVmxxoNrbQzAcynQkct+L/kWJxshHiWMfuz4H5YD/bCXY72ywP5uLE7+T4C8f4hMl2ijoeEsdI/ew8/NeL+GWxxz5gOT+S7gX9ZP8PNxDx2hA3jRoPxWd2fNj8I7lksyI9izZ03iS29HAAthZrY0aczbR8QbiQgSGQbNoO8iJXu4JkxuxXIiy8hUO9HfixDYC3sd7hPfHaNR9LMwGdzNkJ435vNEuPmh47rtlY9DN8kyG7ZgPWeG/8Aau1QQ5WLr0buyg2gQZ+CS5+l5UjiTOYctgMvSH6bP/us3RFW5cjODSSvk5YScnCRbGEzLAJlle56PptkC+gsL2UuTt1JYXsrYVZs6PC+d/VdvQBm774NGqx7wfLHEkaLj31XTLH538RZYdP6TuaOi27waGJlb1/vARqt8pPl9HNfX1ZbMcFo6fSY4HoXw2w+jYm4tXe2/mRnjXiz/AQzYyTjocPB8m8vzhDb5LsH+ZvenAPGX4sfc/ET/ReK96zrGwWD/wBGyjM83tBnKs+1gdbrNEdtdsTi5lvNk72TRTE5rL4Dax40ePrz6G4nmONW4NHVdkatzPextFiTQNrC8BPaLAdiXuFkhk8ONxMww8T3vlpLw+abI+22MN2KD6/iS6PiYCPiD0F1LJhGdc/MsseO8Ebtu9h5g7RZH+icQG6Q22Di5E+Evq+LxrYpzniRtjbf9yG/3XhTRh/FIBk2NhriLCB2PRxeS+ljQJuJ3/Q+n4n/AJ0Sxpz4F+4nRjveDGoyWa+iNkl7p96BE8N2TfTzolmXZX1WpfVvrennZ6MPmQ2nXN/I1Gi+xcfRxPe2LOjN294bejjoNMImJheBeJeJo3Y6H/QiygrDkofCg07ODN0hsRqPoZl0fbidTyYZdGG33jVh8hoaNy9xBq2wiJYbkXF7WNVj2m2e0ak8J2L6xoaPC9iHxHo2N5Rwfhor0XjQkx4m9i7S/wDqgnIC384RMTxOER+WDMBgTj5YZ/us+RmTZ97EYCnKYf5Fj6PzMfHwzAcu3g65nDq7F1fy3lZ3cJmDvMgyb7W0Lmu78Fzwh+J4H5lijAA7PW7in4boIIZgV94Y2PzLXHYHy3/evGvIWdonf4T9Qwkynn+7v6OE9/uZ0zo8f3traGslt99fSjUyNiHTNz+5cNRlFwmdPq9Rp0+/pfut5aNz90tvRwuMaZls3GD/AAaweqLY9IejGnC+oj/Ay2+Matw++ho+ns3/AKg9C3XA9Ay44PRu8hcTUlh/F9Y9HE8r6h6HLgeh/mx9tnEOr3/13JjVbHf0x7Xf6oaMzuXm+yw7XhfEr/os/PxQjjg2Md1t3P1SnJuz92TNvszMIHA7+C7QTPp892ZwHJ+Cxhw6xnfM9D80bmO/4ssmeGxleNm9hNwvhsPPyF3aYTuo4tkwBDsfmoXbL8jcMJu2TFiux3hf912Q/myTle4fLIxZs6JSd/3RxpjTDGXZ6DLjDOI1yzXCNfsRxYglufvuHoW3pcLgQ68PUOGpcTSf4W4SAL3jsfm8KO5AkWMNmzN0S1bp9441Z6LOvL2IdtWOSNWaKOPRvcbGo24IdjV05wejie2hq9/997Eapw/2zPoe34/p1GQ72/xK+tUm6PD9LJ7F+/Q8W5nv+gPSB7ivy+j7K+l9CyuyuKwdrHaT20VbOT92Uw/Bf8K8axu33YwOfe82UAD2bxP82Pj80fwFjhfDpBDa/if4PQzHmeL1gcc/zJv/ALXfvNsl+JFXF2WNv8Nj5U/DHC+rZOmzsRMXjZuD8x21hYvIstGdJw0xpx/Nx9HH03uuj0LdcPQ+Lj/hZuEAD3nkQRINz2zD5ytrSJvI0bLc3zsfAtvWHUIxDgUa4Y+qcXOc04G8y6w+LzPxPcZe68IHmZui8GzdF1A5jDwvMXmIRixI9HHXMM8/mend+Z+7Orb8O4/cejIH9s+nJ/fs50zo28PL9MGrEe6Y/S3+D7F9JM2Op+IatyO9rpmW08t30FieLjg9jqsxh8fuDASAYsktvf6bw7Q7NgS2s6/sizZgwfkLiarMiWLEk/kZCwdp7RPaQyBuwTcs9jbqYfmOnk/N13A6D+bsfJYuLw9cyB0R8WB1gMgci+bjG6jr6PP4iZwYJu4js4XgQnAsxuXdF5rDvZJbTIs6cy4ENnUz6uFwfOnNdU95kBQ2saMw7fQw6cFgnE4rawel4ie2sDwbs9teH8Xhz2UZ48zJfowHGbaxGaEC1TzD13LQxcfiQ6MzxZxv/XsAwBksP+6/oZXKPzY4DwluWf8AHbefju+H4vf+JwBeTjs6IdhFB/JSwg3o7K8xAbJYYfF+IdWx/Iz4jVuj2f7NcyxPMP8AemNS5XqcfDQZ0HH9fL6Fhe0EL2+hB2TtvstW3h3f2nlzJmOHTMOxyfOib6dcj9MOgWW3Y+D8SyaM2d5KLbSFll90asfsizpyEqPUzGvT7y2ttMIO0DHErk3YI7ewOIc40AuA/M9tMH/tcJ80vhEQO2sWQW0aHUD6uM7+/o907g4ljdW2eek4h2adGeIdnpDsI0ALas9gbhzZb0NmVCCbnkzGqz+Qni52y8Lizm+4WN2cw5lxYMtz3LpYCHfYm6YCOJkv1NQSTwezGLFgkiY8g+WO0X/Gv+ZZ+YIgcASd06LDwvljpD+Vzf8ALe1/MTYeQAHzeX8E71mmFxxYOPyRC/cXgwybofmXeMhu7YWezdDIdb+ScF+OZYM5t3h/EP1fhjjfSO6/wAaVgxks8ZZ/nrsUlbN2+WB3s2SXzoYHsI0xHPeYXB7atx/23tm0akcHrRY0dbrBJZvcRwat8kxwTcOn7cej7DTOGdyBGyzRM2ZZbYaLZt7LvcJbOhT2nRvLOnNnT/1AmltmVcbOo2fXfuiwMRlxZcpsJKwzd49IFU+WcJC7Ie8cEacPQcGHpLek5glNoA8QjBtEOqyYy5aGrf7K6RCEie3XaGPaJgeRlsm7tsTvyghHeLzLKZLLL3SJHYsxzhY580eccWMe8YuUgGRi2dbke2QrI2SEZt4+MQ6LNgknCpYGSlYIvIObHhWIe0CzGu+FhTvZ2fN9kMoXIA+cytyxvoh74X2ui6Ms+B/TXBIiJtIU5Mrz8F/yJ7Gdg3ux92e38l4X2VxukzIwOx1u3Ha+Av7yxYfiR/8AFZ7XYP8AdPWPzKPF63Iy+2IXU/xd0Pxc4ntVbobGT+BjtbJ/usm58ll4FyomHeyWZb5Bj0fuxY1DLRo6Jk+2siSQTKxotl8I0dM8++4EyMMc4ntqMrjZZsuY4hvHaYcNmWQXDUmH1cIlOxmMRssvBvGsDkmsPEdiwEpEG79ZccNtDRbehyWWUhTh0YZJHKpB7b2yXEtvvnTOjxoGJTxbpgul027oTCO97dQLdbLiTELzZbByXcdJD+02aPEYLkMe0MYRsPEl4iQwbQdu/aFvGA944DR7Hf8A8R6M3+htIxb4wWacsbJps2BDB0YyyeLAwXnOGe+sim52/RIw+VYg5zE0EDpRXhQDOIzHDNTgQ/cYycNhdnh8HewtwuHvJtZqeB8CNW5X982IjKy8Ex5siZIzYzsti66cwnUzzl8azq/7O+uTMjgcPZszW2ExBNFMNuHAc/giYccrPxZOi/50MyJ2d7JQZFYdj1lP5M9BH5sehfm/7Fzqh+EfiC6fiwcfDeT8YcSHdvzo3v8A5l+SuZA+vw3e+K/sIbq3IzHY2f8A3XhSO5OXPpIxZJEpOIPoOR6R3IaYkg5LhYzEW9LhLLvHpGdGCdHUBe9l3RFqAh2IEyZuALdHTU1uIFbItlfBBi4wXbFiCHRTh3Et/DQY+Yl1zwyMzrcdp7oP4y8PwknX4gs5wZs3W8COzlemeLcx2vzC9HzeNeQhxZmVDocNhg73ZLK90Ypntd4iHLykw2xYcFsDTBDYDF01WJiAPfj4j0YJ57z4nPeOPy2bG8RGAsYzh7zl02UAZgLLFhA6WNIfAkZcD+Vs7ZkB3bEuR3nY7Q7kj33CNxsGYu5lwD4LJ14Ynd5ZiXu/o9CXK93+4gzBg3XBYBtPfygiMLmZA4sLVJ5svnxnl6wgEOD0fO/bpuXvNyjKIBmED1asggyl4OSOOYPOOHtOZAyZoAzFsV3FQZnXdvpwOODLYrJDdgOVnOcOmEl8qUOr2oaJJcvtYkSO0l6RkmO11B+J/jtMpzDMLyfKBjB88vg+eToyuTvB9ERZ8bPYlh2fMBzcdZdY/wCXGjZsPfJ+It4Vn6LLNkvgQww2xIyabwY05Vw9KaZ0NS/JLgskNs72f4LGAEY6PCIMsGd4Fhuk98OvG3qCTQeic7aMO14LA4IY7F414cyGQgj7jNZfkaNeI97A8sdP5bx0H7NpHLNj4dgh/DT3L8NzTLLjFnsqXC/mwcn5jrH5nr0veOqvmwOMlkc3/wAC6WDPTuWPk+Edx8MVF4NjcKL5msdt3esL/uv+lZuB82bdNvuSwsltIRDF/dZMoua4vS2yfxOxPY8450A7DGcbM2GB0Fubv+7Ulv2/3Fns9jhZrOVkL7KTTX/yuAMSQMkQBgLb+HQGqxj3OcHWW33TAR2CbCCCQ+BnDZTdAD8AWc+A3tkOLPnjhypb4zdYUuhDy3PWFsT0Ym7pOd5L7CAFMO6zecmDtZ9j4WUzLziw9mZiJuTBizPoDM8/jh1SGu3GWfQYmlgsHaRBkjtXhlOReNYbbReLS7C3cN2isXW1SI8y/wAfC/dPEchP2mELNk+5jd1gJ2yi+ZzOExvhDpxln0CTBe1zowmRhzb+5bN5MGLk2ZZjJgUu176rgjPBn7WibhGbCHMfkYdMDrbJfcfStr3ttMSE7BjZaQsO14XxPa/FxxjJ48z/ABGudj4EIzuPzKv+zeY/mxcfJbH/AKS5AHAZLs0Bx8y8zNjf4YePNzJ1xJ3r5h7ftec/LbO4/ExoUW5xyx11+GRd52f6LFP/ABgU2DnFlfQQhs27aIQFV7QQSYEL/uj+UsvA+bGsJn/3hMc2bOhtv9Yude0tjAWdHB3ksM5xvYoklYc4Z9Q5sWDyNvWLfknUsKTiKianDFFzzxDmZQmUe1me28QYNCY+pEOi+nroB0zLOR0dcCNGaWfQnGrPoGXeJNdyiI0xq+rbyyUBe0YWNsXuXVgeW/OLjGScizw5WKc2CjhiWW1+n6NhOb8TIXLYkOCZQ7WEvtCbI22Zxd4GZxxPy9sO1gu2MaI4svhzEHHeeJRhFXEySyJcEtGAZ3mR6zsWRwxWwFg+wxrmLwzgmsu2MiwIHZZn4IzDqcXsv3B2RmGkF40Unnxfctmzo4fIk4s4CwnnL4aYmO/u6ZNSKPf9mEh0xN2G3v3Ep0QdhL9Fj92UIMptZufiv+NdoaZLMcJ+W7Xyp7A9mx8QyRqDFPxPbzF1fxcOauFgGR6/tNnu946sdDFODP4V0kH4jhcPxoQ3EG6wx5Q3+6y9FlDPZjARYPdk8NkXvHxaLDd9o1ZZ9Gu1s9yGNH1Y+3ExpmZ1Zc041bPpVpolwbqiD0Y9XCLOzzJqfDCjDL3hGYYLcBKjxZiQoIyKOvFuVdeNkCAy5Lh4ISJNszAhkxC9pgIZHogy9XTcYluYQHgpuzDYOrvltgAgth1gYPczPbZBy4iwvJuaG7dh1WbNiDZnHYniy8xysgHoWNj5mozKabwTiHnHVnDcuXsS8gxRGXgn5P8ApzFZkDdQcJgndkxL0cT8CfXvEQtUMmYEbjiwxh1S6VjL7SxV5ROIu4cQN6WX5bYMY0PzI4DsdMg4RhLBPMzs0D5bbQwCbaPIe/om4Pl+tMlNkCa/JWxKjl4jDMOWdh+7ax2FkON4txfwWfomvnH5bC5+UfGGx1tg/b6w9rF/CQN0/FlAfi28ZwXN4+t+Zx7/AHjM6+NJyf4hciw3c7wudnZ+me2mLw5QO+hYLl7odCYc6A6McodtX0zdeptntWWI9AepuMjJvAntplhcS3u3GBdumZA3bKN4sYH+qfKLhsIjsJuTe5+bJ7oonGAIwruwvGacPF7/AMQ08OXOM8/0gMY3/el+fmnfP2iIhlnDjpZdIzZJyNyMEA5QHBAQ2XWzQOz2icToLF4UWbnOZ4bDnhdrG0fgD9+nEHQL5zIAp4IAhJzc5ziUzoWdjofVuhllRzkOjdEG/u2RLJwexmMmXPWJyIG3PdhJPLe/7btASYbLwIslICD2IiwAhAHbTMsL5w+FoUKTk+Ob+pdY2DYMTbObWZubGJlt9wa50GfFF4QnU8bkwOhJMQeGNw/1vEiQLixmexgGEJlYuogNghcsUDuOY3KyaJgTo8W/3TQDZmAreIiY9Bb78FhPz3RFzwEednVs/IntbwZKcuRQz3D8yHX5SB/6SsoyB4dg4HxH/BKOYORAsXQ/mD/ld6M2BDco658ILvCdXQdsuzQnAvMSITOVnR74Rof4eEcdEHLDOANwlmTXjLLMy2Z7WO8GmBZiHJB8VhpYdomHaHD6QLoXiS3RdgkhC3Jl+i7eFswj7RXv82Dr8rFWJRnzcXYjDHn/ABYz/WO3e+F/xrZ1jjNiFkQFuD/ZI9/5s+6/kjrzkB7kCwc1g5H8Q3+mzHL8WfOQwTbRnb6I9CisO7h+CzcH5stzhmwxBKSYkQhs6m8AASy/d/bTbR/jG+v9DYLYdjQ4wYMsk7j9I5kox4LyBaDPuP16X7iWPNYVGFbe0iR4ihw8sEA7oIjWMGSHRssroUS4A2hf1QYYXdOoXA2IUXI5Gn3iHTAwcKDgc+s+Fkk2M5ZyckuBbAhYcE/cPoFvsNVA2slIKtm7siMET+IclssMCxgs0boU2Y414WMsaGCRA6NI7V4iexdGs/IuzPDLd4ZsegfmX/PYf9kHlY7FjU/wcLo0z4LEJlb1FthlRgN/Qtp/nOMT3Y6gxA53d5kS04l75cDJCtAVsT0nFtdoBFjjwZxmaEygLYeEB4Qhtsj1Mst42bHEOn5gD3OSb66GzpwueGqyz44TiZsPwJLGjLPioxbQEhi4Op+rN0XiWb/RP8RKdFW6NN2RPzCOfkzxEYDZ7OLF/vjpWBxSfKfxPzw3eO7meifyXX+i81+LJOwWcZsGEZhixv8A7285+1/3LMHJgsZv+CMv9Mjz8EcQ/IZBhnmfYvI+GybJhtiv+xKAcCX4xf8AahupZNCPyYhhjgBEygCc4mEmSBbs8ujRkJxbg7YLY7DIMRYWnP8AOixl6cFkomHdGI8pFjxJkxEJyz7KNFlwW/Pu02GYcvg7wiE47Zzrc1bviAPYHaefsIy82+zJuJ4rjLotvz7wRplRtCq/QsDbk+YlhmGWHTjpH/BmCZRpYRznAd1nZ0zMOCNG4Q+0mLLINoyDADY3jkSUGOrZgO6ZtkcEQN7tnFnF4NOqkWJG4BEAN22As3xsjprj7RDd5geDrZZw2s8NhZxPFsXYNVmQPgYLdpJ4sQ2HzLZc7BOj2I0ZlnwCIKuCHyCd4ThJ4gbsIDKyWY05/wDW2ozY1N7+C60zNnRghLzvmCwwqrBGGzoMz8OzZuujIOT9Evg6YiZn/TcjGgLupwe9sIP6LDHF41/xr/nWHgxyuUNh3MLJxn5ukflf7SsjgPzHTkGgv9YthXbLJ3uxde73yQ3L+Y75OWyObS5+KT2e5ZusbNB2cjBVnbjATaI2PXoWTR+1GNGUMH5YY5MS42zPFwjAQN8QCdifMjAkJiJrdgJyJPIst9m+Y41W3pOg2SIuM5di5GDO+p7XKNThoMQ6cdJof4FuMRrHl+NDm4N1AusQWTTDFg/nY3XiHwDCh3jt7pVym9jaD2N7hH7QyGxHPgaESxl02mw3OiHazHC7VYIXB2jmyPKIThcvwaY04RG7BE8hvBgMSEkzJ64LF+JEzPEd/wAzaMhWx2WTl3xgs5kOHCxlmW/iTLDhj3nvloTZKeX6I1QGWZ7j8UcWFW2bFhNjjN4dWbAt3ucn2FibhAfl3uJMtziAiYMze8uTbhtgV2zNldHkDrdvsQ64G/vfDFOIHptsRcfI3XADY/4HLYbcuUJu49IFtdyI8nL2jGjY5iy5JCDYU/JOm+zIFcBJxHAJszZAyzeCxA5TEXcACGzhuKWwdPvdMDeKTji471kpyZh0QsLiA52rIUeWOif5sHHyQfEI9cMuDdgep+I/5ZcbhbwHIL7tg7vzHXofW8o0G4oPnPxCzoDYTuWK3I7ay9EFijY4k9IbNsaSxJIAwwOw6wUCDFiGzOJguMLERdMNo0DU1dWxhzK9J7K8WxoiDuNt4dj40MBHfeXocdqxm6SybOY7xePGfcxSEDz55lfcb4svdyyjMUrM3OgD9J7tjJmLkc403hR2M/YJ+UbuEd0jstBScHxi6hGJxOCsQZ0g6LcLl+FxMMJ2p5Imdi44MGCYA2DjVuCg21RMdULEjpfDAyZGDj7mwWSCzfWZUy8EJsdVfaLKcKOE8Rm/M9o9pvhoaMDR4Q8Hy3A1I5OwJVwUbHPX0gGHBCQM75uKf2JE+I1DrpwApixhge0zc8sTgKwC45shdzFMZxCzaOJ7tDH5YTub2HCdG/mG/wCP6g9O2bCKq74kXhzvYhuv3Xobj78oEog2RwicQuMEu8JtuTtGq2ns1TJ7Fi0YjssEEEQUDHEdq8a8KOcSzc0BOk+WEHdndgM2HeiiXB/CxOYBsLwQ6hsOb0vBGyZEYV4GxXFzTi8OE6I6IspvYnMDvZNG4GdYaHqdQKno46U14SyPo5oZXvYNMQzGE4cyLIsRjFjY3EWdvWewXgvFYc4p1JXkvEvDnDtMrE4bL0vE/N7ti8/KLlZGNg/Nn/JEeE5SnFzB9V/WXiWzuILCndIOITnV/Az1PmjLi57oHn7SXNZ5nAViWVk47t4R+JfV+G6TSMYzAcbny3hWSs3HzTUxkGAIzBj9mwqnMoEg9xYAHZZnfRfL0pD5xFylsws9e89v+9oWFxb6A4GSwEDn9x47GIACZKMnEgOAgGEeLbl73258ErDLipxzDn2sMXyfQNze6Y8PLiMKTnsrHrKTIHdnMPGu0faOAlxcG80odIbS2PdW3DGIsz3vF9azBkDLJEhDIuCS68W3SeC2JVnwMhLqEoWGmSO1lpjhlKXYzA4YMWEiRYDtdtHbRTF0RjiGMlk6W/tYd2YrjBGh/hjs9HG5624XB9/Rwub30TRbW4Xz6HL7alxua9DhPPoeNz/FOvC5vvobOjm/R4W4fnYsaDbixyHVWHaOxeNEOEgYMJmy8m7ou2J5kQb4kUOMbsKBhjzYdBjpH+Zmuy4btUE9KjuPgv6iYZV/bAnF9yyXbPRu435n5gJmb3d+LYy+5LuDk8XQYPzYjf47+wsXOML0R2GD85vCj+SvG+Zboid3sfEMtkkYmb+8AYSVyMg08/u9LafdgZXIAkKON5i6AYmDsRq+i315Law63MbM4bBF8E4by6r4Lh9rO8qJzFHOZpORLS3SyN5t0YSRlkz1lnHa3x2W84ztLA7Zt4XLJBxnNlOthtjT5B8lx9HCGgacI7RBpjjCNMf4eEG0mzLcbn7tS43N7+jhYfLRme093vDotnj0AaXI7v0cYbPz9HG4vy0dOLD79M6cLmd36OFyu8GvGWU8v79D3ezACOh9DwvZxxc6FvLun7hnRlw76Aa4fn/SPQD8392Fj2vET2UkkOEvybxrxZ6EXlOMT4l3IHs2fT55uwdTCEgZbYvB+JBw/wCJesrh3SG4yPeS6pQb/BGLcfxL4MIGVh5ufou0ZWALhuIOLDuWTT7a2l4NBUYBY05IwAIQ1/W1BEzQN4sFkKE3YrxYwiJICdkXM5sWHQiRG0cEC5Mvay/YoTXB6OHpvae3o49Jqf4HiYEJTmjqV7h+LB4WfsX/AGrzFhLaBPdpnW2/nZmbiypmzpw9AFwb730c1vfumzpw0468ZZXz1zPa5dIdG4/d/foeF7Nso1+uwwb2+j5SLaXj0LHkH7idFtxeH6fUgw6mPx/Z9Db/ABA9Cyz7n0M85d/3atwbAexYsWHaxHaHFPbXgXhz0EcQVRYeBL/oWZ/vgMttDIBYYw/7kdh8W+EI2MMTD1rvj5u+5liyYDMPW+CH7/EPEPEwuEP0fN2aV9SwmGIS2xFFjEYWLJC3GkTYz5vHZFtsa8NJryNBHop6MetsEQkKB4JDchYPCcuCyO88V5GMOW2+V2Yem7tKObtsXaY7fxZ6kl7iSN8TLB3vD0ZZpAcmdyPKtriYvHwjPB5SPLEhumxXbYQjOVnsPmOwjvFjckQvdYSneyTMMg9xZl0e62fm2YbM8Dfs65vrsUzdnoWPcX0GuZQcHo3B/XPpA+8fpgg1LyrPQ+jwP3D6Pufp6XF96fQ+Qr8urbV7N9H0PHtN9P0fUtoePSODXEN/uXHTFgi6O0MECRPYuiSDc3gXigOCdhYeFiYke80oPDfhZPSeBHsRs5xmRCgy6VwbN1Q3mfi8t41mEwOEYOHzeBeQubwj1kzpwhyS43cQkAeiWfrmh5Q9Hh6OPoG4WY/NhAsI0EyswcOTYWOkS+UbwaB2bDmD2Jh4Lw2Npq/ee43fWIv2WRBGV6zB/wBC8qGcrBYx5tzb6x1B8WD1PxZ0ZmIsQ2Q6bdgsvwLPo4EjzAnowm5QMDuQAw8R3X40vjwgSqfuG4+SO2vMWSQDYH0ZvOXwR6APg/dGhpyfFqzxLPiP69HCfoh7OizZ1Wz2LGv3EcewaZ0eFuCCxocu4+h4HlLh6P3kNj0cY7aNmW0JRJcvzpCxJHUJelhHA3gvBPbLKNrsbwrw2DpZG4QaH+BZbXGyziHFkR6FmsIY/LQ0XoEHEQ1cEu3MMAVhpw2F7z7BbclTOTNy++hLaNVdoQYbZsAy6NTAOyBB2Y+gENlWJG74IiWGeIfg0dFs6ZsiAw6R+XiQaOzGAHNzTMAqAuK2e63JY14t9DTDETwjiwPfQzm7NGCw8suWcM3mca6EdohG4Pez8CY5LCYsvToNiYOH5Q9xvdmZvR/M4sffYi3uvJgg+Hb3D4sHW/EYQULG2GPGbD1rH0fNhjEBs3bZ2juk/i7wfC9+EmZl49tIN03jz211PlQWGzM/AzD2rNmzP42XwHoeF8W0Hj0N+D93BoOnF7kNp14Hslt6OI8LjoacT3uHo6fe4RE3M97j6OZLTFi5ENX1Dr9TPqbhp82fPuhlEzPF+6DRNP7tSmCwniOJKcooiwgaPMAGuXl7WAI4ALd+bBFniysOFs5HRsp8kmSc1EU2Qwna96TNuHgm68xDgLktvs+h7W72Z4UaTG6ubHt50LfOQfc0c5JZDtvZzsDu29Udws+TefR9DwvhvqtMv3dp0ZxAh4HuyMsFDGhY4hnnQjHtJPYEhnaMFkUwBls1AaXXICMtL+RzMb6GnC81+GCPMbrgs7jPaYi8FigDsSHhKxqjD2H70Ykh8x+oHawkJEBIeInsy3RYXEwMe3YuF+bw+aEuxxFQU9Bx/wA9g9HxYphxEMA3ifN/e3d+8o8yxDKjq/BPWUtvM2uO5Y5svEhOpYPWeweEjBZ13/ijj0oejjHDVjnFwiNPuS21bkaDXh9BmcNW6/8AIdCBwsHdYOVeQWFwPxcs9bxrxb/rSTkgxzA73kg8DEG4e3lsNkgy7lCzTGLHBcXu6FgumQgZyLfG6MAG1iWISuCOZOkh40e6+k1bkl8VuJSRwQHGe6F0xL7plbJzcBs4iClfMKOu5vpPRs99fVaFAsWWeHobymd8CGj6MpxIC9hHAdD7hqc5GPZMMtkABwc7zKPhNzkNnl4izDo32P8AxFj2PC86hYjOeZzJ5WJ7BBjVt6eLTNdN5hro7M8JnLoqxdV3tMDJeDzlsrk3P7wOmbENs18x7LvhvrtNzGSzIMjiIjFmJO0L0Kg1QBNMTssgG3iID3LxQMZyYsZw5qjcajeGDqeY2bLo3Zch1TAcsO7A05WRozvH5nvknyNobJXgnvxrh330I7C8a809z3gxZkQkoUOvFoNEjnUJkpxBokc/8lbcQcIEhmxVyXwQhN4dbxtI9mP0mnF4o06x9jQPIAWFygeu7ajvrvtwTZNm+NYW4WD0Tz7J67FwbHZ3bxzflveigAZbWBY8F4d4d407eOII5OC8a8a8hDnBj8ITvKRDF8VbPaQkMTx5y+pplEOI2PJLG5Y0zMwd839ttsGHDIJhsdwzyRbYgHv78BqWbK4nEXRBMMQPsP3PurLLo8Q3fb9Wbj5xNTmcEQYCRjD1urAyJc50moXAWB3rg93QdPqN9bRbgm7YiWCUUcjYPu3CTeyLkOJI8OdoAOYBmbIC83SEczpYydpGZIY2IseC+JUAXcbYx7YQAJLAYdPuegwF3mfyZRmJLaMuG+5Cx12WFr1YMwOSH6Xjns2PgjyEUjHHWUDXdrIN46DY7yMG8+OTSA6I7PT+bdUiB6MUe/ZJMLeFHbSccyy9A659bMaoJDBnE2XwMH5hbHNuzO/o4yz+brETnKQCskxjDmxoMa+1tEgIxMLGAe+kldCUnsR2SO3wWObLwQWcWLHawTix20pzoR2YSexMbfgsLCH/ALLDzfazcC4uxHlxc8ztbeBZseqPZJu0E2AWJ7CU5ofXOHLhHWVicq/5llQtnPEVdRGm4Y3jR2UF3TGVnoSw72SUxEj20F0bIXYvqxm6BvAEpYcJGZ+cBGgoY5sZL7zqz+ZD4mmeZEjNhXDpBfwZW5zDvEQKDzLlNg5hl4n9KCHbbiOAHeMOIMWJoeP/AAsDcBs9ie5nK0lIWRJ1O0s/nh2hiWN74IwJoxcW2D3vQt84n6XAtVqSt25VcyJWyJ3sYyxu5LZoLBJFUMxuQsLCPdY3T2ucO0HFjpY5vFeC8E1gI76A9LD6G4aHVEB3xGUSVCYirHmwe96OaOFDO87hymJ8yxBAzdSxZyKOx3t5Hd6JVcTBGIZQOHWwpHfv4yyXLcpAKPbeVhuE2PNk/dDkGSMe8CXPEXk4oIogoBm2IEW3Nc3xFwaEy8WVjmWXAXKLI0lwncRFjQwDgx02ZAjIKcljQZ9vYnMBsCBCKxlgEyFeiB6ZWdmBnHvflnyfMp3vL8oO4hdlZA03sKBnePxAThebzGwdEPQoXgLn7lJPlfMUZPMBh/RCFzsWXuRJgrCOVxBwvF+ZjAXNzeyYDkmY76bW0RI3xulm8OdMFuCCcW9mVN4HndNi8rcIUjBut47NPuOgjaAdkVkuBuEuBi3YyJZD2zLncZzDB6UXZlbeCbeMb3BJi25y4MxGKUNc5iIwQsIETmQQs5nIvglWjOYYJd/9zip7WTkeaMsDActBZNHiPzaD/GNtEDAJ3JDIxClLjqEcqTAzvbUCFY3ZhA5OCWx4NeNsNiVkz6ZhNsnxOYlKYMogeCIEthtJFjmQZbB3ISvHmeYe0sTwEncSfxuAhzA8s3HPaXvYwCBxk7WWGdVuI4NG4HZvKaSUELG0WfaaZnn8cQzpNrJ0bn6CHvH1nrGa8ZcshVwEOKeiVcs2xvYd2ae1naxF1A7zv4Y2cc9pBHuapXJj0EIqwHLPXVzzEyz4cPQ3LJI5YDjQhYK91jTBYjdhgNPFeElui2OBtOIjjRZcsXhsTl5IAxkfm7XyTEH1Snd1g7Fk9SO1O8bL6jskeXZHMArvDZAZwLJnjR2F40xfPGYSHQnZvMfNJW1s7ZgmQHbSGu6C5MXimbEhuE2alyEGVTe2ILGihmJJi45vca3iYxTgzmY3UlC8FtOXsrwsslOAZzFlyzFFozAzxc3v/gHqZDlOHWQ4DHUpO5kqZXMdie9Hkklzj1vHu9SG3SxHeUNy8lh3sxYt5bGY7w5OqZ6mxxi430LiTylgGCGSIYCZoThjEYh4vJDLPELBv1n5W9jBPKncsldM2Z0NiSbtk2NyePzI84DtB17zqQifCssL3W8TjOyT5eTsQ4WVsD7kcCFmCN3NxUNAIDfab2EW5uVc2NTkyM7ccnlZgzvn86YQPXYg43jrVYYtLdZb3ZNzvA+DVkLAWdJM2Kg3MIHEnLGrld1/cEXDbaRB6Rt5YbPizgjiNMTeLaIl74CfRMdEbsHRBywjgjDyTIlwWYyhXCWJZ5FGwJLuU6oMcTSNvvDnBeK75YZjTQMePkvOsfDXdTED0/Fk9YdsjqmeGCNKwg7bNCdrC5vAsnUnuFgN7DRBsWNcXG2sEi2gCSWxkgXAonONnksBThCJkgdHizy99A/53giRUA+i8N4Ls9I8elh2uy1eT3blynDldWYmnygBXsFt4QwBYuiIve2wKthy0Txsef4gTySWzHThophzO2SAOE9rPbR2kcAmVC7D83hWfqSJm66NBFh3hkYnthjR3C/IlmzoQYMXcdyurZZ5PwrHqcWzTccGIXhnd+5h2DMTBohzzfwRqLmKv+NHi3t56bhsawMWF942/kxwCNFhPDfRuckY2+Q26IRDY0gDYjXeXk/dwNGMKGbMGIA5TNyc9JcC3ZLQew95Hy2udXMp9nOZ+dgOU0HbfNyLPJiELbDtnLE5yDkg20CS4HjMFjXg9o4sWJIGG0Cw7WHaEKkFLoxg4nsSnZ0Nhb+reRA9Vg9WQN4CeDZ7y9iWA+iNHMu6z6l3dQPL1gp2p547pOLm5651NTR0W0/ozZIjK4LN5LLKExI3fS41tIQwDcQOZ3kHKQJ0YA0VU54JMk4ngt+ttY4iYJFg7WCBSBI7aXgs72rB6Xggeie3ZOzovGntJ7UdhccNxCHF4ra4gLzkCFlXEFMp+G8+BhWRM7Kgk8y/Cey2zeAvGnt4cuJt4rD3PvPXdnoZsmHGzH5t7cY7+mcHGc3cR2l4Fm4EjvBjfzWZdOtAfI/tANfsoYF7bAwHBoBJ6sjQOAsy6dT2vuIxYkbjCcSwF2w++Y4M95eW4nlsdyyDcY83ExgctjocDE8wwBZ5h1Y92tq46ohhJnjBjds0GSC8utm6xtO+5IgHETbh7RrtpDAunChu+lwc2cnQsYsXbYkHCM2zMZy3kVICwsEDtAmEZuNrN0kRqvDPa0BaDTGp6WW4TcfZhU7WWRkPPOl4Bt6dFk31banDEDN4mYwcWWHWK5zvZRZw6I1c9AZwoCHnllBtF0jFnbMvhITplksmcExhQ6L5j0N96AvtvbNudoir0HCx6OiYhLnBOTAsTL6dG3eEsBA3HGYUFCuHTb7rq40/SxYsFgsCbgsJmEOfxvFeFeFINxFfHIPgvFKdILgnFZlvvWX8kH1Xlwuuzs5E9vAXj8RLFMHKKguBHXFjd3pigWSgzGDn4ITP/iF7/EGDXa47Ce2md7IDMYLi6QBsZ7wBYfJoh0LckApiIBhsR2baRqCb/wAxFQlmzRLM4jEPOJDHV/SDRkmNtDnebCzrcCPU3WXmHO2SsdvtYNnN12rm46KcikLOY4md2s4eOiQ2jlZjSElYc2MDykpxhmcJ764uD6TH+DhJA+IVy2YgJXmQ4SzyMKzoC46xUA7G85sYyuLEg8WFMbzxL2veY3AjLJ207Dxn9QVCzGSDW+LG1xfKNjLFxZuL4Myys9ZYXvp9NoOjuWd7pqHXA/FnKwIJG+0snEZxjiDjGSemd3EBZN7pbomrG3nMFZLEHZomzuYcgymH+toh158Ss+jeXbSOjcjwNSeLn78a8LleX96GmI3YdOxYsSw/Z302mLEQoGOLwWHacHEBt5jwl4Y7djiT8tkOUdNwPXBddhOXDvAf43sfGg7olNyCwcu7jHdGQ4bDf4k+YTO1s/RYZ+xCSFhgOJlDPOCAQ6uuLGmPk5uXsGFuWXIK9rAsODSb3KSGMALfHFsExPdsRfK5fm4y4kwFyWxQhLlsmyyveDMjXg6j/JQ92SNldl2ByEjg4WI+Viou4siGxWAZHmez8L3oCcxZDddogcSwDO71gMhM2Uc3MBLAE7JciAgC3Fkg5xAJiLsBLfW6miLtiGBwk8Ihb+ZZVy8WT4rSd4ZHqMsxsarsxCFw4gNcru3TBVJQHMSw5ZLGfb9Ld7f/AF6HiefAfQtre3k1HRZaDRuEPu/dnTMvmW32voWFYce0ehfMFw9H0Eca5vuOjr9tBYkksHxnaBYdrCwZGOhZek9i8JYOkFf4gFn3fN/1rF1SzxugPddnEdk0O+YB1WXdY9m7+bdsd67LHc0FjDGgEzeNgW6HJJybDa6WdxQmUnXaGCwEjk3SDd7w0cbZoxHeNG4NujV/wM8W52NeSPLPexsbCJ6QBLDtYxKwTYLHbWbpeGxNAMG7L7st1W4V2DN5YMuSwnBolc/B0z3Nn33DlbJMAxQuje/OOJ8DYksOyvxC9bY3mxXbOWF6LxofolTksEDLfLJbD3kRhxdGnwxENsOHlkGNFs3sP3ZliLPP4/Rwlmrq8SykGu1Ppj+XfSaGm8u99CNMSweVEM6cHvTTMs9uD6M7HotndFtLOhYfiNSzLP4fQxpAQJCBWDY9rDtOCwnise0t0sbnwscsUHTV5Lut4BM98quQiQYLwlzIh1WWOISYeLHYZhnNY7K8K8hDlHARq/4eN+n0cLPL3a5ltLJZdHKBlcPtY0xoG2rAR76MIIbWD79gsbGxh5CAcWFh2nsyOKwvBHantSm0Tx+jKYNjvpeCw7t7lt1bNgQBgD4vOsMQn+sXI3Ql8ZwcF4UYOMEQypEO1AOYqdMhn3LA5j/mXuzizmxHj/dox2F/3rhrlHgUzAd7Cyd7o2bD8PQsF/TMcejcij0L50ehbflD6N8f659DD42jr0Z/TKdGb9SHTM3JqSbaA1eIcuQ2JwgN0NHW4awsXWSAysLCRD2iy7dbHtoeGwuLMvBPavFCTcD/ACLPF9b0cGfonGY4OPT+l6FhJbTo31kSaLaH7NTQfs1JlyfvYsWJhMfh9Cw5HhehJL2DTjVu8eJLElwsY4LCQ6AWYdpL0vBZzadsXhvA0Qtjo3C+llk92OkpVq8Q+xEH1XauNmKNhZGBPa8S8XSseoQ7izOaE6F73xDumEx347aH6bzSMuTlB7wLMsI+ymrLJ+0lsWgk4/OrCHb0xvtRETxbvTMsHmBIhbjOc9DqOejM4ulyw68LnHoc/Ry3Aj1PodNhGRXG0LwLzFkuMhfu9HPbl9C2b6xGjcz3I4J1fD2RJo8WftjVltPf0N9p6S3vLTNmUt/u9O/wCIiRiefYS68Lcvz0zZuFvb3rFjTanhvn6glj3l9fqsz85+7geg5GCxrx/OwWCzdJbpDi8LeC8F4Z7Fi+1cBmfJYXb5NAMrCzggE29S9iQ6EwDliDBZZXcpwcMQrwt5rxLK8k4OSDlgHrZhniZ+TU1zBow3+7GqXXBtOhluizMcXJrm4Sysa8NS6ctxNX1mvCCo9IgZuTWNvAZbMdoDswTGbEQPJPCR20s4QR0lhLmB3u8otkNhgE54I7mmy9EeA6pbPJeawsyLGjHa/bjQmRh7PoWCbQOvG4Ds49Ffh9F4ub40DpyWavf/x6OE8tqBcLcndf36Hj3V9FqW72bYXYNM2Z/L9kcWdVs9z6ftaiS4Pk6Y0bcPhGqWD4saBYk2iPhbCxsZOInb6ynSz9I7U9iQ7esnzDI86QdVmw9Ybh6EdnTAcyeqw7MUtCzPWO4RWHeUhM5bWbJocpTvpjae7XFwsfRwn6ZxR/lGIdijMswqwEjGWS7OY7/dYsabSLIdJ8jMe14tEOCx7QO09qAm3XSmbaGCL0t+8ILljoMsFUcMuO7Y8zexcBHbR1tI4hTq0Pm3kzRzYeLPuvcg9VM4IY0M9y96xcrItoFM9CLCdN411Qhz56wFmzLaW95S2Zbh6abGO1+7+9cX1r6z0JGPEbAaZ0Wx3/AGw+jN/p4j0M/FCzFmdz4/8AfoSOfaehmfnNBh03+hvFu9x6OE9/c9CW/wB5sWNCGIDGMmwkwc9uuhjA6S+7ZXeVeXeWx3wZ82b4iA6LxkJbabu3KLjiXoY8XW3HzD6x37xryEWdxR/lc0x9zh3vKCgkqycYLjGMBueldgS+QJkG4+C3R3MydySY/Rnz+VliwAysJ98cuPB7Y6RGLAWAyscTjPOZ4kRM3kcEs2dO6g7h3blovSDcMY0wSQ2ezYWCwixAcfKICwhgfxgWFh2gw7RL9o7E9i8ZOHiZs9CH6aAvBbLl8S8C/MBG5gmHu4uxZd3Mrcgd5LJvY945bH00EeLKDtuOAO88WUGmbYEZ67mIxomALzx1YNwJ+OSfuydELwJ7xAesj50rMtmQ+8/UPrdnQd54fuI04X6HoWGsHRfP9J7+76FPn3R6PsOpPF9/0ub3iYnQBYsSaICxYJCG6BYLCDESxnsXgidIW8Er0vDEVx/5eNuVW5LpZocA2Aw7bTJ8P7oeHAzxHy6sY868rxLleMAWULIjiTF5WC+YkBf0XcoJ7WbbD3hcOSys23lse5PJ3JnzZK9cRQRFinlQW6/HBHHhZhniL42dExwGxPuCyryxCct0vWDhfXLdRgoxZcMD5Jdre3tMkDK7TaGwIrZMhNQh2/v52zYJEv3WD1kGVAuGG4MT5oLG1gh8LD41ggdpAu2LhG7YcB0vGWTovHEBjk3jvFPZgHePB3NvNig+NKAbybv0kHSe2RuHdNBTbHcKQ6pLmM3NYBwxZ+cII7l4d4kucxZHvZLazKWXhZsy2Z9CXaw3eXoG11+70Njv7o0Jdr7jXM+mMd/vGq+nNzY14M/Rx9QDZH+E0YW8I9EdTMdrD8JEqPMm0h5gGAsQnJiTbFlAFNDdHDCObDBGWG5Yjdt5H2DOZRtuiww2XD24QEY05uMNQ8R3amWsCRDFx6EEnFnn2SNeNlgTNzA8JMVCx7rzVtgZyqFkVhHEp22xCJQndLsXE60ugK59naLXWvM+VlmLkwiu4DZB7Ey5IO5Lf7llv9vQsezbfaagc4Hy2W7BMnaOrYed2BTS5M9/Zhsy2YNXmJcaKHMKbIyE/KOIxM6IHysWBbY3MQYzZZbOCJgrN00Tg4uJ9ZM9i3k/N3GbkdTbI+COoEgREByrB5Rbd1SOzGQjyuji5iyDk6WBzEDv1gQLJoOz72bMXC6vewJeC55mGUsr76EM8X3I14XP7xoOjmxrwuPoWzcf/iArPBY4nJuJPpA3gZbMKLzY+KKPNiG9wkPSz3kdokeReIsDemfKsHRsnRn8lHdvAjuF3BGLvZ0yS7XMxnE+a4J7H4TEEOrGnGOF9oZYZ7rPi42s4wMjgEE5M3zNtm5vFKQQewXBWIsqZgEkO4TeHu2NOT54LarETkHMGxJasPexXGVzOQD2WOPba5sDPaGB8JZ2YgzD8LyfCzQMd7n84bQeAlL42mZsA7mJLAcrX8WXDEZ/DJHN1sut8Qg3i6E8suEOPvlYnuxO+wRhfMqzOxDUbDGYrM4bWFFJB0HDoMu0/lhmYhvI+a2tzYz2sSArBzG++DFhAtmBNh2sbiAY6rYS4gTp6JYHVOJDvQXssB0IOZxcturAQci4kFhiWOYCx20N1gWZbvfRmzM9QNwuTDpm43GNXuuHo5Li/wAz6BYizpUDAJ5Q3sujAyBe8qEjkLaMmMM3GwYG1mcDYJgMNjIkzg+9hqXZRsT5N5E99edDAF2LsTFCeWwLcrDY+QuzMGBTjWfzpkunqYfdebgd057rMTFYT14tgcvEDy6oD1neWSWPY0Y4IVjZY/jZ/A1zbz8XB7S6M2+4CM4YMTb9di253g06NvBct4xLZjPi43hHQ7EOLAzzDU8t3QTjybAEoDd2/ESSM4zusD5GWXTO8sEsq8odGbLb82UdzZZk3RzcNuCx9ywg4Z3sSyBSOgvNuLZtxIViBL2sj3dDieATDD1yNzQMll2lIdTgyyyGUq4EHGcZgWSE8F4zBiNs3SxjCzDlly3nXZgDmL3wyUesD0vER22iJna8y82y7MlOGM6OpvflreJ1jvaHmkXg0x6cR6RtfXjkjCnO64B2saeVzD0nFlhnMSOOQgyEIqeVY/IyzIAEyVmxXAEmeLhq32INeFsPs6pDXMWIWD7BYWEQGIZfeWOjDtAwwxMMwXQxmyDEOzK9NMRKNjdlY7izW6PvJG5uqO7s4emBi6CzGR1Gx8hJolhAwk4d3CeuVDLYsHs3vXlbOczXzsZQs8KO9HeJ/gc5UbkY2sFggHPrBhFP4iCWxsdtAuCGW07uA2B2vfTFwlk9CEzdcwYsdWwqyGTfMGCSYMCA8kY4ETzJ1gOC+pGUx7McZmwnk3snMaZ8i9Mi3J7WLZ4iMDNieXOxvdsSZuTqIFRvG+RgsxkYTqR21EtDThdcFxbeGWETGEl7lZsLM4bk2IzSyQGwsbGAGDWGsSxOLwXg0AJxR6ca51LhHb8ELDOcb2SAO0Se7YWB2szMr3jm+rbLBPqOE5dwI7zPNm5nuRqyx70WTThLb7OmZZbTz7Ea81+r6Hghv6A7Wxs6wxDZsAsvulvDDPClmTXb7EMe0sQaMPbj8FtbaM+RANhpY9o8GObji8Fm6XZWyndY7E9mcnFjgw+Tdll5UCb0dFgjtrb3OnYx1GbBzPKsu+3HKUzHdMaWz9M9tILfqwWFmIkABMAdODPboSDFmx0baHiTMjObBZie1hXgk2kKFFsAnNJ0H1bhbrhJqMrDtb3KSxExZIQ7ZwTyaDqe7DZFlWWVYcEzlyszJx0WFIDMxkuQck9M6IdCWFUY3KWLeUsS93BpcSJdP33Ah/yLawSSXXJcxu7l+Ja3hPeFWTgR3CLm6RAmW4kJs2xPch2sxPF9uNeFx+zOiWctuGjcL9b0z9A92nJFwk5R3+6Z5hbkvr6Dp9BjgfBoTotgE6veS9Bz4E6MTLB+Uca42jl6XG7Y0Y0IQF5hIsIe0CLyjsSvQl+lhSs438tnjlvPsYu6JsZO6wl4STY7Q3EKj77Huj4nhjAY8t57xJ250uZHFhOG2Jk4a4LjXSBjpiFc2xYtuGpcIRYOkGQ7k2PMrhjY7hMYFjrjdnjUbLHhgIOLDk1HlsNqkWbxh136Y9R6m3eLFhJxPaijsWdTrlOTdie7IHtEGenAHVoMGMvUjDtjQHZzByWXNtOV5EL0SwubCudpgdreJPOEA/hBslkmYkfnLPoGz0XNfeapGED3Z0Yhvhj2EkGj+K+m1S/eQYsanIeMGmdHt+XUOg+X6OlkLsZdCeL7JGmZdpB5H6GZ/J1Z4NLmHbTmuOxYWNj+KYXFhYSYcoMNrHtPantQDYk4s+7eZPRhU5CeNzYu2mG6TcXRlAEsezpPdkreMR3rCGW3RDMxIaYLYjqTESMkvHS2eWOFcbOrvCP8WdHc58Ro21Sfy4dM3PfSNWGfcgYsWEiQ+7YyO0xwcRxhn6LxwTYxHXvdA7tYnKCrPWO4kHEPOQOlxXe9q8ReC6MWT6mW8OuKyATJsoA9Wkt4h73RZOi85eaHO+IISzItp7ISYdDkdLrxPHoLbvbc6E8X1CNC4RymtlxbjwcRM32LQZvoNtGg2ZfA30I1+hMx0HUbwkmdLwjUb24dALBHdbJBsbCLEeOJFneZYjlulV2VqVq6CKEii8cNi6MDuvE6DgiaDxLylgbN1yw7wLJif2lsR/k4X3PSL5NmHRbr6pqs8J7I0Zdrd930cb9bddRtfTixoMl+/QLERUMt8rCwaHaGz3WFhI7RBxFWFhD2sTcsRteKRYWxZdFDdViOXzL9cpgp2SZstF2J5sFnxnO0j2vG0fQik6FD7ryrHuk+YydGeeKDdFsRLwO5ZNM6CNnQXO7t0JuLEKxoy33H6Gz2ri1b6Vtx0CC547NGbatZh0DwLMOnNHadGeJwn0d+IdeFvIFhoDEdh20sI8cQYvBPavBYnEg1vvfmUZVhsR/k4NtXpDj3OhovguR4as9/YjVl1huOo6cb6ZFnRTeaBZnOb3assGiJ1Po+jmj8GmNOP5IINGD8SJLaS4nlsZsLGQWAPdoeCwntWZ46WbpeOezAx/mnzbyILrsPanJj1We6GjXsS4nV9Gwym3SUGzB1dVIx3skAhL60viizquBEaqjOnSnsahcsNvQ5bjJq8JcE6LcY7RDJPa4EMNmezZgdDTi3H0HA241xfvjsR/k426/EpeDYekx9PzO4EQM+TdRR2PhC9X4lAbkgDhwjsLLwJ7l8Cg4hsJS/d6ODLh41bjoyDThHb0WeJbPd9HCHoOaKajM99w9h6HLiej6+zizru8edDThb16K30z0sXiyxY04w29yCwsBcLGbCwsYB7UGEix7SYj2rC2D1bFwrvWRdgCG50ebAdI7EPtowZ+SNG0nQYw7b9ba5skOjnHQ0xS2mpHdcU681xHo4R2jQtyuH0cG4elcXo4XD/Avpe19ssW3axBiAt7qW6ToGUcTdpxeOYJGCwDd5jBygOKS67HmgJcz47xDMjj4269mne5vcnA7QbrzjQF6I7a6wQ43dbDvYd7JKYB92zZ02EU5LOi2b6OmbMgcGxq28aIs6bvDHVbOfaYfQ+n1ZbIvks6rgjt5L0cbi+8WdOaWW0zZnskMDRnQHbdYYhlx2ILCYCNlhoJmAdkYWlNiXH72zpz7tvZzA0/BC7WzYekGBMA87CsLCWZlpzDpxuGo3NDZ6OS4vRy3BOvE97j/hPRxfSOFz+6Jm5r6bVvuGh6Uc6cInT0sEBYImHaBxzm4XhRlnYQMPvIw35Y3N2T3gbFjurzrzrHd4G/GiR3ZnWTj7Fls3STnOjp9ZEaN9l6GOHu9DxfTR6H12pcL7WdeFw+/o5vZ07M3JcSJ059J04GnxjRv/AERxEacD3uOjN0XCJm43CLBN0gICwWCJYdrBvYsveUzvbDeO9JZZOJbHo5rg1bluJE6ctxToXD7lxND1f//Z;" vertex="1" parent="1">
                    <mxGeometry width="520" height="367" as="geometry"/>
                </mxCell>
            </root>
        </mxGraphModel>
    </diagram>
</mxfile>